G04 #@! TF.GenerationSoftware,KiCad,Pcbnew,9.0.0*
G04 #@! TF.CreationDate,2025-03-02T22:01:55-06:00*
G04 #@! TF.ProjectId,mobo,6d6f626f-2e6b-4696-9361-645f70636258,rev?*
G04 #@! TF.SameCoordinates,Original*
G04 #@! TF.FileFunction,Profile,NP*
%FSLAX46Y46*%
G04 Gerber Fmt 4.6, Leading zero omitted, Abs format (unit mm)*
G04 Created by KiCad (PCBNEW 9.0.0) date 2025-03-02 22:01:55*
%MOMM*%
%LPD*%
G01*
G04 APERTURE LIST*
G04 #@! TA.AperFunction,Profile*
%ADD10C,0.050000*%
G04 #@! TD*
G04 #@! TA.AperFunction,Profile*
%ADD11C,0.120000*%
G04 #@! TD*
G04 APERTURE END LIST*
D10*
X122292893Y-104807107D02*
G75*
G02*
X123299991Y-105800000I7J-1007193D01*
G01*
X126850000Y-29800000D02*
X150300000Y-29800000D01*
X101300000Y-104800000D02*
X122292893Y-104807107D01*
X101300000Y-48800000D02*
X101300000Y-42875000D01*
X102300000Y-49800000D02*
X102300000Y-69800000D01*
X151300000Y-104800000D02*
X151300000Y-30800000D01*
X126850000Y-29800000D02*
X106850000Y-29800000D01*
X102300000Y-69800000D02*
X101300000Y-70800000D01*
X100275000Y-41475000D02*
G75*
G02*
X99950002Y-39750001I694700J1024000D01*
G01*
X101300000Y-104800000D02*
X101300000Y-70800000D01*
X100787500Y-41837500D02*
X100275000Y-41475000D01*
X99950000Y-39750000D02*
X106850000Y-29800000D01*
X150300000Y-29800000D02*
G75*
G02*
X151300000Y-30800000I0J-1000000D01*
G01*
X102300000Y-49800000D02*
X101300000Y-48800000D01*
X100787500Y-41837500D02*
G75*
G02*
X101299993Y-42875000I-692700J-987500D01*
G01*
X124300000Y-118800000D02*
G75*
G02*
X123307125Y-117800000I0J992900D01*
G01*
X123300000Y-105800000D02*
X123307107Y-117800000D01*
X124300000Y-118800000D02*
X137300000Y-118800000D01*
X151300000Y-104800000D02*
X137300000Y-118800000D01*
X110900000Y-69800000D02*
G75*
G02*
X107700000Y-69800000I-1600000J0D01*
G01*
X107700000Y-69800000D02*
G75*
G02*
X110900000Y-69800000I1600000J0D01*
G01*
X147400000Y-47800000D02*
G75*
G02*
X144200000Y-47800000I-1600000J0D01*
G01*
X144200000Y-47800000D02*
G75*
G02*
X147400000Y-47800000I1600000J0D01*
G01*
X110900000Y-88300000D02*
G75*
G02*
X107700000Y-88300000I-1600000J0D01*
G01*
X107700000Y-88300000D02*
G75*
G02*
X110900000Y-88300000I1600000J0D01*
G01*
D11*
X139948958Y-114201041D02*
G75*
G02*
X139248960Y-114201041I-349999J0D01*
G01*
X139248960Y-114201041D02*
G75*
G02*
X139948958Y-114201041I349999J0D01*
G01*
X141151042Y-112998959D02*
G75*
G02*
X140451040Y-112998959I-350001J0D01*
G01*
X140451040Y-112998959D02*
G75*
G02*
X141151042Y-112998959I350001J0D01*
G01*
D10*
X147400000Y-35800000D02*
G75*
G02*
X144200000Y-35800000I-1600000J0D01*
G01*
X144200000Y-35800000D02*
G75*
G02*
X147400000Y-35800000I1600000J0D01*
G01*
X148900000Y-79800000D02*
G75*
G02*
X145700000Y-79800000I-1600000J0D01*
G01*
X145700000Y-79800000D02*
G75*
G02*
X148900000Y-79800000I1600000J0D01*
G01*
X139900000Y-83800000D02*
G75*
G02*
X136700000Y-83800000I-1600000J0D01*
G01*
X136700000Y-83800000D02*
G75*
G02*
X139900000Y-83800000I1600000J0D01*
G01*
D11*
X125350000Y-107550000D02*
G75*
G02*
X124650000Y-107550000I-350000J0D01*
G01*
X124650000Y-107550000D02*
G75*
G02*
X125350000Y-107550000I350000J0D01*
G01*
X125350000Y-109250000D02*
G75*
G02*
X124650000Y-109250000I-350000J0D01*
G01*
X124650000Y-109250000D02*
G75*
G02*
X125350000Y-109250000I350000J0D01*
G01*
D10*
X148900000Y-70800000D02*
G75*
G02*
X145700000Y-70800000I-1600000J0D01*
G01*
X145700000Y-70800000D02*
G75*
G02*
X148900000Y-70800000I1600000J0D01*
G01*
D11*
X145848958Y-108301041D02*
G75*
G02*
X145148960Y-108301041I-349999J0D01*
G01*
X145148960Y-108301041D02*
G75*
G02*
X145848958Y-108301041I349999J0D01*
G01*
X147051042Y-107098959D02*
G75*
G02*
X146351040Y-107098959I-350001J0D01*
G01*
X146351040Y-107098959D02*
G75*
G02*
X147051042Y-107098959I350001J0D01*
G01*
M02*
