M48
; DRILL file {KiCad 9.0.0} date 2025-03-02T22:02:03-0600
; FORMAT={-:-/ absolute / metric / decimal}
; #@! TF.CreationDate,2025-03-02T22:02:03-06:00
; #@! TF.GenerationSoftware,Kicad,Pcbnew,9.0.0
; #@! TF.FileFunction,Plated,1,2,PTH
FMAT,2
METRIC
; #@! TA.AperFunction,Plated,PTH,ViaDrill
T1C0.300
; #@! TA.AperFunction,Plated,PTH,ViaDrill
T2C0.400
; #@! TA.AperFunction,Plated,PTH,ComponentDrill
T3C1.000
%
G90
G05
T1
X101.75Y-41.75
X102.05Y-43.4
X102.3Y-40.95
X103.25Y-44.2
X103.75Y-40.95
X104.7Y-43.95
X104.9Y-41.75
X105.0Y-79.8
X105.3Y-43.2
X105.4Y-82.9
X105.4Y-83.7
X105.5Y-79.2
X107.75Y-42.25
X108.1Y-53.75
X108.3Y-80.0
X108.3Y-81.2
X108.3Y-82.4
X108.8Y-43.4
X108.85Y-52.7
X109.2Y-36.2
X109.4Y-31.55
X109.7Y-35.3
X109.7Y-51.45
X109.75Y-47.65
X109.8Y-30.4
X109.95Y-37.15
X109.95Y-43.4
X110.4Y-32.3
X110.55Y-34.6
X110.9Y-37.4
X111.3Y-81.4
X111.3Y-82.2
X111.3Y-83.2
X111.7Y-37.05
X112.05Y-36.15
X112.2Y-80.3
X112.55Y-54.1
X112.55Y-59.35
X112.75Y-30.4
X112.85Y-52.75
X112.9Y-32.3
X113.25Y-53.5
X113.25Y-58.75
X113.4Y-31.55
X113.4Y-77.9
X113.75Y-52.75
X113.8Y-45.0
X114.0Y-54.1
X114.0Y-59.35
X114.85Y-74.9
X114.85Y-76.55
X114.85Y-75.7
X115.0Y-43.3
X115.55Y-59.2
X116.2Y-46.4
X116.2Y-75.6
X116.6Y-52.5
X116.7Y-80.4
X116.9Y-77.5
X117.0Y-59.15
X117.3Y-75.6
X117.75Y-53.75
X117.75Y-77.5
X117.9Y-83.5
X118.0Y-41.0
X118.0Y-43.0
X118.0Y-45.0
X118.0Y-47.0
X118.0Y-49.0
X118.0Y-51.0
X118.0Y-52.75
X118.1Y-75.6
X118.5Y-54.25
X118.6Y-59.2
X119.0Y-91.2
X119.0Y-94.6
X119.1Y-81.3
X119.5Y-84.0
X119.7Y-78.7
X120.2Y-53.75
X120.35Y-59.5
X120.8Y-53.75
X121.05Y-58.9
X121.4Y-53.75
X121.4Y-79.0
X121.8Y-59.5
X122.05Y-76.35
X122.65Y-73.6
X122.8Y-87.3
X123.0Y-49.75
X123.6Y-86.6
X123.7Y-46.75
X124.4Y-88.3
X124.45Y-70.0
X124.45Y-72.535
X124.45Y-74.55
X124.7Y-46.75
X124.7Y-49.0
X125.0Y-80.6
X125.05Y-71.988
X125.101Y-70.488
X125.2Y-69.2
X125.4Y-83.1
X125.45Y-43.5
X125.6Y-98.9
X125.7Y-46.75
X126.0Y-73.5
X126.0Y-74.3
X126.15Y-69.05
X126.2Y-64.5
X126.4Y-65.4
X126.4Y-78.1
X126.7Y-45.0
X126.7Y-46.25
X126.8Y-84.8
X127.05Y-54.25
X127.1Y-64.75
X127.3Y-68.4
X127.5Y-110.5
X127.75Y-53.65
X128.0Y-102.8
X128.05Y-66.9
X128.1Y-83.7
X128.2Y-98.9
X128.5Y-54.25
X128.604Y-74.262
X129.0Y-41.0
X129.0Y-43.0
X129.0Y-45.0
X129.0Y-47.0
X129.0Y-49.0
X129.0Y-51.0
X129.9Y-66.3
X130.05Y-57.5
X130.187Y-77.9
X130.4Y-102.7
X130.7Y-66.3
X130.75Y-56.9
X131.5Y-57.5
X131.5Y-66.3
X131.861Y-78.2
X131.971Y-59.479
X132.3Y-66.3
X132.5Y-71.05
X132.65Y-78.05
X132.9Y-66.9
X132.9Y-83.7
X133.05Y-57.5
X133.2Y-102.7
X134.6Y-110.9
X135.0Y-49.75
X135.0Y-76.5
X135.2Y-78.4
X135.5Y-38.8
X135.6Y-57.8
X135.6Y-61.2
X135.7Y-80.6
X135.75Y-46.75
X136.0Y-65.7
X136.75Y-46.75
X136.75Y-49.0
X136.9Y-57.5
X137.0Y-63.7
X137.0Y-65.7
X137.15Y-72.9
X137.15Y-73.8
X137.15Y-74.65
X137.15Y-75.5
X137.2Y-70.25
X137.2Y-71.2
X137.3Y-72.05
X137.5Y-43.5
X137.7Y-37.3
X137.7Y-40.3
X137.75Y-46.75
X138.0Y-65.7
X138.15Y-57.5
X138.75Y-45.0
X138.75Y-46.25
X139.9Y-38.8
X140.0Y-41.0
X140.0Y-43.0
X140.0Y-45.0
X140.0Y-47.0
X140.0Y-49.0
X140.0Y-51.0
X140.25Y-68.9
X141.3Y-75.45
X141.3Y-76.5
X141.3Y-77.6
X141.3Y-78.6
X141.3Y-80.0
X141.6Y-69.7
X141.6Y-70.7
X141.6Y-71.6
X141.6Y-72.6
X141.6Y-73.5
X141.6Y-74.5
X143.8Y-110.6
T2
X130.437Y-71.237
X130.437Y-72.337
X131.537Y-71.237
X131.537Y-72.337
T3
X115.7Y-31.65
X118.24Y-31.95
X120.78Y-31.65
X123.32Y-31.95
X125.86Y-31.65
X128.4Y-31.95
M30
