G04 #@! TF.GenerationSoftware,KiCad,Pcbnew,9.0.0*
G04 #@! TF.CreationDate,2025-03-02T22:01:55-06:00*
G04 #@! TF.ProjectId,mobo,6d6f626f-2e6b-4696-9361-645f70636258,rev?*
G04 #@! TF.SameCoordinates,Original*
G04 #@! TF.FileFunction,Soldermask,Bot*
G04 #@! TF.FilePolarity,Negative*
%FSLAX46Y46*%
G04 Gerber Fmt 4.6, Leading zero omitted, Abs format (unit mm)*
G04 Created by KiCad (PCBNEW 9.0.0) date 2025-03-02 22:01:55*
%MOMM*%
%LPD*%
G01*
G04 APERTURE LIST*
%ADD10C,3.500000*%
%ADD11R,1.700000X1.700000*%
%ADD12O,1.700000X1.700000*%
%ADD13R,0.740000X2.400000*%
G04 APERTURE END LIST*
D10*
X111050000Y-69800000D02*
G75*
G02*
X107550000Y-69800000I-1750000J0D01*
G01*
X107550000Y-69800000D02*
G75*
G02*
X111050000Y-69800000I1750000J0D01*
G01*
X147550000Y-47800000D02*
G75*
G02*
X144050000Y-47800000I-1750000J0D01*
G01*
X144050000Y-47800000D02*
G75*
G02*
X147550000Y-47800000I1750000J0D01*
G01*
X111050000Y-88300000D02*
G75*
G02*
X107550000Y-88300000I-1750000J0D01*
G01*
X107550000Y-88300000D02*
G75*
G02*
X111050000Y-88300000I1750000J0D01*
G01*
X147550000Y-35800000D02*
G75*
G02*
X144050000Y-35800000I-1750000J0D01*
G01*
X144050000Y-35800000D02*
G75*
G02*
X147550000Y-35800000I1750000J0D01*
G01*
X149050000Y-79800000D02*
G75*
G02*
X145550000Y-79800000I-1750000J0D01*
G01*
X145550000Y-79800000D02*
G75*
G02*
X149050000Y-79800000I1750000J0D01*
G01*
X140050000Y-83800000D02*
G75*
G02*
X136550000Y-83800000I-1750000J0D01*
G01*
X136550000Y-83800000D02*
G75*
G02*
X140050000Y-83800000I1750000J0D01*
G01*
X149050000Y-70800000D02*
G75*
G02*
X145550000Y-70800000I-1750000J0D01*
G01*
X145550000Y-70800000D02*
G75*
G02*
X149050000Y-70800000I1750000J0D01*
G01*
D11*
X128400000Y-31950000D03*
D12*
X125860000Y-31650000D03*
X123320000Y-31950000D03*
X120780000Y-31650000D03*
X118240000Y-31950000D03*
X115700000Y-31650000D03*
D13*
X138140000Y-59450000D03*
X138140000Y-55550000D03*
X136870000Y-59450000D03*
X136870000Y-55550000D03*
X135600000Y-59450000D03*
X135600000Y-55550000D03*
X134330000Y-59450000D03*
X134330000Y-55550000D03*
X133060000Y-59450000D03*
X133060000Y-55550000D03*
M02*
