G04 #@! TF.GenerationSoftware,KiCad,Pcbnew,9.0.0*
G04 #@! TF.CreationDate,2025-03-02T22:01:55-06:00*
G04 #@! TF.ProjectId,mobo,6d6f626f-2e6b-4696-9361-645f70636258,rev?*
G04 #@! TF.SameCoordinates,Original*
G04 #@! TF.FileFunction,Legend,Bot*
G04 #@! TF.FilePolarity,Positive*
%FSLAX46Y46*%
G04 Gerber Fmt 4.6, Leading zero omitted, Abs format (unit mm)*
G04 Created by KiCad (PCBNEW 9.0.0) date 2025-03-02 22:01:55*
%MOMM*%
%LPD*%
G01*
G04 APERTURE LIST*
%ADD10C,0.120000*%
%ADD11C,0.000000*%
%ADD12C,3.500000*%
%ADD13R,1.700000X1.700000*%
%ADD14O,1.700000X1.700000*%
%ADD15R,0.740000X2.400000*%
G04 APERTURE END LIST*
D10*
X124250000Y-54500000D02*
G75*
G02*
X126750000Y-52000000I2500000J0D01*
G01*
X147750000Y-52000000D02*
G75*
G02*
X150250000Y-54500000I0J-2500000D01*
G01*
X126750000Y-52000000D02*
X147750000Y-52000000D01*
X126750000Y-66500000D02*
G75*
G02*
X124250000Y-64000000I0J2500000D01*
G01*
X147750000Y-66500000D02*
X126750000Y-66500000D01*
X150250000Y-54500000D02*
X150250000Y-64000000D01*
X150250000Y-64000000D02*
G75*
G02*
X147750000Y-66500000I-2500000J0D01*
G01*
X124250000Y-64000000D02*
X124250000Y-54500000D01*
D11*
G36*
X116420265Y-34486767D02*
G01*
X116459457Y-34494378D01*
X116486232Y-34509695D01*
X116504523Y-34534261D01*
X116517797Y-34572185D01*
X116515763Y-34615078D01*
X116494113Y-34654420D01*
X116487342Y-34662271D01*
X116473507Y-34675002D01*
X116457266Y-34681863D01*
X116432755Y-34684657D01*
X116394113Y-34685188D01*
X116320001Y-34685188D01*
X116320001Y-34585188D01*
X116320001Y-34485188D01*
X116379351Y-34485188D01*
X116420265Y-34486767D01*
G37*
G36*
X117728282Y-34485194D02*
G01*
X117782324Y-34489039D01*
X117820405Y-34500965D01*
X117845335Y-34522430D01*
X117859921Y-34554889D01*
X117863222Y-34572762D01*
X117861005Y-34613647D01*
X117847049Y-34649612D01*
X117823438Y-34673862D01*
X117823027Y-34674092D01*
X117803507Y-34679428D01*
X117771065Y-34683300D01*
X117732501Y-34684883D01*
X117660001Y-34685188D01*
X117660001Y-34585188D01*
X117660001Y-34485188D01*
X117725498Y-34485188D01*
X117728282Y-34485194D01*
G37*
G36*
X114864197Y-34216056D02*
G01*
X114927664Y-34227769D01*
X114977232Y-34253569D01*
X115013431Y-34293975D01*
X115036794Y-34349507D01*
X115047850Y-34420687D01*
X115048850Y-34465507D01*
X115040793Y-34537574D01*
X115020505Y-34596787D01*
X114988552Y-34641763D01*
X114945497Y-34671122D01*
X114920640Y-34677784D01*
X114883471Y-34682754D01*
X114842501Y-34684796D01*
X114770001Y-34685188D01*
X114770001Y-34450188D01*
X114770001Y-34215188D01*
X114837883Y-34215188D01*
X114864197Y-34216056D01*
G37*
G36*
X129221648Y-34221344D02*
G01*
X129281174Y-34226457D01*
X129328667Y-34241612D01*
X129364448Y-34268461D01*
X129391811Y-34308695D01*
X129394346Y-34313981D01*
X129408329Y-34358107D01*
X129417113Y-34413341D01*
X129419895Y-34472369D01*
X129415871Y-34527873D01*
X129407166Y-34561933D01*
X129385799Y-34606967D01*
X129357166Y-34645068D01*
X129325425Y-34669717D01*
X129309847Y-34675366D01*
X129269609Y-34682363D01*
X129217317Y-34684960D01*
X129139633Y-34685188D01*
X129142317Y-34452688D01*
X129145001Y-34220188D01*
X129221648Y-34221344D01*
G37*
G36*
X130639961Y-34511872D02*
G01*
X130639693Y-34664093D01*
X130639126Y-34796498D01*
X130638259Y-34909218D01*
X130637091Y-35002380D01*
X130635620Y-35076115D01*
X130633843Y-35130549D01*
X130631759Y-35165814D01*
X130629365Y-35182037D01*
X130629322Y-35182150D01*
X130606876Y-35220610D01*
X130572868Y-35256258D01*
X130535001Y-35281014D01*
X130534871Y-35281067D01*
X130530168Y-35281864D01*
X130520120Y-35282631D01*
X130504359Y-35283367D01*
X130482520Y-35284073D01*
X130454236Y-35284750D01*
X130419141Y-35285399D01*
X130376868Y-35286020D01*
X130327051Y-35286613D01*
X130269324Y-35287180D01*
X130203320Y-35287721D01*
X130128673Y-35288236D01*
X130045017Y-35288727D01*
X129951985Y-35289193D01*
X129849211Y-35289635D01*
X129736329Y-35290055D01*
X129612972Y-35290452D01*
X129478774Y-35290826D01*
X129333368Y-35291180D01*
X129176388Y-35291513D01*
X129007468Y-35291826D01*
X128826242Y-35292119D01*
X128632343Y-35292393D01*
X128425404Y-35292649D01*
X128205060Y-35292887D01*
X127970944Y-35293108D01*
X127722690Y-35293312D01*
X127459930Y-35293501D01*
X127182300Y-35293674D01*
X126889433Y-35293832D01*
X126580961Y-35293976D01*
X126256520Y-35294107D01*
X125915742Y-35294224D01*
X125558261Y-35294330D01*
X125183712Y-35294423D01*
X124791726Y-35294505D01*
X124381939Y-35294577D01*
X123953984Y-35294638D01*
X123507494Y-35294690D01*
X123042103Y-35294734D01*
X122557444Y-35294769D01*
X122053152Y-35294796D01*
X121993896Y-35294799D01*
X121450208Y-35294813D01*
X120926330Y-35294807D01*
X120422092Y-35294782D01*
X119937323Y-35294737D01*
X119471850Y-35294672D01*
X119025504Y-35294586D01*
X118598112Y-35294480D01*
X118189505Y-35294353D01*
X117799510Y-35294206D01*
X117427956Y-35294037D01*
X117074674Y-35293846D01*
X116739490Y-35293635D01*
X116422235Y-35293401D01*
X116122737Y-35293145D01*
X115840825Y-35292868D01*
X115576327Y-35292567D01*
X115329074Y-35292245D01*
X115098893Y-35291899D01*
X114885613Y-35291531D01*
X114689064Y-35291139D01*
X114509074Y-35290724D01*
X114345472Y-35290285D01*
X114198087Y-35289822D01*
X114066748Y-35289335D01*
X113951284Y-35288824D01*
X113851523Y-35288289D01*
X113767295Y-35287729D01*
X113698428Y-35287144D01*
X113644752Y-35286534D01*
X113606095Y-35285899D01*
X113582285Y-35285238D01*
X113573152Y-35284551D01*
X113534947Y-35262420D01*
X113498783Y-35227553D01*
X113473770Y-35188009D01*
X113472128Y-35183133D01*
X113469621Y-35170189D01*
X113467469Y-35150290D01*
X113465645Y-35122133D01*
X113464126Y-35084412D01*
X113462889Y-35035823D01*
X113461908Y-34975062D01*
X113461161Y-34900823D01*
X113460622Y-34811803D01*
X113460268Y-34706697D01*
X113460074Y-34584201D01*
X113460017Y-34443009D01*
X113459991Y-34309315D01*
X113459983Y-34186458D01*
X113460119Y-34080837D01*
X113460327Y-34035188D01*
X114560001Y-34035188D01*
X114560001Y-34455188D01*
X114560001Y-34875188D01*
X114737501Y-34874018D01*
X114782876Y-34873459D01*
X114843109Y-34871943D01*
X114897041Y-34869741D01*
X114940107Y-34867050D01*
X114967739Y-34864067D01*
X115023849Y-34850010D01*
X115095131Y-34815673D01*
X115155503Y-34765515D01*
X115203961Y-34700677D01*
X115222320Y-34660188D01*
X115355001Y-34660188D01*
X115355001Y-34765188D01*
X115355001Y-34870188D01*
X115657501Y-34872834D01*
X115960001Y-34875481D01*
X115960001Y-34765334D01*
X115960001Y-34655188D01*
X115865001Y-34655188D01*
X115770001Y-34655188D01*
X115770001Y-34345188D01*
X115770001Y-34035188D01*
X116099782Y-34035188D01*
X116102392Y-34452688D01*
X116105001Y-34870188D01*
X116295001Y-34871616D01*
X116353448Y-34871674D01*
X116413565Y-34870943D01*
X116466229Y-34869500D01*
X116507259Y-34867463D01*
X116532473Y-34864949D01*
X116552099Y-34860815D01*
X116613474Y-34835798D01*
X116663450Y-34795450D01*
X116700807Y-34741395D01*
X116724326Y-34675254D01*
X116732786Y-34598648D01*
X116730676Y-34559105D01*
X116714497Y-34490810D01*
X116695698Y-34455188D01*
X117450001Y-34455188D01*
X117450001Y-34875188D01*
X117642501Y-34874092D01*
X117703821Y-34873338D01*
X117763351Y-34871824D01*
X117815008Y-34869726D01*
X117854750Y-34867208D01*
X117878534Y-34864437D01*
X117895843Y-34860254D01*
X117946837Y-34839970D01*
X117992907Y-34811052D01*
X118026514Y-34777905D01*
X118037684Y-34760909D01*
X118062912Y-34702733D01*
X118077085Y-34635986D01*
X118079197Y-34567287D01*
X118068241Y-34503256D01*
X118050642Y-34465477D01*
X118019741Y-34423238D01*
X117982237Y-34385929D01*
X117944110Y-34360435D01*
X117907693Y-34343154D01*
X117961347Y-34288400D01*
X117983064Y-34266847D01*
X118020249Y-34234583D01*
X118051987Y-34215534D01*
X118082332Y-34207600D01*
X118115338Y-34208683D01*
X118157305Y-34214435D01*
X118163566Y-34162311D01*
X118164932Y-34150779D01*
X118169458Y-34105037D01*
X118169829Y-34074482D01*
X118165294Y-34055336D01*
X118155105Y-34043823D01*
X118138509Y-34036166D01*
X118135109Y-34035188D01*
X118209298Y-34035188D01*
X118221149Y-34057688D01*
X118222294Y-34059820D01*
X118230443Y-34074482D01*
X118232804Y-34078729D01*
X118251169Y-34111314D01*
X118275699Y-34154591D01*
X118304706Y-34205581D01*
X118336501Y-34261300D01*
X118345615Y-34277284D01*
X118375660Y-34330502D01*
X118401581Y-34377216D01*
X118421907Y-34414722D01*
X118435168Y-34440318D01*
X118439893Y-34451300D01*
X118438391Y-34455339D01*
X118428697Y-34474710D01*
X118411207Y-34507443D01*
X118387318Y-34550974D01*
X118358428Y-34602743D01*
X118325934Y-34660188D01*
X118307390Y-34692971D01*
X118277194Y-34747338D01*
X118251687Y-34794524D01*
X118232202Y-34832000D01*
X118220073Y-34857231D01*
X118216633Y-34867688D01*
X118226167Y-34870416D01*
X118251986Y-34872892D01*
X118289830Y-34874570D01*
X118335525Y-34875188D01*
X118449868Y-34875188D01*
X118521242Y-34732712D01*
X118592615Y-34590237D01*
X118663646Y-34732712D01*
X118734678Y-34875188D01*
X118852340Y-34875188D01*
X118897574Y-34874521D01*
X118935210Y-34872671D01*
X118960653Y-34869923D01*
X118970001Y-34866564D01*
X118968290Y-34862065D01*
X118958292Y-34842143D01*
X118940560Y-34808914D01*
X118916475Y-34764919D01*
X118887419Y-34712696D01*
X118854772Y-34654783D01*
X118849330Y-34645188D01*
X120050001Y-34645188D01*
X120050001Y-34750188D01*
X120050001Y-34855188D01*
X120355001Y-34855188D01*
X120660001Y-34855188D01*
X120660001Y-34850692D01*
X120730001Y-34850692D01*
X120730008Y-34850739D01*
X120739828Y-34852468D01*
X120765684Y-34853883D01*
X120803712Y-34854837D01*
X120850049Y-34855188D01*
X120970096Y-34855188D01*
X121037377Y-34720188D01*
X121049618Y-34695797D01*
X121072044Y-34652057D01*
X121090664Y-34616975D01*
X121103814Y-34593652D01*
X121109830Y-34585189D01*
X121111702Y-34587246D01*
X121121048Y-34603423D01*
X121136436Y-34633071D01*
X121156257Y-34673041D01*
X121178901Y-34720189D01*
X121242800Y-34855188D01*
X121366753Y-34855188D01*
X121490705Y-34855188D01*
X121478779Y-34832688D01*
X121477418Y-34830168D01*
X121476271Y-34828103D01*
X122300001Y-34828103D01*
X122305138Y-34835642D01*
X122326853Y-34847519D01*
X122349197Y-34855188D01*
X122362501Y-34859754D01*
X122373045Y-34862492D01*
X122394538Y-34866564D01*
X122417023Y-34870824D01*
X122453829Y-34875481D01*
X122469051Y-34877407D01*
X122520001Y-34881008D01*
X122556800Y-34881492D01*
X122624686Y-34875859D01*
X122938265Y-34875859D01*
X123051477Y-34873023D01*
X123164689Y-34870188D01*
X123244845Y-34582689D01*
X123251973Y-34557197D01*
X123271814Y-34486992D01*
X123289854Y-34424252D01*
X123305393Y-34371342D01*
X123317731Y-34330626D01*
X123326167Y-34304466D01*
X123330001Y-34295228D01*
X123332025Y-34299130D01*
X123339062Y-34319361D01*
X123350125Y-34354491D01*
X123364406Y-34401865D01*
X123381096Y-34458829D01*
X123399383Y-34522726D01*
X123408594Y-34555239D01*
X123427831Y-34622945D01*
X123445888Y-34686256D01*
X123461703Y-34741459D01*
X123474213Y-34784841D01*
X123482355Y-34812688D01*
X123500946Y-34875188D01*
X123616064Y-34875188D01*
X123659124Y-34874633D01*
X123695594Y-34873029D01*
X123719616Y-34870629D01*
X123727416Y-34867688D01*
X123725772Y-34863044D01*
X123718674Y-34841312D01*
X123715375Y-34831016D01*
X123793291Y-34831016D01*
X123801624Y-34838788D01*
X123824470Y-34848907D01*
X123857259Y-34859312D01*
X123875932Y-34863909D01*
X123897930Y-34867688D01*
X123934364Y-34873947D01*
X123998434Y-34880014D01*
X124061893Y-34881853D01*
X124118488Y-34879207D01*
X124161969Y-34871819D01*
X124201524Y-34858078D01*
X124258005Y-34825123D01*
X124298124Y-34780718D01*
X124322062Y-34724632D01*
X124330001Y-34656632D01*
X124329959Y-34651339D01*
X124321231Y-34586412D01*
X124297549Y-34533922D01*
X124259262Y-34494661D01*
X124228070Y-34472450D01*
X124252677Y-34456631D01*
X124850120Y-34456631D01*
X124851992Y-34505051D01*
X124867310Y-34599110D01*
X124897474Y-34682288D01*
X124941778Y-34753310D01*
X124999515Y-34810898D01*
X125069978Y-34853777D01*
X125132219Y-34874397D01*
X125204630Y-34883531D01*
X125277787Y-34879706D01*
X125346106Y-34863243D01*
X125404003Y-34834467D01*
X125409174Y-34830758D01*
X125448350Y-34791173D01*
X125480407Y-34739214D01*
X125502055Y-34681406D01*
X125504210Y-34665912D01*
X125600001Y-34665912D01*
X125600001Y-34770550D01*
X125600001Y-34875188D01*
X125905001Y-34875188D01*
X126210001Y-34875188D01*
X126210001Y-34770188D01*
X126210001Y-34665188D01*
X126110001Y-34665188D01*
X126010001Y-34665188D01*
X126010001Y-34613809D01*
X126307060Y-34613809D01*
X126311676Y-34669245D01*
X126332529Y-34736300D01*
X126369411Y-34792120D01*
X126421478Y-34835528D01*
X126487885Y-34865351D01*
X126507675Y-34870710D01*
X126535719Y-34875188D01*
X126573389Y-34881203D01*
X126644205Y-34883924D01*
X126710001Y-34878284D01*
X126731603Y-34873522D01*
X126763429Y-34864578D01*
X126797581Y-34853672D01*
X126828660Y-34842632D01*
X126851266Y-34833287D01*
X126860001Y-34827468D01*
X126859461Y-34824603D01*
X126854336Y-34806365D01*
X126844957Y-34775830D01*
X126832752Y-34737705D01*
X126821642Y-34705130D01*
X126809492Y-34675747D01*
X126799501Y-34661288D01*
X126790252Y-34659135D01*
X126779089Y-34663026D01*
X126752640Y-34672510D01*
X126720001Y-34684387D01*
X126671985Y-34698374D01*
X126618750Y-34704806D01*
X126573546Y-34700203D01*
X126539495Y-34684953D01*
X126519719Y-34659444D01*
X126519071Y-34657704D01*
X126513753Y-34631010D01*
X126520454Y-34608289D01*
X126541077Y-34587590D01*
X126577523Y-34566957D01*
X126631694Y-34544438D01*
X126649607Y-34537571D01*
X126710362Y-34512429D01*
X126756161Y-34489617D01*
X126790580Y-34467183D01*
X126817195Y-34443175D01*
X126834188Y-34420814D01*
X127163870Y-34420814D01*
X127165686Y-34514850D01*
X127183020Y-34603054D01*
X127214801Y-34683149D01*
X127259956Y-34752854D01*
X127317415Y-34809891D01*
X127386106Y-34851979D01*
X127403131Y-34858937D01*
X127465196Y-34875039D01*
X127535444Y-34882538D01*
X127606192Y-34880951D01*
X127639033Y-34875188D01*
X128020001Y-34875188D01*
X128112501Y-34874953D01*
X128205001Y-34874718D01*
X128360001Y-34634355D01*
X128515001Y-34393991D01*
X128517679Y-34634589D01*
X128520357Y-34875188D01*
X128625179Y-34875188D01*
X128730001Y-34875188D01*
X128730001Y-34455188D01*
X128730001Y-34035188D01*
X128637501Y-34035223D01*
X128545001Y-34035258D01*
X128395610Y-34265802D01*
X128392827Y-34270095D01*
X128353556Y-34330401D01*
X128317705Y-34384953D01*
X128286756Y-34431538D01*
X128262187Y-34467942D01*
X128245478Y-34491953D01*
X128238110Y-34501357D01*
X128236601Y-34498173D01*
X128234477Y-34478470D01*
X128232660Y-34443199D01*
X128231246Y-34395039D01*
X128230328Y-34336672D01*
X128230001Y-34270778D01*
X128230001Y-34035188D01*
X128125001Y-34035188D01*
X128020001Y-34035188D01*
X128020001Y-34455188D01*
X128020001Y-34535188D01*
X128020001Y-34875188D01*
X127639033Y-34875188D01*
X127669759Y-34869796D01*
X127693470Y-34862142D01*
X127732629Y-34846194D01*
X127769654Y-34827851D01*
X127798922Y-34809991D01*
X127814811Y-34795496D01*
X127815172Y-34791964D01*
X127810060Y-34773180D01*
X127798057Y-34743332D01*
X127780925Y-34707024D01*
X127741195Y-34628006D01*
X127680853Y-34657914D01*
X127678944Y-34658852D01*
X127615210Y-34681438D01*
X127554360Y-34687055D01*
X127498926Y-34676581D01*
X127451440Y-34650892D01*
X127414435Y-34610866D01*
X127390442Y-34557377D01*
X127388025Y-34547381D01*
X127382025Y-34501105D01*
X127380574Y-34446811D01*
X127383641Y-34393504D01*
X127391192Y-34350188D01*
X127400484Y-34323427D01*
X127430577Y-34274314D01*
X127471995Y-34239563D01*
X127522194Y-34220940D01*
X127578628Y-34220208D01*
X127606354Y-34224803D01*
X127635824Y-34233381D01*
X127651922Y-34247570D01*
X127658648Y-34271809D01*
X127660001Y-34310539D01*
X127660001Y-34375188D01*
X127585001Y-34375188D01*
X127510001Y-34375188D01*
X127510001Y-34455188D01*
X127510001Y-34535188D01*
X127680001Y-34535188D01*
X127850001Y-34535188D01*
X127850001Y-34325814D01*
X127850001Y-34116441D01*
X127787048Y-34085449D01*
X127715146Y-34054745D01*
X127635889Y-34033789D01*
X128930001Y-34033789D01*
X128930001Y-34454488D01*
X128930001Y-34875188D01*
X129117501Y-34874092D01*
X129185238Y-34873406D01*
X129251133Y-34871689D01*
X129303034Y-34868613D01*
X129344214Y-34863773D01*
X129377949Y-34856764D01*
X129407514Y-34847180D01*
X129436184Y-34834615D01*
X129457328Y-34823308D01*
X129518049Y-34776591D01*
X129567387Y-34715598D01*
X129604382Y-34642597D01*
X129628068Y-34559856D01*
X129637485Y-34469644D01*
X129631668Y-34374228D01*
X129622902Y-34325823D01*
X129595957Y-34242155D01*
X129555611Y-34172743D01*
X129501270Y-34116692D01*
X129432344Y-34073107D01*
X129365525Y-34040188D01*
X129147763Y-34036988D01*
X128930001Y-34033789D01*
X127635889Y-34033789D01*
X127631055Y-34032511D01*
X127545001Y-34025458D01*
X127480591Y-34030057D01*
X127399204Y-34051245D01*
X127328273Y-34088858D01*
X127268701Y-34142035D01*
X127221391Y-34209910D01*
X127187250Y-34291622D01*
X127184863Y-34302881D01*
X127167179Y-34386306D01*
X127163870Y-34420814D01*
X126834188Y-34420814D01*
X126837163Y-34416899D01*
X126860187Y-34363562D01*
X126869798Y-34302881D01*
X126865418Y-34240031D01*
X126846473Y-34180188D01*
X126813069Y-34125121D01*
X126764059Y-34078052D01*
X126702497Y-34046243D01*
X126628092Y-34029547D01*
X126540553Y-34027821D01*
X126534165Y-34028249D01*
X126485338Y-34033892D01*
X126436449Y-34043070D01*
X126391483Y-34054625D01*
X126354429Y-34067397D01*
X126329273Y-34080228D01*
X126320001Y-34091956D01*
X126320298Y-34095480D01*
X126324102Y-34116578D01*
X126331369Y-34149685D01*
X126340928Y-34189347D01*
X126361854Y-34272783D01*
X126422205Y-34241658D01*
X126423817Y-34240829D01*
X126465296Y-34222160D01*
X126502156Y-34212920D01*
X126545202Y-34210360D01*
X126588245Y-34213251D01*
X126623616Y-34225084D01*
X126643671Y-34247042D01*
X126650001Y-34280188D01*
X126647328Y-34302085D01*
X126636787Y-34321302D01*
X126615487Y-34338502D01*
X126580545Y-34355968D01*
X126529078Y-34375984D01*
X126519168Y-34379624D01*
X126446118Y-34409921D01*
X126390784Y-34440886D01*
X126351189Y-34474640D01*
X126325355Y-34513299D01*
X126311304Y-34558983D01*
X126307060Y-34613809D01*
X126010001Y-34613809D01*
X126010001Y-34350188D01*
X126010001Y-34035188D01*
X125905144Y-34035188D01*
X125800286Y-34035188D01*
X125799398Y-34140188D01*
X125797644Y-34347688D01*
X125795001Y-34660188D01*
X125697501Y-34663050D01*
X125600001Y-34665912D01*
X125504210Y-34665912D01*
X125510001Y-34624272D01*
X125509974Y-34619744D01*
X125508410Y-34606705D01*
X125501784Y-34597617D01*
X125486442Y-34590593D01*
X125458732Y-34583745D01*
X125415001Y-34575188D01*
X125387466Y-34569814D01*
X125356859Y-34563448D01*
X125338444Y-34559124D01*
X125330497Y-34558694D01*
X125321526Y-34568595D01*
X125315070Y-34594784D01*
X125302044Y-34637606D01*
X125277368Y-34667761D01*
X125240001Y-34683983D01*
X125238830Y-34684240D01*
X125188010Y-34686908D01*
X125145167Y-34671792D01*
X125110889Y-34639682D01*
X125085765Y-34591369D01*
X125070381Y-34527641D01*
X125065326Y-34449289D01*
X125065351Y-34444034D01*
X125066583Y-34398001D01*
X125070424Y-34364670D01*
X125078081Y-34337412D01*
X125090762Y-34309595D01*
X125100464Y-34292437D01*
X125135339Y-34251811D01*
X125179395Y-34228472D01*
X125234594Y-34221215D01*
X125243112Y-34221558D01*
X125286041Y-34229447D01*
X125331359Y-34245441D01*
X125371614Y-34266456D01*
X125399354Y-34289407D01*
X125410133Y-34299937D01*
X125423137Y-34302929D01*
X125436783Y-34292211D01*
X125453009Y-34266043D01*
X125473757Y-34222688D01*
X125510907Y-34140188D01*
X125482954Y-34117161D01*
X125422550Y-34077283D01*
X125346792Y-34046088D01*
X125265700Y-34028664D01*
X125184538Y-34026102D01*
X125108570Y-34039496D01*
X125099706Y-34042310D01*
X125026313Y-34076629D01*
X124964680Y-34126388D01*
X124915526Y-34190427D01*
X124882214Y-34261911D01*
X124879569Y-34267587D01*
X124857528Y-34356708D01*
X124850120Y-34456631D01*
X124252677Y-34456631D01*
X124268533Y-34446438D01*
X124308634Y-34411915D01*
X124339272Y-34361474D01*
X124355645Y-34297452D01*
X124357871Y-34261911D01*
X124348015Y-34196732D01*
X124320522Y-34138839D01*
X124276720Y-34090577D01*
X124217937Y-34054291D01*
X124214124Y-34052598D01*
X124189386Y-34042887D01*
X124164588Y-34036478D01*
X124134745Y-34032703D01*
X124094877Y-34030891D01*
X124040001Y-34030373D01*
X124039250Y-34030371D01*
X123976803Y-34031211D01*
X123929110Y-34034255D01*
X123891050Y-34040029D01*
X123857501Y-34049056D01*
X123831430Y-34058760D01*
X123808735Y-34070010D01*
X123800001Y-34078419D01*
X123801182Y-34085725D01*
X123806447Y-34108291D01*
X123814541Y-34139874D01*
X123823926Y-34174792D01*
X123833063Y-34207360D01*
X123840417Y-34231895D01*
X123844448Y-34242713D01*
X123852217Y-34241578D01*
X123874161Y-34235307D01*
X123904926Y-34225213D01*
X123929388Y-34218098D01*
X123977224Y-34208820D01*
X124020800Y-34205188D01*
X124066705Y-34209909D01*
X124106746Y-34226819D01*
X124131518Y-34255279D01*
X124140001Y-34294527D01*
X124139284Y-34311102D01*
X124132963Y-34335650D01*
X124117803Y-34352822D01*
X124091027Y-34364130D01*
X124049853Y-34371082D01*
X123991504Y-34375188D01*
X123885001Y-34380188D01*
X123882116Y-34461509D01*
X123879231Y-34542830D01*
X123978926Y-34546835D01*
X123983289Y-34547014D01*
X124031258Y-34549820D01*
X124063771Y-34553982D01*
X124085049Y-34560298D01*
X124099312Y-34569563D01*
X124110093Y-34582614D01*
X124119991Y-34614707D01*
X124115034Y-34649630D01*
X124095456Y-34680642D01*
X124064432Y-34698581D01*
X124019971Y-34705483D01*
X123965694Y-34701045D01*
X123905001Y-34685188D01*
X123877792Y-34676077D01*
X123852541Y-34668213D01*
X123840264Y-34665188D01*
X123839209Y-34665893D01*
X123833127Y-34679400D01*
X123824718Y-34706548D01*
X123815469Y-34742688D01*
X123813355Y-34751652D01*
X123804509Y-34788292D01*
X123797397Y-34816413D01*
X123793398Y-34830532D01*
X123793291Y-34831016D01*
X123715375Y-34831016D01*
X123706632Y-34803724D01*
X123690276Y-34752271D01*
X123670236Y-34688944D01*
X123647144Y-34615733D01*
X123621630Y-34534630D01*
X123594325Y-34447625D01*
X123465001Y-34035063D01*
X123330564Y-34037625D01*
X123196126Y-34040188D01*
X123128217Y-34256342D01*
X123073600Y-34430188D01*
X123063499Y-34462364D01*
X123037258Y-34546195D01*
X123012978Y-34624099D01*
X122991337Y-34693885D01*
X122973009Y-34753361D01*
X122958671Y-34800336D01*
X122948999Y-34832621D01*
X122944669Y-34848023D01*
X122938265Y-34875859D01*
X122624686Y-34875859D01*
X122641703Y-34874447D01*
X122710773Y-34855310D01*
X122764164Y-34823969D01*
X122802028Y-34780313D01*
X122824518Y-34724232D01*
X122831787Y-34655615D01*
X122825183Y-34595182D01*
X122803197Y-34540809D01*
X122765632Y-34498616D01*
X122731131Y-34471087D01*
X122769829Y-34448010D01*
X122782651Y-34439713D01*
X122821309Y-34402181D01*
X122845862Y-34352897D01*
X122857570Y-34289586D01*
X122858765Y-34256342D01*
X122850334Y-34195091D01*
X122825964Y-34143027D01*
X122784345Y-34096699D01*
X122752431Y-34072279D01*
X122713089Y-34052213D01*
X122666487Y-34039243D01*
X122608500Y-34032268D01*
X122535001Y-34030188D01*
X122531977Y-34030194D01*
X122475751Y-34032359D01*
X122421846Y-34037915D01*
X122373795Y-34046123D01*
X122335135Y-34056244D01*
X122309402Y-34067540D01*
X122300131Y-34079271D01*
X122300849Y-34083890D01*
X122306000Y-34104660D01*
X122314675Y-34135754D01*
X122325165Y-34171305D01*
X122335758Y-34205446D01*
X122344744Y-34232307D01*
X122352383Y-34237557D01*
X122371811Y-34235291D01*
X122406107Y-34224807D01*
X122455810Y-34212058D01*
X122508874Y-34206015D01*
X122557219Y-34207420D01*
X122594049Y-34216573D01*
X122605701Y-34223320D01*
X122630323Y-34251188D01*
X122642294Y-34287355D01*
X122638673Y-34324700D01*
X122637339Y-34328348D01*
X122626304Y-34348155D01*
X122608863Y-34361639D01*
X122581641Y-34369902D01*
X122541262Y-34374050D01*
X122484351Y-34375188D01*
X122390001Y-34375188D01*
X122390001Y-34458995D01*
X122390001Y-34542802D01*
X122484435Y-34546932D01*
X122494595Y-34547414D01*
X122547273Y-34552010D01*
X122583329Y-34560520D01*
X122605585Y-34574592D01*
X122616868Y-34595873D01*
X122620001Y-34626012D01*
X122615728Y-34652311D01*
X122596230Y-34680971D01*
X122563049Y-34699103D01*
X122518488Y-34706086D01*
X122464852Y-34701298D01*
X122404444Y-34684120D01*
X122378366Y-34675587D01*
X122353160Y-34670306D01*
X122340446Y-34671620D01*
X122334932Y-34683831D01*
X122326632Y-34710018D01*
X122317386Y-34743742D01*
X122308797Y-34778800D01*
X122302468Y-34808988D01*
X122300001Y-34828103D01*
X121476271Y-34828103D01*
X121466629Y-34810751D01*
X121448059Y-34777714D01*
X121423379Y-34734016D01*
X121394260Y-34682618D01*
X121362372Y-34626479D01*
X121342246Y-34590956D01*
X121311861Y-34536381D01*
X121290095Y-34495425D01*
X121275882Y-34465772D01*
X121268155Y-34445107D01*
X121265846Y-34431114D01*
X121267889Y-34421479D01*
X121269196Y-34418856D01*
X121279601Y-34399579D01*
X121297869Y-34366728D01*
X121322359Y-34323223D01*
X121351431Y-34271981D01*
X121383444Y-34215924D01*
X121394410Y-34196687D01*
X121424197Y-34143421D01*
X121449425Y-34096809D01*
X121468709Y-34059504D01*
X121480666Y-34034158D01*
X121483911Y-34023424D01*
X121474210Y-34020432D01*
X121448216Y-34017711D01*
X121410240Y-34015867D01*
X121364478Y-34015188D01*
X121250135Y-34015188D01*
X121178453Y-34157688D01*
X121106772Y-34300188D01*
X121038735Y-34157688D01*
X120970698Y-34015188D01*
X120855940Y-34015188D01*
X120813712Y-34015854D01*
X120774602Y-34017904D01*
X120747030Y-34021007D01*
X120735226Y-34024825D01*
X120735812Y-34029113D01*
X120744071Y-34048760D01*
X120760415Y-34081634D01*
X120783513Y-34125187D01*
X120812031Y-34176868D01*
X120844636Y-34234128D01*
X120863692Y-34267169D01*
X120894624Y-34321074D01*
X120921123Y-34367602D01*
X120941787Y-34404273D01*
X120955214Y-34428607D01*
X120960001Y-34438125D01*
X120958318Y-34441819D01*
X120948364Y-34460446D01*
X120930674Y-34492489D01*
X120906628Y-34535469D01*
X120877610Y-34586908D01*
X120845001Y-34644326D01*
X120825408Y-34678786D01*
X120794749Y-34732994D01*
X120768496Y-34779770D01*
X120748032Y-34816632D01*
X120734740Y-34841100D01*
X120730001Y-34850692D01*
X120660001Y-34850692D01*
X120660001Y-34750188D01*
X120660001Y-34645188D01*
X120560001Y-34645188D01*
X120460001Y-34645188D01*
X120460001Y-34329838D01*
X120460001Y-34014488D01*
X120357501Y-34017338D01*
X120255001Y-34020188D01*
X120252359Y-34332688D01*
X120249717Y-34645188D01*
X120149859Y-34645188D01*
X120050001Y-34645188D01*
X118849330Y-34645188D01*
X118739543Y-34451627D01*
X118854772Y-34249530D01*
X118874403Y-34215010D01*
X118905124Y-34160600D01*
X118931430Y-34113522D01*
X118951935Y-34076279D01*
X118965254Y-34051374D01*
X118970001Y-34041311D01*
X118969996Y-34041251D01*
X118960210Y-34038894D01*
X118934384Y-34036967D01*
X118896383Y-34035665D01*
X118850071Y-34035188D01*
X118730141Y-34035188D01*
X118661261Y-34172668D01*
X118592380Y-34310148D01*
X118523862Y-34172668D01*
X118455345Y-34035188D01*
X118332321Y-34035188D01*
X118209298Y-34035188D01*
X118135109Y-34035188D01*
X118121458Y-34031261D01*
X118065099Y-34025181D01*
X118005623Y-34030717D01*
X117952393Y-34047308D01*
X117951900Y-34047538D01*
X117935963Y-34055689D01*
X117920032Y-34065814D01*
X117902176Y-34079738D01*
X117880464Y-34099285D01*
X117852965Y-34126279D01*
X117817746Y-34162545D01*
X117772878Y-34209906D01*
X117716427Y-34270188D01*
X117660405Y-34330188D01*
X117660203Y-34182688D01*
X117660001Y-34035188D01*
X117555001Y-34035188D01*
X117450001Y-34035188D01*
X117450001Y-34064292D01*
X117450001Y-34455188D01*
X116695698Y-34455188D01*
X116683645Y-34432348D01*
X116639624Y-34386184D01*
X116583938Y-34354783D01*
X116556508Y-34344354D01*
X116610755Y-34289000D01*
X116634924Y-34265081D01*
X116671552Y-34233611D01*
X116702908Y-34215142D01*
X116733070Y-34207570D01*
X116766114Y-34208790D01*
X116808857Y-34214648D01*
X116814869Y-34167418D01*
X116816367Y-34155833D01*
X116821454Y-34118322D01*
X116825950Y-34087390D01*
X116826142Y-34086137D01*
X116827250Y-34064292D01*
X116818721Y-34051360D01*
X116795832Y-34039890D01*
X116768137Y-34031287D01*
X116713008Y-34025376D01*
X116656215Y-34030355D01*
X116607103Y-34045925D01*
X116599495Y-34050307D01*
X116571898Y-34070975D01*
X116534777Y-34103312D01*
X116490801Y-34144927D01*
X116442638Y-34193425D01*
X116320275Y-34320188D01*
X116320138Y-34177688D01*
X116320001Y-34035188D01*
X116209892Y-34035188D01*
X116099782Y-34035188D01*
X115770001Y-34035188D01*
X115660001Y-34035188D01*
X115550001Y-34035188D01*
X115550001Y-34344825D01*
X115550001Y-34450857D01*
X115550001Y-34654463D01*
X115452501Y-34657325D01*
X115355001Y-34660188D01*
X115222320Y-34660188D01*
X115239502Y-34622295D01*
X115261120Y-34531508D01*
X115267422Y-34450857D01*
X115260536Y-34359921D01*
X115239093Y-34275640D01*
X115204036Y-34200562D01*
X115156309Y-34137233D01*
X115096856Y-34088202D01*
X115090779Y-34084418D01*
X115061941Y-34068368D01*
X115032455Y-34056178D01*
X114999097Y-34047339D01*
X114958645Y-34041342D01*
X114907877Y-34037675D01*
X114843570Y-34035830D01*
X114762501Y-34035296D01*
X114560001Y-34035188D01*
X113460327Y-34035188D01*
X113460529Y-33991035D01*
X113461340Y-33915632D01*
X113462680Y-33853210D01*
X113464679Y-33802351D01*
X113467464Y-33761636D01*
X113471163Y-33729647D01*
X113475905Y-33704966D01*
X113481817Y-33686173D01*
X113489029Y-33671851D01*
X113497668Y-33660581D01*
X113507862Y-33650944D01*
X113519740Y-33641523D01*
X113533430Y-33630899D01*
X113571858Y-33600188D01*
X122050002Y-33600188D01*
X130528145Y-33600188D01*
X130566573Y-33630899D01*
X130579460Y-33640908D01*
X130591455Y-33650371D01*
X130601756Y-33659961D01*
X130610492Y-33671097D01*
X130617790Y-33685199D01*
X130623781Y-33703686D01*
X130628591Y-33727978D01*
X130632350Y-33759494D01*
X130635186Y-33799654D01*
X130637228Y-33849877D01*
X130638603Y-33911583D01*
X130639441Y-33986191D01*
X130639870Y-34075121D01*
X130640018Y-34179792D01*
X130640014Y-34301624D01*
X130639986Y-34442037D01*
X130639976Y-34469644D01*
X130639961Y-34511872D01*
G37*
D10*
X132365000Y-59265000D02*
X132365000Y-55735000D01*
X132430000Y-55735000D02*
X132365000Y-55735000D01*
X132430000Y-59265000D02*
X132365000Y-59265000D01*
X138770000Y-60590000D02*
X138770000Y-59265000D01*
X138835000Y-55735000D02*
X138770000Y-55735000D01*
X138835000Y-59265000D02*
X138770000Y-59265000D01*
X138835000Y-59265000D02*
X138835000Y-55735000D01*
%LPC*%
D12*
X111050000Y-69800000D02*
G75*
G02*
X107550000Y-69800000I-1750000J0D01*
G01*
X107550000Y-69800000D02*
G75*
G02*
X111050000Y-69800000I1750000J0D01*
G01*
X147550000Y-47800000D02*
G75*
G02*
X144050000Y-47800000I-1750000J0D01*
G01*
X144050000Y-47800000D02*
G75*
G02*
X147550000Y-47800000I1750000J0D01*
G01*
X111050000Y-88300000D02*
G75*
G02*
X107550000Y-88300000I-1750000J0D01*
G01*
X107550000Y-88300000D02*
G75*
G02*
X111050000Y-88300000I1750000J0D01*
G01*
X147550000Y-35800000D02*
G75*
G02*
X144050000Y-35800000I-1750000J0D01*
G01*
X144050000Y-35800000D02*
G75*
G02*
X147550000Y-35800000I1750000J0D01*
G01*
X149050000Y-79800000D02*
G75*
G02*
X145550000Y-79800000I-1750000J0D01*
G01*
X145550000Y-79800000D02*
G75*
G02*
X149050000Y-79800000I1750000J0D01*
G01*
X140050000Y-83800000D02*
G75*
G02*
X136550000Y-83800000I-1750000J0D01*
G01*
X136550000Y-83800000D02*
G75*
G02*
X140050000Y-83800000I1750000J0D01*
G01*
X149050000Y-70800000D02*
G75*
G02*
X145550000Y-70800000I-1750000J0D01*
G01*
X145550000Y-70800000D02*
G75*
G02*
X149050000Y-70800000I1750000J0D01*
G01*
D13*
X128400000Y-31950000D03*
D14*
X125860000Y-31650000D03*
X123320000Y-31950000D03*
X120780000Y-31650000D03*
X118240000Y-31950000D03*
X115700000Y-31650000D03*
D15*
X138140000Y-59450000D03*
X138140000Y-55550000D03*
X136870000Y-59450000D03*
X136870000Y-55550000D03*
X135600000Y-59450000D03*
X135600000Y-55550000D03*
X134330000Y-59450000D03*
X134330000Y-55550000D03*
X133060000Y-59450000D03*
X133060000Y-55550000D03*
%LPD*%
M02*
