G04 #@! TF.GenerationSoftware,KiCad,Pcbnew,9.0.0*
G04 #@! TF.CreationDate,2025-03-02T22:01:54-06:00*
G04 #@! TF.ProjectId,mobo,6d6f626f-2e6b-4696-9361-645f70636258,rev?*
G04 #@! TF.SameCoordinates,Original*
G04 #@! TF.FileFunction,Copper,L2,Bot*
G04 #@! TF.FilePolarity,Positive*
%FSLAX46Y46*%
G04 Gerber Fmt 4.6, Leading zero omitted, Abs format (unit mm)*
G04 Created by KiCad (PCBNEW 9.0.0) date 2025-03-02 22:01:54*
%MOMM*%
%LPD*%
G01*
G04 APERTURE LIST*
G04 #@! TA.AperFunction,SMDPad,CuDef*
%ADD10C,1.000000*%
G04 #@! TD*
G04 #@! TA.AperFunction,ComponentPad*
%ADD11R,1.700000X1.700000*%
G04 #@! TD*
G04 #@! TA.AperFunction,ComponentPad*
%ADD12O,1.700000X1.700000*%
G04 #@! TD*
G04 #@! TA.AperFunction,SMDPad,CuDef*
%ADD13R,0.740000X2.400000*%
G04 #@! TD*
G04 #@! TA.AperFunction,ViaPad*
%ADD14C,0.600000*%
G04 #@! TD*
G04 #@! TA.AperFunction,ViaPad*
%ADD15C,0.800000*%
G04 #@! TD*
G04 #@! TA.AperFunction,Conductor*
%ADD16C,0.200000*%
G04 #@! TD*
G04 #@! TA.AperFunction,Conductor*
%ADD17C,1.000000*%
G04 #@! TD*
G04 #@! TA.AperFunction,Conductor*
%ADD18C,2.000000*%
G04 #@! TD*
G04 #@! TA.AperFunction,Conductor*
%ADD19C,0.500000*%
G04 #@! TD*
G04 #@! TA.AperFunction,Conductor*
%ADD20C,0.300000*%
G04 #@! TD*
G04 #@! TA.AperFunction,Conductor*
%ADD21C,0.250000*%
G04 #@! TD*
G04 APERTURE END LIST*
D10*
X109300000Y-69800000D03*
X145800000Y-47800000D03*
X109300000Y-88300000D03*
X145800000Y-35800000D03*
D11*
X128400000Y-31950000D03*
D12*
X125860000Y-31650000D03*
X123320000Y-31950000D03*
X120780000Y-31650000D03*
X118240000Y-31950000D03*
X115700000Y-31650000D03*
D10*
X147300000Y-79800000D03*
X138300000Y-83800000D03*
X147300000Y-70800000D03*
D13*
X138140000Y-59450000D03*
X138140000Y-55550000D03*
X136870000Y-59450000D03*
X136870000Y-55550000D03*
X135600000Y-59450000D03*
X135600000Y-55550000D03*
X134330000Y-59450000D03*
X134330000Y-55550000D03*
X133060000Y-59450000D03*
X133060000Y-55550000D03*
D14*
X140000000Y-51000000D03*
X140000000Y-49000000D03*
X140000000Y-47000000D03*
X140000000Y-45000000D03*
X140000000Y-43000000D03*
X140000000Y-41000000D03*
X118000000Y-51000000D03*
X118000000Y-49000000D03*
X118000000Y-47000000D03*
X118000000Y-45000000D03*
X118000000Y-43000000D03*
X118000000Y-41000000D03*
X129000000Y-51000000D03*
X129000000Y-49000000D03*
X129000000Y-47000000D03*
X129000000Y-45000000D03*
X129000000Y-43000000D03*
X129000000Y-41000000D03*
X130750000Y-56900000D03*
X131500000Y-57500000D03*
X130050000Y-57500000D03*
X128500000Y-54250000D03*
X127750000Y-53650000D03*
X127050000Y-54250000D03*
X135000000Y-49750000D03*
X123000000Y-49750000D03*
X108800000Y-43400000D03*
X102300000Y-40950000D03*
X119000000Y-91200000D03*
X125000000Y-80600000D03*
X137500000Y-43500000D03*
X136750000Y-49000000D03*
X113400000Y-31550000D03*
X115000000Y-43300000D03*
X128000000Y-102800000D03*
X119000000Y-94600000D03*
X124450000Y-74550000D03*
X143800000Y-110600000D03*
X125449999Y-43500000D03*
X105500000Y-79200000D03*
X137750000Y-46750000D03*
X112850000Y-52750000D03*
X112750000Y-30400000D03*
X108300000Y-80000000D03*
X130400000Y-102700000D03*
X124699999Y-46750000D03*
X109400000Y-31550000D03*
X121050000Y-58900000D03*
X132650000Y-78050000D03*
X131971016Y-59478984D03*
X133200000Y-102700000D03*
X101750000Y-41750000D03*
X122050000Y-76350000D03*
X135750000Y-46750000D03*
X110550000Y-34600000D03*
X121400000Y-79000000D03*
X132900000Y-83700000D03*
X137700000Y-37300000D03*
X140250000Y-68900000D03*
X112550000Y-54100000D03*
X128100000Y-83700000D03*
X135600000Y-57800000D03*
X125200000Y-69200000D03*
X122650000Y-73600000D03*
X126400000Y-78100000D03*
X102050000Y-43400000D03*
X123699999Y-46750000D03*
X135700000Y-80600000D03*
X128200000Y-98900000D03*
X113250000Y-58750000D03*
X104700000Y-43950000D03*
X113800000Y-45000000D03*
D15*
X130436665Y-72337260D03*
D14*
X141600000Y-69700000D03*
X138750000Y-46250000D03*
X121800000Y-59500000D03*
D15*
X131536665Y-71237260D03*
D14*
X113250000Y-53500000D03*
X125400000Y-83100000D03*
X126699999Y-45000000D03*
X141300000Y-80000000D03*
X103250000Y-44200000D03*
X109800000Y-30400000D03*
X113750000Y-52750000D03*
X116200000Y-75600000D03*
X105000000Y-79800000D03*
X127100000Y-64750000D03*
X125600000Y-98900000D03*
X112550000Y-59350000D03*
X112050000Y-36150000D03*
D15*
X130436665Y-71237260D03*
D14*
X137200000Y-70250000D03*
X126200000Y-64500000D03*
X135600000Y-61200000D03*
X112900000Y-32300000D03*
X109200000Y-36200000D03*
X138750000Y-45000000D03*
X109700000Y-35300000D03*
X111700000Y-37050000D03*
X103750000Y-40950000D03*
X118000000Y-52750000D03*
X118500000Y-54250000D03*
X114000000Y-54100000D03*
X141300000Y-77600000D03*
X118100000Y-75600000D03*
X112200000Y-80300000D03*
X110900000Y-37400000D03*
X137150000Y-75500000D03*
X139900000Y-38800000D03*
X117750000Y-53750000D03*
X137700000Y-40300000D03*
X141300000Y-78600000D03*
X126699999Y-46250000D03*
X105300000Y-43200000D03*
X109950000Y-37150000D03*
X111300000Y-82200000D03*
X109950000Y-43400000D03*
X126000000Y-74300000D03*
X104900000Y-41750000D03*
X120350000Y-59500000D03*
X113400000Y-77900000D03*
X111300000Y-83200000D03*
X110400000Y-32300000D03*
X126400000Y-65400000D03*
X135500000Y-38800000D03*
X124699999Y-49000000D03*
X141300000Y-76500000D03*
X136750000Y-46750000D03*
X117300000Y-75600000D03*
X128604165Y-74262260D03*
X141300000Y-75450000D03*
X125699999Y-46750000D03*
D15*
X131536665Y-72337260D03*
D14*
X134600000Y-110900000D03*
X111300000Y-81400000D03*
X137000000Y-63700000D03*
X130187165Y-77900000D03*
X114000000Y-59350000D03*
X136000000Y-65700000D03*
X115550000Y-59200000D03*
X118600000Y-59200000D03*
X121400000Y-53750000D03*
X119700000Y-78700000D03*
X116700000Y-80400000D03*
X137000000Y-65700000D03*
X120800000Y-53750000D03*
X114850000Y-76550000D03*
X114850000Y-74900000D03*
X120200000Y-53750000D03*
X138000000Y-65700000D03*
X105400000Y-82900000D03*
X114850489Y-75700000D03*
X105400000Y-83700000D03*
X117000000Y-59150000D03*
X124400000Y-88300000D03*
X127300000Y-68400000D03*
X133050000Y-57500000D03*
X135200000Y-78400000D03*
X131861444Y-78200000D03*
X109700000Y-51450000D03*
X131500000Y-66300000D03*
X109750000Y-47650000D03*
X132300000Y-66300000D03*
X116600000Y-52500000D03*
X132900000Y-66900000D03*
X138150000Y-57500000D03*
X123600000Y-86600000D03*
X128050000Y-66900000D03*
X126150000Y-69050000D03*
X122800000Y-87300000D03*
X136900000Y-57500000D03*
X141600000Y-70700000D03*
X137200000Y-71200000D03*
X137300000Y-72050000D03*
X132500000Y-71050000D03*
X141600000Y-71600000D03*
X117750003Y-77500000D03*
X125100758Y-70487760D03*
X124450000Y-70000000D03*
X116900000Y-77500000D03*
X127500000Y-110500000D03*
X119500000Y-84000000D03*
X126000000Y-73500000D03*
X129900000Y-66300000D03*
X108100000Y-53750000D03*
X107750000Y-42250000D03*
X116200000Y-46400000D03*
X108300000Y-81200000D03*
X125050000Y-71987760D03*
X108300000Y-82400000D03*
X124450000Y-72535018D03*
X108850000Y-52700000D03*
X130700000Y-66300000D03*
X137150000Y-72900000D03*
X141600000Y-72600000D03*
X141600000Y-73500000D03*
X137150000Y-73800000D03*
X141600000Y-74500000D03*
X137150000Y-74650000D03*
X117900000Y-83500000D03*
X126800000Y-84800000D03*
X119100000Y-81300000D03*
X135000000Y-76500000D03*
D16*
X117800000Y-77500000D02*
X117750003Y-77500000D01*
X119350000Y-75950000D02*
X117800000Y-77500000D01*
X119350000Y-73300000D02*
X119350000Y-75950000D01*
X122100489Y-70549511D02*
X119350000Y-73300000D01*
X125039007Y-70549511D02*
X122100489Y-70549511D01*
X125100758Y-70487760D02*
X125039007Y-70549511D01*
X117800000Y-76600000D02*
X116900000Y-77500000D01*
X118100000Y-76600000D02*
X117800000Y-76600000D01*
X118800000Y-75900000D02*
X118100000Y-76600000D01*
X121800000Y-70000000D02*
X118800000Y-73000000D01*
X118800000Y-73000000D02*
X118800000Y-75900000D01*
X124450000Y-70000000D02*
X121800000Y-70000000D01*
D17*
X105400000Y-80900000D02*
X105400000Y-82900000D01*
X114850489Y-75700000D02*
X114850489Y-76549511D01*
X114850489Y-75700000D02*
X114850489Y-74900489D01*
D18*
X136000000Y-65700000D02*
X137000000Y-65700000D01*
X137000000Y-65700000D02*
X138000000Y-65700000D01*
D17*
X118600000Y-59200000D02*
X115550000Y-59200000D01*
D18*
X135500000Y-65700000D02*
X136000000Y-65700000D01*
D17*
X115550000Y-74200000D02*
X115550000Y-59200000D01*
X114850489Y-74900489D02*
X114850000Y-74900000D01*
X114850000Y-76550000D02*
X114700000Y-76700000D01*
X114700000Y-76700000D02*
X109600000Y-76700000D01*
D18*
X121800000Y-53750000D02*
X123550000Y-53750000D01*
D17*
X105400000Y-83700000D02*
X105400000Y-82900000D01*
D19*
X138140000Y-59450000D02*
X138140000Y-65560000D01*
D20*
X118000000Y-80400000D02*
X116700000Y-80400000D01*
D18*
X120200000Y-53750000D02*
X121800000Y-53750000D01*
D17*
X114850489Y-76549511D02*
X114850000Y-76550000D01*
D18*
X123550000Y-53750000D02*
X135500000Y-65700000D01*
D17*
X109600000Y-76700000D02*
X105400000Y-80900000D01*
D19*
X138140000Y-65560000D02*
X138000000Y-65700000D01*
D20*
X119700000Y-78700000D02*
X118000000Y-80400000D01*
D17*
X114850000Y-74900000D02*
X115550000Y-74200000D01*
D16*
X124400000Y-79000000D02*
X127850000Y-75550000D01*
X127850000Y-68950000D02*
X127850000Y-75550000D01*
X133050000Y-55560000D02*
X133060000Y-55550000D01*
X127850000Y-75550000D02*
X129200000Y-75550000D01*
X131850000Y-78200000D02*
X131861444Y-78200000D01*
X133050000Y-57500000D02*
X133050000Y-55560000D01*
X133000000Y-78700000D02*
X132361444Y-78700000D01*
X135200000Y-78400000D02*
X133300000Y-78400000D01*
X129200000Y-75550000D02*
X131850000Y-78200000D01*
X127300000Y-68400000D02*
X127850000Y-68950000D01*
X133300000Y-78400000D02*
X133000000Y-78700000D01*
X132361444Y-78700000D02*
X131861444Y-78200000D01*
X124400000Y-88300000D02*
X124400000Y-79000000D01*
X109700000Y-51450000D02*
X109700000Y-54700000D01*
D21*
X114200000Y-32350000D02*
X113499040Y-33050960D01*
D16*
X111700000Y-56700000D02*
X121900000Y-56700000D01*
D21*
X106300000Y-48300000D02*
X109000000Y-48300000D01*
X106200000Y-44200000D02*
X105400000Y-45000000D01*
X120780000Y-31800000D02*
X119380000Y-30400000D01*
X105400000Y-45000000D02*
X105400000Y-47400000D01*
X114600000Y-30400000D02*
X114200000Y-30800000D01*
X109700000Y-49000000D02*
X109700000Y-51450000D01*
D16*
X109700000Y-54700000D02*
X111700000Y-56700000D01*
X121900000Y-56700000D02*
X131500000Y-66300000D01*
D21*
X109000000Y-48300000D02*
X109700000Y-49000000D01*
X106200000Y-36800000D02*
X106200000Y-44200000D01*
X109949040Y-33050960D02*
X106200000Y-36800000D01*
X114200000Y-30800000D02*
X114200000Y-32350000D01*
X119380000Y-30400000D02*
X114600000Y-30400000D01*
X113499040Y-33050960D02*
X109949040Y-33050960D01*
X105400000Y-47400000D02*
X106300000Y-48300000D01*
X116750000Y-33650000D02*
X118240000Y-32160000D01*
X106850000Y-44600000D02*
X106850000Y-37000000D01*
X109750000Y-47650000D02*
X106600000Y-47650000D01*
X110200000Y-33650000D02*
X116750000Y-33650000D01*
D16*
X110400000Y-54600000D02*
X111938556Y-56138556D01*
D21*
X106600000Y-47650000D02*
X106100000Y-47150000D01*
X106100000Y-45350000D02*
X106850000Y-44600000D01*
X106850000Y-37000000D02*
X110200000Y-33650000D01*
D16*
X110400000Y-48300000D02*
X110400000Y-54600000D01*
D21*
X118240000Y-32160000D02*
X118240000Y-31800000D01*
D16*
X111938556Y-56138556D02*
X122138556Y-56138556D01*
X109750000Y-47650000D02*
X110400000Y-48300000D01*
X122138556Y-56138556D02*
X132300000Y-66300000D01*
D21*
X106100000Y-47150000D02*
X106100000Y-45350000D01*
D16*
X122377127Y-55600000D02*
X132900000Y-66122873D01*
X117750000Y-55600000D02*
X122377127Y-55600000D01*
X116600000Y-52500000D02*
X116600000Y-54450000D01*
X116600000Y-54450000D02*
X117750000Y-55600000D01*
X132900000Y-66122873D02*
X132900000Y-66900000D01*
X138140000Y-57490000D02*
X138140000Y-55550000D01*
X126750000Y-67700000D02*
X127550000Y-66900000D01*
X127550000Y-66900000D02*
X128050000Y-66900000D01*
X123550000Y-79100000D02*
X127350000Y-75300000D01*
X126750000Y-68750000D02*
X126750000Y-67700000D01*
X138150000Y-57500000D02*
X138140000Y-57490000D01*
X123550000Y-86550000D02*
X123550000Y-79100000D01*
X127350000Y-75300000D02*
X127350000Y-69350000D01*
X127350000Y-69350000D02*
X126750000Y-68750000D01*
X123600000Y-86600000D02*
X123550000Y-86550000D01*
X136900000Y-57500000D02*
X136900000Y-55580000D01*
X122800000Y-79050000D02*
X126850000Y-75000000D01*
X136900000Y-55580000D02*
X136870000Y-55550000D01*
X122800000Y-87300000D02*
X122800000Y-79050000D01*
X126850000Y-75000000D02*
X126850000Y-69750000D01*
X126850000Y-69750000D02*
X126150000Y-69050000D01*
X141400000Y-70900000D02*
X141600000Y-70700000D01*
X137500000Y-70900000D02*
X141400000Y-70900000D01*
X137200000Y-71200000D02*
X137500000Y-70900000D01*
X137300000Y-72050000D02*
X137950000Y-72050000D01*
X137300000Y-72050000D02*
X137200000Y-72150000D01*
X137950000Y-72050000D02*
X138400000Y-71600000D01*
X137200000Y-72150000D02*
X133600000Y-72150000D01*
X133600000Y-72150000D02*
X132500000Y-71050000D01*
X138400000Y-71600000D02*
X141600000Y-71600000D01*
D21*
X127500000Y-110500000D02*
X127000000Y-110000000D01*
X127000000Y-93400000D02*
X119500000Y-85900000D01*
X127000000Y-110000000D02*
X127000000Y-93400000D01*
D16*
X125250000Y-75450000D02*
X125250000Y-74000000D01*
X122000000Y-81500000D02*
X122000000Y-78700000D01*
X119500000Y-84000000D02*
X122000000Y-81500000D01*
X125250000Y-74000000D02*
X125750000Y-73500000D01*
X125750000Y-73500000D02*
X126000000Y-73500000D01*
X122000000Y-78700000D02*
X125250000Y-75450000D01*
D21*
X119500000Y-85900000D02*
X119500000Y-84000000D01*
D16*
X121500000Y-57900000D02*
X129900000Y-66300000D01*
X111200000Y-57900000D02*
X121500000Y-57900000D01*
X108100000Y-54800000D02*
X111200000Y-57900000D01*
X108100000Y-53750000D02*
X108100000Y-54800000D01*
X112000000Y-42200000D02*
X107800000Y-42200000D01*
X116200000Y-46400000D02*
X112000000Y-42200000D01*
X107800000Y-42200000D02*
X107750000Y-42250000D01*
X125050000Y-71987760D02*
X125047747Y-71985507D01*
X117450000Y-78700000D02*
X110800000Y-78700000D01*
X119950000Y-73650000D02*
X119950000Y-76200000D01*
X110800000Y-78700000D02*
X108300000Y-81200000D01*
X119950000Y-76200000D02*
X117450000Y-78700000D01*
X125047747Y-71985507D02*
X121614493Y-71985507D01*
X121614493Y-71985507D02*
X119950000Y-73650000D01*
X111400000Y-79300000D02*
X108300000Y-82400000D01*
X124450000Y-72535018D02*
X121864982Y-72535018D01*
X121864982Y-72535018D02*
X120500000Y-73900000D01*
X120500000Y-76450000D02*
X117650000Y-79300000D01*
X117650000Y-79300000D02*
X111400000Y-79300000D01*
X120500000Y-73900000D02*
X120500000Y-76450000D01*
X111450000Y-57300000D02*
X121700000Y-57300000D01*
X121700000Y-57300000D02*
X130700000Y-66300000D01*
X108850000Y-54700000D02*
X111450000Y-57300000D01*
X108850000Y-52700000D02*
X108850000Y-54700000D01*
X137150000Y-72900000D02*
X138375000Y-72900000D01*
X138675000Y-72600000D02*
X141600000Y-72600000D01*
X138375000Y-72900000D02*
X138675000Y-72600000D01*
X138900000Y-73500000D02*
X141600000Y-73500000D01*
X137150000Y-73800000D02*
X138600000Y-73800000D01*
X138600000Y-73800000D02*
X138900000Y-73500000D01*
X137300000Y-74500000D02*
X141600000Y-74500000D01*
X137150000Y-74650000D02*
X137300000Y-74500000D01*
D21*
X117900000Y-83500000D02*
X117900000Y-82500000D01*
X130900000Y-79300000D02*
X135500000Y-79300000D01*
X136100000Y-77600000D02*
X135000000Y-76500000D01*
X136100000Y-78700000D02*
X136100000Y-77600000D01*
X126800000Y-83400000D02*
X130900000Y-79300000D01*
X135500000Y-79300000D02*
X136100000Y-78700000D01*
X126800000Y-84800000D02*
X126800000Y-83400000D01*
X117900000Y-82500000D02*
X119100000Y-81300000D01*
G04 #@! TA.AperFunction,Conductor*
G36*
X114308357Y-30069407D02*
G01*
X114344321Y-30118907D01*
X114344321Y-30180093D01*
X114320171Y-30219501D01*
X114035093Y-30504580D01*
X113939532Y-30600141D01*
X113939531Y-30600142D01*
X113896684Y-30674355D01*
X113896680Y-30674365D01*
X113889388Y-30701583D01*
X113882980Y-30725500D01*
X113880543Y-30734594D01*
X113874500Y-30757146D01*
X113874500Y-32174165D01*
X113855593Y-32232356D01*
X113845504Y-32244169D01*
X113393209Y-32696464D01*
X113338692Y-32724241D01*
X113323205Y-32725460D01*
X109991893Y-32725460D01*
X109906187Y-32725460D01*
X109855518Y-32739036D01*
X109823396Y-32747643D01*
X109749182Y-32790491D01*
X105939531Y-36600142D01*
X105896682Y-36674360D01*
X105896681Y-36674360D01*
X105896682Y-36674361D01*
X105874500Y-36757147D01*
X105874500Y-44024165D01*
X105855593Y-44082356D01*
X105845504Y-44094169D01*
X105139531Y-44800142D01*
X105096682Y-44874360D01*
X105096681Y-44874360D01*
X105096682Y-44874361D01*
X105096682Y-44874362D01*
X105074500Y-44957147D01*
X105074500Y-47357147D01*
X105074500Y-47442853D01*
X105078241Y-47456814D01*
X105096683Y-47525643D01*
X105139531Y-47599857D01*
X105139533Y-47599859D01*
X105139535Y-47599862D01*
X106100138Y-48560465D01*
X106100140Y-48560466D01*
X106100142Y-48560468D01*
X106174357Y-48603316D01*
X106174355Y-48603316D01*
X106174359Y-48603317D01*
X106174361Y-48603318D01*
X106257147Y-48625500D01*
X106342853Y-48625500D01*
X108824165Y-48625500D01*
X108882356Y-48644407D01*
X108894169Y-48654496D01*
X109345504Y-49105831D01*
X109373281Y-49160348D01*
X109374500Y-49175835D01*
X109374500Y-51026678D01*
X109355593Y-51084869D01*
X109345504Y-51096681D01*
X109299500Y-51142684D01*
X109299496Y-51142690D01*
X109233609Y-51256809D01*
X109233608Y-51256814D01*
X109199500Y-51384108D01*
X109199500Y-51515892D01*
X109229579Y-51628151D01*
X109233609Y-51643190D01*
X109299496Y-51757309D01*
X109299498Y-51757311D01*
X109299500Y-51757314D01*
X109370505Y-51828319D01*
X109398281Y-51882834D01*
X109399500Y-51898321D01*
X109399500Y-52302679D01*
X109380593Y-52360870D01*
X109331093Y-52396834D01*
X109269907Y-52396834D01*
X109230498Y-52372684D01*
X109157314Y-52299500D01*
X109157311Y-52299498D01*
X109157309Y-52299496D01*
X109043189Y-52233609D01*
X109043191Y-52233609D01*
X108993799Y-52220375D01*
X108915892Y-52199500D01*
X108784108Y-52199500D01*
X108706200Y-52220375D01*
X108656809Y-52233609D01*
X108542690Y-52299496D01*
X108449496Y-52392690D01*
X108383609Y-52506809D01*
X108383608Y-52506814D01*
X108349500Y-52634108D01*
X108349500Y-52765892D01*
X108379579Y-52878151D01*
X108383609Y-52893190D01*
X108449496Y-53007309D01*
X108449498Y-53007311D01*
X108449500Y-53007314D01*
X108520505Y-53078319D01*
X108524130Y-53085434D01*
X108530593Y-53090130D01*
X108537756Y-53112178D01*
X108548281Y-53132834D01*
X108549500Y-53148321D01*
X108549500Y-53260117D01*
X108530593Y-53318308D01*
X108481093Y-53354272D01*
X108419907Y-53354272D01*
X108401000Y-53345854D01*
X108293187Y-53283608D01*
X108250754Y-53272238D01*
X108165892Y-53249500D01*
X108034108Y-53249500D01*
X107956200Y-53270375D01*
X107906809Y-53283609D01*
X107792690Y-53349496D01*
X107699496Y-53442690D01*
X107633609Y-53556809D01*
X107633608Y-53556814D01*
X107599500Y-53684108D01*
X107599500Y-53815892D01*
X107629579Y-53928151D01*
X107633609Y-53943190D01*
X107699496Y-54057309D01*
X107699498Y-54057311D01*
X107699500Y-54057314D01*
X107770505Y-54128319D01*
X107798281Y-54182834D01*
X107799500Y-54198321D01*
X107799500Y-54839564D01*
X107819978Y-54915988D01*
X107819979Y-54915989D01*
X107839904Y-54950500D01*
X107859540Y-54984511D01*
X110959540Y-58084511D01*
X110959539Y-58084511D01*
X111015489Y-58140460D01*
X111084007Y-58180019D01*
X111084011Y-58180021D01*
X111160435Y-58200499D01*
X111160437Y-58200500D01*
X111160438Y-58200500D01*
X111239562Y-58200500D01*
X121334521Y-58200500D01*
X121392712Y-58219407D01*
X121404525Y-58229496D01*
X129370504Y-66195475D01*
X129398281Y-66249992D01*
X129399500Y-66265479D01*
X129399500Y-66365892D01*
X129417644Y-66433608D01*
X129433609Y-66493190D01*
X129499496Y-66607309D01*
X129499498Y-66607311D01*
X129499500Y-66607314D01*
X129592686Y-66700500D01*
X129592688Y-66700501D01*
X129592690Y-66700503D01*
X129706810Y-66766390D01*
X129706808Y-66766390D01*
X129706812Y-66766391D01*
X129706814Y-66766392D01*
X129834108Y-66800500D01*
X129834110Y-66800500D01*
X129965890Y-66800500D01*
X129965892Y-66800500D01*
X130093186Y-66766392D01*
X130093188Y-66766390D01*
X130093190Y-66766390D01*
X130207309Y-66700503D01*
X130207309Y-66700502D01*
X130207314Y-66700500D01*
X130229998Y-66677815D01*
X130284513Y-66650040D01*
X130344945Y-66659611D01*
X130370000Y-66677814D01*
X130392686Y-66700500D01*
X130392688Y-66700501D01*
X130392690Y-66700503D01*
X130506810Y-66766390D01*
X130506808Y-66766390D01*
X130506812Y-66766391D01*
X130506814Y-66766392D01*
X130634108Y-66800500D01*
X130634110Y-66800500D01*
X130765890Y-66800500D01*
X130765892Y-66800500D01*
X130893186Y-66766392D01*
X130893188Y-66766390D01*
X130893190Y-66766390D01*
X131007309Y-66700503D01*
X131007309Y-66700502D01*
X131007314Y-66700500D01*
X131029998Y-66677815D01*
X131084513Y-66650040D01*
X131144945Y-66659611D01*
X131170000Y-66677814D01*
X131192686Y-66700500D01*
X131192688Y-66700501D01*
X131192690Y-66700503D01*
X131306810Y-66766390D01*
X131306808Y-66766390D01*
X131306812Y-66766391D01*
X131306814Y-66766392D01*
X131434108Y-66800500D01*
X131434110Y-66800500D01*
X131565890Y-66800500D01*
X131565892Y-66800500D01*
X131693186Y-66766392D01*
X131693188Y-66766390D01*
X131693190Y-66766390D01*
X131807309Y-66700503D01*
X131807309Y-66700502D01*
X131807314Y-66700500D01*
X131829998Y-66677815D01*
X131884513Y-66650040D01*
X131944945Y-66659611D01*
X131970000Y-66677814D01*
X131992686Y-66700500D01*
X131992688Y-66700501D01*
X131992690Y-66700503D01*
X132106810Y-66766390D01*
X132106808Y-66766390D01*
X132106812Y-66766391D01*
X132106814Y-66766392D01*
X132234108Y-66800500D01*
X132234110Y-66800500D01*
X132300500Y-66800500D01*
X132358691Y-66819407D01*
X132394655Y-66868907D01*
X132399500Y-66899500D01*
X132399500Y-66965892D01*
X132429579Y-67078151D01*
X132433609Y-67093190D01*
X132499496Y-67207309D01*
X132499498Y-67207311D01*
X132499500Y-67207314D01*
X132592686Y-67300500D01*
X132592688Y-67300501D01*
X132592690Y-67300503D01*
X132706810Y-67366390D01*
X132706808Y-67366390D01*
X132706812Y-67366391D01*
X132706814Y-67366392D01*
X132834108Y-67400500D01*
X132834110Y-67400500D01*
X132965890Y-67400500D01*
X132965892Y-67400500D01*
X133093186Y-67366392D01*
X133093188Y-67366390D01*
X133093190Y-67366390D01*
X133207309Y-67300503D01*
X133207309Y-67300502D01*
X133207314Y-67300500D01*
X133300500Y-67207314D01*
X133300503Y-67207309D01*
X133366390Y-67093190D01*
X133366390Y-67093188D01*
X133366392Y-67093186D01*
X133400500Y-66965892D01*
X133400500Y-66834108D01*
X133366392Y-66706814D01*
X133366390Y-66706811D01*
X133366390Y-66706809D01*
X133300503Y-66592690D01*
X133300501Y-66592688D01*
X133300500Y-66592686D01*
X133229494Y-66521680D01*
X133201719Y-66467166D01*
X133200500Y-66451679D01*
X133200500Y-66083312D01*
X133200499Y-66083308D01*
X133194385Y-66060489D01*
X133180022Y-66006885D01*
X133180019Y-66006879D01*
X133140463Y-65938366D01*
X133140461Y-65938364D01*
X133140460Y-65938362D01*
X122561638Y-55359540D01*
X122561635Y-55359538D01*
X122493119Y-55319980D01*
X122493115Y-55319978D01*
X122416691Y-55299500D01*
X122416689Y-55299500D01*
X117915479Y-55299500D01*
X117857288Y-55280593D01*
X117845475Y-55270504D01*
X116929496Y-54354525D01*
X116901719Y-54300008D01*
X116900500Y-54284521D01*
X116900500Y-53655515D01*
X118999500Y-53655515D01*
X118999500Y-53844484D01*
X119029058Y-54031113D01*
X119087453Y-54210832D01*
X119148294Y-54330241D01*
X119173240Y-54379199D01*
X119284310Y-54532073D01*
X119417927Y-54665690D01*
X119570801Y-54776760D01*
X119739168Y-54862547D01*
X119918882Y-54920940D01*
X119918883Y-54920940D01*
X119918886Y-54920941D01*
X120105516Y-54950500D01*
X120105519Y-54950500D01*
X121705519Y-54950500D01*
X123011728Y-54950500D01*
X123069919Y-54969407D01*
X123081732Y-54979496D01*
X134717926Y-66615690D01*
X134870801Y-66726760D01*
X135039168Y-66812547D01*
X135218882Y-66870940D01*
X135218883Y-66870940D01*
X135218886Y-66870941D01*
X135405515Y-66900500D01*
X135405518Y-66900500D01*
X138094484Y-66900500D01*
X138281113Y-66870941D01*
X138281114Y-66870940D01*
X138281118Y-66870940D01*
X138460832Y-66812547D01*
X138629199Y-66726760D01*
X138782073Y-66615690D01*
X138915690Y-66482073D01*
X139026760Y-66329199D01*
X139112547Y-66160832D01*
X139170940Y-65981118D01*
X139200500Y-65794481D01*
X139200500Y-65605519D01*
X139200500Y-65605515D01*
X139170941Y-65418886D01*
X139170940Y-65418882D01*
X139112547Y-65239168D01*
X139026760Y-65070801D01*
X138915690Y-64917927D01*
X138782073Y-64784310D01*
X138782069Y-64784307D01*
X138782067Y-64784305D01*
X138631309Y-64674772D01*
X138595345Y-64625272D01*
X138590500Y-64594680D01*
X138590500Y-60890267D01*
X138609407Y-60832076D01*
X138634500Y-60807951D01*
X138654550Y-60794554D01*
X138654551Y-60794553D01*
X138654552Y-60794552D01*
X138698867Y-60728231D01*
X138710500Y-60669748D01*
X138710500Y-58230252D01*
X138698867Y-58171769D01*
X138654552Y-58105448D01*
X138654548Y-58105445D01*
X138588233Y-58061134D01*
X138588231Y-58061133D01*
X138588228Y-58061132D01*
X138588227Y-58061132D01*
X138526707Y-58048894D01*
X138473324Y-58018997D01*
X138447709Y-57963431D01*
X138459647Y-57903422D01*
X138476016Y-57881797D01*
X138550500Y-57807314D01*
X138616392Y-57693186D01*
X138650500Y-57565892D01*
X138650500Y-57434108D01*
X138616392Y-57306814D01*
X138616390Y-57306811D01*
X138616390Y-57306809D01*
X138550503Y-57192690D01*
X138550499Y-57192685D01*
X138476020Y-57118205D01*
X138448243Y-57063688D01*
X138457815Y-57003256D01*
X138501079Y-56959992D01*
X138526709Y-56951104D01*
X138529745Y-56950500D01*
X138529748Y-56950500D01*
X138588231Y-56938867D01*
X138654552Y-56894552D01*
X138698867Y-56828231D01*
X138710500Y-56769748D01*
X138710500Y-54330252D01*
X138698867Y-54271769D01*
X138654552Y-54205448D01*
X138643886Y-54198321D01*
X138588233Y-54161134D01*
X138588231Y-54161133D01*
X138588228Y-54161132D01*
X138588227Y-54161132D01*
X138529758Y-54149501D01*
X138529748Y-54149500D01*
X137750252Y-54149500D01*
X137750251Y-54149500D01*
X137750241Y-54149501D01*
X137691772Y-54161132D01*
X137691766Y-54161134D01*
X137625451Y-54205445D01*
X137625445Y-54205451D01*
X137587315Y-54262517D01*
X137539265Y-54300396D01*
X137478127Y-54302798D01*
X137427253Y-54268805D01*
X137422685Y-54262517D01*
X137384554Y-54205451D01*
X137384552Y-54205448D01*
X137373886Y-54198321D01*
X137318233Y-54161134D01*
X137318231Y-54161133D01*
X137318228Y-54161132D01*
X137318227Y-54161132D01*
X137259758Y-54149501D01*
X137259748Y-54149500D01*
X136480252Y-54149500D01*
X136480251Y-54149500D01*
X136480241Y-54149501D01*
X136421772Y-54161132D01*
X136421766Y-54161134D01*
X136355451Y-54205445D01*
X136355445Y-54205451D01*
X136317315Y-54262517D01*
X136269265Y-54300396D01*
X136208127Y-54302798D01*
X136157253Y-54268805D01*
X136152685Y-54262517D01*
X136114554Y-54205451D01*
X136114552Y-54205448D01*
X136103886Y-54198321D01*
X136048233Y-54161134D01*
X136048231Y-54161133D01*
X136048228Y-54161132D01*
X136048227Y-54161132D01*
X135989758Y-54149501D01*
X135989748Y-54149500D01*
X135210252Y-54149500D01*
X135210251Y-54149500D01*
X135210241Y-54149501D01*
X135151772Y-54161132D01*
X135151766Y-54161134D01*
X135085451Y-54205445D01*
X135085445Y-54205451D01*
X135047315Y-54262517D01*
X134999265Y-54300396D01*
X134938127Y-54302798D01*
X134887253Y-54268805D01*
X134882685Y-54262517D01*
X134844554Y-54205451D01*
X134844552Y-54205448D01*
X134833886Y-54198321D01*
X134778233Y-54161134D01*
X134778231Y-54161133D01*
X134778228Y-54161132D01*
X134778227Y-54161132D01*
X134719758Y-54149501D01*
X134719748Y-54149500D01*
X133940252Y-54149500D01*
X133940251Y-54149500D01*
X133940241Y-54149501D01*
X133881772Y-54161132D01*
X133881766Y-54161134D01*
X133815451Y-54205445D01*
X133815445Y-54205451D01*
X133777315Y-54262517D01*
X133729265Y-54300396D01*
X133668127Y-54302798D01*
X133617253Y-54268805D01*
X133612685Y-54262517D01*
X133574554Y-54205451D01*
X133574552Y-54205448D01*
X133563886Y-54198321D01*
X133508233Y-54161134D01*
X133508231Y-54161133D01*
X133508228Y-54161132D01*
X133508227Y-54161132D01*
X133449758Y-54149501D01*
X133449748Y-54149500D01*
X132670252Y-54149500D01*
X132670251Y-54149500D01*
X132670241Y-54149501D01*
X132611772Y-54161132D01*
X132611766Y-54161134D01*
X132545451Y-54205445D01*
X132545445Y-54205451D01*
X132501134Y-54271766D01*
X132501132Y-54271772D01*
X132489501Y-54330241D01*
X132489500Y-54330253D01*
X132489500Y-56769746D01*
X132489501Y-56769758D01*
X132501132Y-56828227D01*
X132501134Y-56828233D01*
X132545445Y-56894548D01*
X132545448Y-56894552D01*
X132611769Y-56938867D01*
X132669816Y-56950413D01*
X132675069Y-56953355D01*
X132681093Y-56953355D01*
X132701354Y-56968075D01*
X132723198Y-56980309D01*
X132725719Y-56985778D01*
X132730593Y-56989319D01*
X132738331Y-57013135D01*
X132748814Y-57035874D01*
X132749500Y-57047510D01*
X132749500Y-57051679D01*
X132730593Y-57109870D01*
X132720509Y-57121676D01*
X132649501Y-57192685D01*
X132649497Y-57192689D01*
X132649496Y-57192690D01*
X132583609Y-57306809D01*
X132583608Y-57306814D01*
X132549500Y-57434108D01*
X132549500Y-57565892D01*
X132558773Y-57600500D01*
X132583609Y-57693190D01*
X132652744Y-57812934D01*
X132651399Y-57813710D01*
X132669245Y-57864107D01*
X132651867Y-57922773D01*
X132610268Y-57957261D01*
X132517523Y-57998212D01*
X132438213Y-58077522D01*
X132392909Y-58180127D01*
X132390000Y-58205202D01*
X132390000Y-59349999D01*
X132390001Y-59350000D01*
X132961000Y-59350000D01*
X132975912Y-59354845D01*
X132991593Y-59354845D01*
X133004278Y-59364061D01*
X133019191Y-59368907D01*
X133028407Y-59381592D01*
X133041093Y-59390809D01*
X133045938Y-59405721D01*
X133055155Y-59418407D01*
X133060000Y-59449000D01*
X133060000Y-59450000D01*
X133061000Y-59450000D01*
X133119191Y-59468907D01*
X133155155Y-59518407D01*
X133160000Y-59549000D01*
X133160000Y-60949998D01*
X133160001Y-60949999D01*
X133474790Y-60949999D01*
X133474791Y-60949998D01*
X133499874Y-60947090D01*
X133602477Y-60901786D01*
X133688273Y-60815991D01*
X133689201Y-60816919D01*
X133730046Y-60785471D01*
X133791208Y-60783769D01*
X133818243Y-60796420D01*
X133881769Y-60838867D01*
X133926231Y-60847711D01*
X133940241Y-60850498D01*
X133940246Y-60850498D01*
X133940252Y-60850500D01*
X133940253Y-60850500D01*
X134719747Y-60850500D01*
X134719748Y-60850500D01*
X134778231Y-60838867D01*
X134841751Y-60796423D01*
X134900637Y-60779814D01*
X134958041Y-60800990D01*
X134977000Y-60821264D01*
X135057522Y-60901786D01*
X135160127Y-60947090D01*
X135185203Y-60949999D01*
X135499998Y-60949999D01*
X135500000Y-60949998D01*
X135500000Y-59550001D01*
X135700000Y-59550001D01*
X135700000Y-60949998D01*
X135700001Y-60949999D01*
X136014790Y-60949999D01*
X136014791Y-60949998D01*
X136039874Y-60947090D01*
X136142477Y-60901786D01*
X136164996Y-60879268D01*
X136219513Y-60851491D01*
X136279945Y-60861062D01*
X136305004Y-60879268D01*
X136327522Y-60901786D01*
X136430127Y-60947090D01*
X136455203Y-60949999D01*
X136769998Y-60949999D01*
X136770000Y-60949998D01*
X136770000Y-59550000D01*
X135700001Y-59550000D01*
X135700000Y-59550001D01*
X135500000Y-59550001D01*
X135500000Y-57950001D01*
X135499999Y-57950000D01*
X135185210Y-57950000D01*
X135185207Y-57950001D01*
X135160125Y-57952909D01*
X135057522Y-57998213D01*
X134971727Y-58084009D01*
X134970800Y-58083082D01*
X134929938Y-58114533D01*
X134868776Y-58116226D01*
X134841750Y-58103576D01*
X134815877Y-58086288D01*
X134804590Y-58078746D01*
X134778233Y-58061134D01*
X134778231Y-58061133D01*
X134778228Y-58061132D01*
X134778227Y-58061132D01*
X134719758Y-58049501D01*
X134719748Y-58049500D01*
X133940252Y-58049500D01*
X133940251Y-58049500D01*
X133940241Y-58049501D01*
X133881772Y-58061132D01*
X133881766Y-58061134D01*
X133818249Y-58103576D01*
X133759361Y-58120185D01*
X133701957Y-58099008D01*
X133683010Y-58078746D01*
X133602477Y-57998213D01*
X133494440Y-57950511D01*
X133448845Y-57909710D01*
X133435939Y-57849902D01*
X133448692Y-57810446D01*
X133516390Y-57693190D01*
X133516390Y-57693188D01*
X133516392Y-57693186D01*
X133550500Y-57565892D01*
X133550500Y-57434108D01*
X133516392Y-57306814D01*
X133516390Y-57306811D01*
X133516390Y-57306809D01*
X133450503Y-57192690D01*
X133450501Y-57192688D01*
X133450500Y-57192686D01*
X133379494Y-57121680D01*
X133375869Y-57114565D01*
X133369407Y-57109870D01*
X133362243Y-57087821D01*
X133351719Y-57067166D01*
X133350500Y-57051679D01*
X133350500Y-57049500D01*
X133369407Y-56991309D01*
X133418907Y-56955345D01*
X133444936Y-56951222D01*
X133444912Y-56950976D01*
X133449094Y-56950564D01*
X133449500Y-56950500D01*
X133449747Y-56950500D01*
X133449748Y-56950500D01*
X133508231Y-56938867D01*
X133574552Y-56894552D01*
X133612686Y-56837481D01*
X133660735Y-56799603D01*
X133721873Y-56797201D01*
X133772746Y-56831194D01*
X133777307Y-56837472D01*
X133815448Y-56894552D01*
X133881769Y-56938867D01*
X133919811Y-56946434D01*
X133940241Y-56950498D01*
X133940246Y-56950498D01*
X133940252Y-56950500D01*
X133940253Y-56950500D01*
X134719747Y-56950500D01*
X134719748Y-56950500D01*
X134778231Y-56938867D01*
X134844552Y-56894552D01*
X134882686Y-56837481D01*
X134930735Y-56799603D01*
X134991873Y-56797201D01*
X135042746Y-56831194D01*
X135047307Y-56837472D01*
X135085448Y-56894552D01*
X135151769Y-56938867D01*
X135189811Y-56946434D01*
X135210241Y-56950498D01*
X135210246Y-56950498D01*
X135210252Y-56950500D01*
X135210253Y-56950500D01*
X135989747Y-56950500D01*
X135989748Y-56950500D01*
X136048231Y-56938867D01*
X136114552Y-56894552D01*
X136152686Y-56837481D01*
X136200735Y-56799603D01*
X136261873Y-56797201D01*
X136312746Y-56831194D01*
X136317307Y-56837472D01*
X136355448Y-56894552D01*
X136421769Y-56938867D01*
X136459811Y-56946434D01*
X136480241Y-56950498D01*
X136480246Y-56950498D01*
X136480252Y-56950500D01*
X136500500Y-56950500D01*
X136515412Y-56955345D01*
X136531093Y-56955345D01*
X136543778Y-56964561D01*
X136558691Y-56969407D01*
X136567907Y-56982092D01*
X136580593Y-56991309D01*
X136585438Y-57006221D01*
X136594655Y-57018907D01*
X136599500Y-57049500D01*
X136599500Y-57051679D01*
X136580593Y-57109870D01*
X136570509Y-57121676D01*
X136499501Y-57192685D01*
X136499497Y-57192689D01*
X136499496Y-57192690D01*
X136433609Y-57306809D01*
X136433608Y-57306814D01*
X136399500Y-57434108D01*
X136399500Y-57565892D01*
X136408773Y-57600500D01*
X136433609Y-57693190D01*
X136498595Y-57805748D01*
X136511317Y-57865596D01*
X136486430Y-57921492D01*
X136437051Y-57950001D01*
X136437311Y-57950955D01*
X136433695Y-57951938D01*
X136433442Y-57952085D01*
X136432725Y-57952202D01*
X136430126Y-57952909D01*
X136327522Y-57998213D01*
X136305004Y-58020732D01*
X136250487Y-58048509D01*
X136190055Y-58038938D01*
X136164996Y-58020732D01*
X136142477Y-57998213D01*
X136039872Y-57952909D01*
X136014797Y-57950000D01*
X135700001Y-57950000D01*
X135700000Y-57950001D01*
X135700000Y-59349999D01*
X135700001Y-59350000D01*
X136771000Y-59350000D01*
X136785912Y-59354845D01*
X136801593Y-59354845D01*
X136814278Y-59364061D01*
X136829191Y-59368907D01*
X136838407Y-59381592D01*
X136851093Y-59390809D01*
X136855938Y-59405721D01*
X136865155Y-59418407D01*
X136870000Y-59449000D01*
X136870000Y-59450000D01*
X136871000Y-59450000D01*
X136929191Y-59468907D01*
X136965155Y-59518407D01*
X136970000Y-59549000D01*
X136970000Y-60949998D01*
X136970001Y-60949999D01*
X137284790Y-60949999D01*
X137284791Y-60949998D01*
X137309874Y-60947090D01*
X137412477Y-60901786D01*
X137498273Y-60815991D01*
X137499201Y-60816919D01*
X137503553Y-60813568D01*
X137511956Y-60800993D01*
X137527187Y-60795373D01*
X137540052Y-60785470D01*
X137555170Y-60785050D01*
X137569360Y-60779815D01*
X137584985Y-60784221D01*
X137601214Y-60783771D01*
X137628248Y-60796423D01*
X137645501Y-60807951D01*
X137683381Y-60856001D01*
X137689500Y-60890267D01*
X137689500Y-64400500D01*
X137670593Y-64458691D01*
X137621093Y-64494655D01*
X137590500Y-64499500D01*
X136038272Y-64499500D01*
X135980081Y-64480593D01*
X135968268Y-64470504D01*
X132616767Y-61119003D01*
X132588990Y-61064486D01*
X132598561Y-61004054D01*
X132641826Y-60960789D01*
X132686771Y-60949999D01*
X132959999Y-60949999D01*
X132960000Y-60949998D01*
X132960000Y-59550000D01*
X132390002Y-59550000D01*
X132390001Y-59550001D01*
X132390001Y-60653229D01*
X132371094Y-60711420D01*
X132321594Y-60747384D01*
X132260408Y-60747384D01*
X132220997Y-60723233D01*
X128294965Y-56797201D01*
X124332074Y-52834310D01*
X124179199Y-52723240D01*
X124179198Y-52723239D01*
X124179196Y-52723238D01*
X124010832Y-52637453D01*
X123831113Y-52579058D01*
X123644484Y-52549500D01*
X123644481Y-52549500D01*
X121894481Y-52549500D01*
X120105519Y-52549500D01*
X120105516Y-52549500D01*
X119918886Y-52579058D01*
X119739167Y-52637453D01*
X119570803Y-52723238D01*
X119417928Y-52834309D01*
X119284309Y-52967928D01*
X119173238Y-53120803D01*
X119087453Y-53289167D01*
X119029058Y-53468886D01*
X118999500Y-53655515D01*
X116900500Y-53655515D01*
X116900500Y-52948321D01*
X116919407Y-52890130D01*
X116929490Y-52878323D01*
X117000500Y-52807314D01*
X117024416Y-52765890D01*
X117066390Y-52693190D01*
X117066390Y-52693188D01*
X117066392Y-52693186D01*
X117100500Y-52565892D01*
X117100500Y-52434108D01*
X117066392Y-52306814D01*
X117066390Y-52306811D01*
X117066390Y-52306809D01*
X117000503Y-52192690D01*
X117000501Y-52192688D01*
X117000500Y-52192686D01*
X116907314Y-52099500D01*
X116907311Y-52099498D01*
X116907309Y-52099496D01*
X116793189Y-52033609D01*
X116793191Y-52033609D01*
X116743799Y-52020375D01*
X116665892Y-51999500D01*
X116534108Y-51999500D01*
X116456200Y-52020375D01*
X116406809Y-52033609D01*
X116292690Y-52099496D01*
X116199496Y-52192690D01*
X116133609Y-52306809D01*
X116133608Y-52306814D01*
X116099500Y-52434108D01*
X116099500Y-52565892D01*
X116117778Y-52634108D01*
X116133609Y-52693190D01*
X116199496Y-52807309D01*
X116199498Y-52807311D01*
X116199500Y-52807314D01*
X116270505Y-52878319D01*
X116298281Y-52932834D01*
X116299500Y-52948321D01*
X116299500Y-54489562D01*
X116310891Y-54532071D01*
X116319979Y-54565989D01*
X116330385Y-54584012D01*
X116330386Y-54584014D01*
X116359537Y-54634507D01*
X116359538Y-54634508D01*
X116359540Y-54634511D01*
X116995533Y-55270504D01*
X117394081Y-55669052D01*
X117421858Y-55723569D01*
X117412287Y-55784001D01*
X117369022Y-55827266D01*
X117324077Y-55838056D01*
X112104035Y-55838056D01*
X112045844Y-55819149D01*
X112034031Y-55809060D01*
X110729496Y-54504525D01*
X110701719Y-54450008D01*
X110700500Y-54434521D01*
X110700500Y-48260437D01*
X110700499Y-48260435D01*
X110680021Y-48184011D01*
X110680019Y-48184007D01*
X110640460Y-48115489D01*
X110584511Y-48059539D01*
X110584511Y-48059540D01*
X110279496Y-47754525D01*
X110275869Y-47747407D01*
X110269407Y-47742712D01*
X110262243Y-47720663D01*
X110251719Y-47700008D01*
X110250500Y-47684521D01*
X110250500Y-47628023D01*
X142299500Y-47628023D01*
X142299500Y-47971976D01*
X142333210Y-48314246D01*
X142400310Y-48651582D01*
X142500146Y-48980696D01*
X142631765Y-49298453D01*
X142631778Y-49298480D01*
X142793897Y-49601784D01*
X142893048Y-49750173D01*
X142984981Y-49887760D01*
X143203172Y-50153627D01*
X143446373Y-50396828D01*
X143712240Y-50615019D01*
X143855226Y-50710559D01*
X143998215Y-50806102D01*
X144301519Y-50968221D01*
X144301538Y-50968231D01*
X144619295Y-51099850D01*
X144619297Y-51099850D01*
X144619303Y-51099853D01*
X144948417Y-51199689D01*
X144948421Y-51199689D01*
X144948422Y-51199690D01*
X145285750Y-51266789D01*
X145323781Y-51270534D01*
X145628023Y-51300500D01*
X145628031Y-51300500D01*
X145971977Y-51300500D01*
X146200156Y-51278026D01*
X146314250Y-51266789D01*
X146651578Y-51199690D01*
X146651579Y-51199689D01*
X146651582Y-51199689D01*
X146980696Y-51099853D01*
X146980698Y-51099851D01*
X146980705Y-51099850D01*
X147298462Y-50968231D01*
X147446672Y-50889010D01*
X147601784Y-50806102D01*
X147601787Y-50806100D01*
X147887760Y-50615019D01*
X148153627Y-50396828D01*
X148396828Y-50153627D01*
X148615019Y-49887760D01*
X148806100Y-49601787D01*
X148813665Y-49587635D01*
X148968221Y-49298480D01*
X148968231Y-49298462D01*
X149099850Y-48980705D01*
X149106997Y-48957147D01*
X149199689Y-48651582D01*
X149204877Y-48625500D01*
X149266789Y-48314250D01*
X149280512Y-48174919D01*
X149300500Y-47971976D01*
X149300500Y-47628023D01*
X149272397Y-47342690D01*
X149266789Y-47285750D01*
X149199690Y-46948422D01*
X149199689Y-46948421D01*
X149199689Y-46948417D01*
X149099853Y-46619303D01*
X149036309Y-46465892D01*
X148968231Y-46301538D01*
X148917600Y-46206814D01*
X148806102Y-45998215D01*
X148710559Y-45855226D01*
X148615019Y-45712240D01*
X148396828Y-45446373D01*
X148153627Y-45203172D01*
X147887760Y-44984981D01*
X147816266Y-44937210D01*
X147601784Y-44793897D01*
X147298480Y-44631778D01*
X147298468Y-44631772D01*
X147298462Y-44631769D01*
X147298457Y-44631766D01*
X147298453Y-44631765D01*
X146980696Y-44500146D01*
X146651582Y-44400310D01*
X146380229Y-44346335D01*
X146314250Y-44333211D01*
X146314248Y-44333210D01*
X145971977Y-44299500D01*
X145971969Y-44299500D01*
X145628031Y-44299500D01*
X145628023Y-44299500D01*
X145285753Y-44333210D01*
X144948417Y-44400310D01*
X144619303Y-44500146D01*
X144301546Y-44631765D01*
X144301519Y-44631778D01*
X143998215Y-44793897D01*
X143712238Y-44984982D01*
X143446378Y-45203167D01*
X143203167Y-45446378D01*
X142984982Y-45712238D01*
X142793897Y-45998215D01*
X142631778Y-46301519D01*
X142631765Y-46301546D01*
X142500146Y-46619303D01*
X142400310Y-46948417D01*
X142333210Y-47285753D01*
X142299500Y-47628023D01*
X110250500Y-47628023D01*
X110250500Y-47584109D01*
X110234833Y-47525639D01*
X110216392Y-47456814D01*
X110216390Y-47456811D01*
X110216390Y-47456809D01*
X110150503Y-47342690D01*
X110150501Y-47342688D01*
X110150500Y-47342686D01*
X110057314Y-47249500D01*
X110057311Y-47249498D01*
X110057309Y-47249496D01*
X109943189Y-47183609D01*
X109943191Y-47183609D01*
X109893799Y-47170375D01*
X109815892Y-47149500D01*
X109684108Y-47149500D01*
X109606200Y-47170375D01*
X109556809Y-47183609D01*
X109442690Y-47249496D01*
X109442684Y-47249500D01*
X109396681Y-47295504D01*
X109342164Y-47323281D01*
X109326678Y-47324500D01*
X106775833Y-47324500D01*
X106717642Y-47305593D01*
X106705829Y-47295503D01*
X106454496Y-47044169D01*
X106426719Y-46989653D01*
X106425500Y-46974166D01*
X106425500Y-45525834D01*
X106444407Y-45467643D01*
X106454490Y-45455836D01*
X107110465Y-44799862D01*
X107153318Y-44725639D01*
X107175500Y-44642853D01*
X107175500Y-44557147D01*
X107175500Y-42622197D01*
X107194407Y-42564006D01*
X107243907Y-42528042D01*
X107305093Y-42528042D01*
X107342881Y-42554755D01*
X107344912Y-42552725D01*
X107349498Y-42557311D01*
X107349500Y-42557314D01*
X107442686Y-42650500D01*
X107442688Y-42650501D01*
X107442690Y-42650503D01*
X107556810Y-42716390D01*
X107556808Y-42716390D01*
X107556812Y-42716391D01*
X107556814Y-42716392D01*
X107684108Y-42750500D01*
X107684110Y-42750500D01*
X107815890Y-42750500D01*
X107815892Y-42750500D01*
X107943186Y-42716392D01*
X107943188Y-42716390D01*
X107943190Y-42716390D01*
X108057309Y-42650503D01*
X108057309Y-42650502D01*
X108057314Y-42650500D01*
X108150500Y-42557314D01*
X108154722Y-42550000D01*
X108200190Y-42509060D01*
X108240459Y-42500500D01*
X111834521Y-42500500D01*
X111892712Y-42519407D01*
X111904525Y-42529496D01*
X115670504Y-46295475D01*
X115698281Y-46349992D01*
X115699500Y-46365479D01*
X115699500Y-46465892D01*
X115729579Y-46578151D01*
X115733609Y-46593190D01*
X115799496Y-46707309D01*
X115799498Y-46707311D01*
X115799500Y-46707314D01*
X115892686Y-46800500D01*
X115892688Y-46800501D01*
X115892690Y-46800503D01*
X116006810Y-46866390D01*
X116006808Y-46866390D01*
X116006812Y-46866391D01*
X116006814Y-46866392D01*
X116134108Y-46900500D01*
X116134110Y-46900500D01*
X116265890Y-46900500D01*
X116265892Y-46900500D01*
X116393186Y-46866392D01*
X116393188Y-46866390D01*
X116393190Y-46866390D01*
X116507309Y-46800503D01*
X116507309Y-46800502D01*
X116507314Y-46800500D01*
X116600500Y-46707314D01*
X116600503Y-46707309D01*
X116666390Y-46593190D01*
X116666390Y-46593188D01*
X116666392Y-46593186D01*
X116700500Y-46465892D01*
X116700500Y-46334108D01*
X116666392Y-46206814D01*
X116666390Y-46206811D01*
X116666390Y-46206809D01*
X116600503Y-46092690D01*
X116600501Y-46092688D01*
X116600500Y-46092686D01*
X116507314Y-45999500D01*
X116507311Y-45999498D01*
X116507309Y-45999496D01*
X116393189Y-45933609D01*
X116393191Y-45933609D01*
X116343799Y-45920375D01*
X116265892Y-45899500D01*
X116165479Y-45899500D01*
X116107288Y-45880593D01*
X116095475Y-45870504D01*
X114249136Y-44024165D01*
X112184511Y-41959540D01*
X112158987Y-41944804D01*
X112158986Y-41944803D01*
X112158985Y-41944803D01*
X112131725Y-41929064D01*
X112115988Y-41919978D01*
X112039564Y-41899500D01*
X112039562Y-41899500D01*
X108148321Y-41899500D01*
X108090130Y-41880593D01*
X108078323Y-41870509D01*
X108057314Y-41849500D01*
X108057311Y-41849498D01*
X108057309Y-41849496D01*
X107943189Y-41783609D01*
X107943191Y-41783609D01*
X107893799Y-41770375D01*
X107815892Y-41749500D01*
X107684108Y-41749500D01*
X107606200Y-41770375D01*
X107556809Y-41783609D01*
X107442690Y-41849496D01*
X107442689Y-41849497D01*
X107442686Y-41849499D01*
X107442686Y-41849500D01*
X107349500Y-41942686D01*
X107349498Y-41942688D01*
X107344912Y-41947275D01*
X107342776Y-41945139D01*
X107302556Y-41972743D01*
X107241392Y-41971102D01*
X107192875Y-41933823D01*
X107175500Y-41877802D01*
X107175500Y-37175835D01*
X107194407Y-37117644D01*
X107204496Y-37105831D01*
X108682304Y-35628023D01*
X142299500Y-35628023D01*
X142299500Y-35971976D01*
X142333210Y-36314246D01*
X142400310Y-36651582D01*
X142500146Y-36980696D01*
X142631765Y-37298453D01*
X142631778Y-37298480D01*
X142793897Y-37601784D01*
X142937210Y-37816266D01*
X142984981Y-37887760D01*
X143203172Y-38153627D01*
X143446373Y-38396828D01*
X143712240Y-38615019D01*
X143855226Y-38710559D01*
X143998215Y-38806102D01*
X144301519Y-38968221D01*
X144301538Y-38968231D01*
X144619295Y-39099850D01*
X144619297Y-39099850D01*
X144619303Y-39099853D01*
X144948417Y-39199689D01*
X144948421Y-39199689D01*
X144948422Y-39199690D01*
X145285750Y-39266789D01*
X145323781Y-39270534D01*
X145628023Y-39300500D01*
X145628031Y-39300500D01*
X145971977Y-39300500D01*
X146200156Y-39278026D01*
X146314250Y-39266789D01*
X146651578Y-39199690D01*
X146651579Y-39199689D01*
X146651582Y-39199689D01*
X146980696Y-39099853D01*
X146980698Y-39099851D01*
X146980705Y-39099850D01*
X147298462Y-38968231D01*
X147446672Y-38889010D01*
X147601784Y-38806102D01*
X147601787Y-38806100D01*
X147887760Y-38615019D01*
X148153627Y-38396828D01*
X148396828Y-38153627D01*
X148615019Y-37887760D01*
X148806100Y-37601787D01*
X148968231Y-37298462D01*
X149099850Y-36980705D01*
X149199690Y-36651578D01*
X149266789Y-36314250D01*
X149279047Y-36189784D01*
X149300500Y-35971976D01*
X149300500Y-35628023D01*
X149266789Y-35285753D01*
X149266789Y-35285750D01*
X149199690Y-34948422D01*
X149199689Y-34948421D01*
X149199689Y-34948417D01*
X149099853Y-34619303D01*
X148968234Y-34301546D01*
X148968231Y-34301538D01*
X148968221Y-34301519D01*
X148806102Y-33998215D01*
X148710559Y-33855226D01*
X148615019Y-33712240D01*
X148396828Y-33446373D01*
X148153627Y-33203172D01*
X147887760Y-32984981D01*
X147816266Y-32937210D01*
X147601784Y-32793897D01*
X147298480Y-32631778D01*
X147298468Y-32631772D01*
X147298462Y-32631769D01*
X147298457Y-32631766D01*
X147298453Y-32631765D01*
X146980696Y-32500146D01*
X146651582Y-32400310D01*
X146380229Y-32346335D01*
X146314250Y-32333211D01*
X146314248Y-32333210D01*
X145971977Y-32299500D01*
X145971969Y-32299500D01*
X145628031Y-32299500D01*
X145628023Y-32299500D01*
X145285753Y-32333210D01*
X144948417Y-32400310D01*
X144619303Y-32500146D01*
X144301546Y-32631765D01*
X144301519Y-32631778D01*
X143998215Y-32793897D01*
X143712238Y-32984982D01*
X143446378Y-33203167D01*
X143203167Y-33446378D01*
X142984982Y-33712238D01*
X142793897Y-33998215D01*
X142631778Y-34301519D01*
X142631765Y-34301546D01*
X142500146Y-34619303D01*
X142400310Y-34948417D01*
X142333210Y-35285753D01*
X142299500Y-35628023D01*
X108682304Y-35628023D01*
X110305831Y-34004496D01*
X110360348Y-33976719D01*
X110375835Y-33975500D01*
X116792851Y-33975500D01*
X116792853Y-33975500D01*
X116875639Y-33953318D01*
X116875641Y-33953316D01*
X116875643Y-33953316D01*
X116949857Y-33910468D01*
X116949857Y-33910467D01*
X116949862Y-33910465D01*
X117868319Y-32992006D01*
X117922834Y-32964231D01*
X117957630Y-32964913D01*
X118136535Y-33000500D01*
X118136536Y-33000500D01*
X118343464Y-33000500D01*
X118343465Y-33000500D01*
X118546420Y-32960130D01*
X118737598Y-32880941D01*
X118909655Y-32765977D01*
X119055977Y-32619655D01*
X119170941Y-32447598D01*
X119250130Y-32256420D01*
X119290500Y-32053465D01*
X119290500Y-31846535D01*
X119250130Y-31643580D01*
X119170941Y-31452402D01*
X119055977Y-31280345D01*
X118909655Y-31134023D01*
X118909651Y-31134020D01*
X118737597Y-31019058D01*
X118546418Y-30939869D01*
X118454560Y-30921598D01*
X118401176Y-30891701D01*
X118375560Y-30836136D01*
X118387497Y-30776126D01*
X118432427Y-30734594D01*
X118473874Y-30725500D01*
X119204165Y-30725500D01*
X119262356Y-30744407D01*
X119274169Y-30754496D01*
X119750446Y-31230773D01*
X119778223Y-31285290D01*
X119771910Y-31338653D01*
X119769871Y-31343576D01*
X119769870Y-31343580D01*
X119729500Y-31546532D01*
X119729500Y-31753467D01*
X119769869Y-31956418D01*
X119849058Y-32147597D01*
X119921771Y-32256420D01*
X119964023Y-32319655D01*
X120110345Y-32465977D01*
X120282402Y-32580941D01*
X120473580Y-32660130D01*
X120676535Y-32700500D01*
X120676536Y-32700500D01*
X120883464Y-32700500D01*
X120883465Y-32700500D01*
X121086420Y-32660130D01*
X121277598Y-32580941D01*
X121449655Y-32465977D01*
X121595977Y-32319655D01*
X121710941Y-32147598D01*
X121790130Y-31956420D01*
X121811298Y-31850000D01*
X121811988Y-31846532D01*
X122269500Y-31846532D01*
X122269500Y-32053467D01*
X122309869Y-32256418D01*
X122389058Y-32447597D01*
X122500750Y-32614757D01*
X122504023Y-32619655D01*
X122650345Y-32765977D01*
X122822402Y-32880941D01*
X123013580Y-32960130D01*
X123216535Y-33000500D01*
X123216536Y-33000500D01*
X123423464Y-33000500D01*
X123423465Y-33000500D01*
X123626420Y-32960130D01*
X123817598Y-32880941D01*
X123989655Y-32765977D01*
X124135977Y-32619655D01*
X124250941Y-32447598D01*
X124330130Y-32256420D01*
X124370500Y-32053465D01*
X124370500Y-31846535D01*
X124330130Y-31643580D01*
X124289931Y-31546532D01*
X124809500Y-31546532D01*
X124809500Y-31753467D01*
X124849869Y-31956418D01*
X124929058Y-32147597D01*
X125001771Y-32256420D01*
X125044023Y-32319655D01*
X125190345Y-32465977D01*
X125362402Y-32580941D01*
X125553580Y-32660130D01*
X125756535Y-32700500D01*
X125756536Y-32700500D01*
X125963464Y-32700500D01*
X125963465Y-32700500D01*
X126166420Y-32660130D01*
X126357598Y-32580941D01*
X126529655Y-32465977D01*
X126675977Y-32319655D01*
X126790941Y-32147598D01*
X126870130Y-31956420D01*
X126910500Y-31753465D01*
X126910500Y-31546535D01*
X126870130Y-31343580D01*
X126790941Y-31152402D01*
X126725994Y-31055202D01*
X127250000Y-31055202D01*
X127250000Y-31849999D01*
X127250001Y-31850000D01*
X127909157Y-31850000D01*
X127900000Y-31884174D01*
X127900000Y-32015826D01*
X127909157Y-32050000D01*
X127250002Y-32050000D01*
X127250001Y-32050001D01*
X127250001Y-32844791D01*
X127252909Y-32869874D01*
X127298213Y-32972477D01*
X127377522Y-33051786D01*
X127480127Y-33097090D01*
X127505203Y-33099999D01*
X128299998Y-33099999D01*
X128300000Y-33099998D01*
X128300000Y-32440842D01*
X128334174Y-32450000D01*
X128465826Y-32450000D01*
X128500000Y-32440842D01*
X128500000Y-33099998D01*
X128500001Y-33099999D01*
X129294790Y-33099999D01*
X129294791Y-33099998D01*
X129319874Y-33097090D01*
X129422477Y-33051786D01*
X129501786Y-32972477D01*
X129547090Y-32869872D01*
X129549999Y-32844797D01*
X129550000Y-32844795D01*
X129550000Y-32050001D01*
X129549999Y-32050000D01*
X128890843Y-32050000D01*
X128900000Y-32015826D01*
X128900000Y-31884174D01*
X128890843Y-31850000D01*
X129549998Y-31850000D01*
X129549999Y-31849999D01*
X129549999Y-31055210D01*
X129549998Y-31055208D01*
X129547090Y-31030125D01*
X129501786Y-30927522D01*
X129422477Y-30848213D01*
X129319872Y-30802909D01*
X129294797Y-30800000D01*
X128500001Y-30800000D01*
X128500000Y-30800001D01*
X128500000Y-31459157D01*
X128465826Y-31450000D01*
X128334174Y-31450000D01*
X128300000Y-31459157D01*
X128300000Y-30800001D01*
X128299999Y-30800000D01*
X127505210Y-30800000D01*
X127505207Y-30800001D01*
X127480125Y-30802909D01*
X127377522Y-30848213D01*
X127298213Y-30927522D01*
X127252909Y-31030127D01*
X127250000Y-31055202D01*
X126725994Y-31055202D01*
X126675979Y-30980348D01*
X126675977Y-30980345D01*
X126529655Y-30834023D01*
X126486008Y-30804859D01*
X126357597Y-30719058D01*
X126166418Y-30639869D01*
X125963467Y-30599500D01*
X125963465Y-30599500D01*
X125756535Y-30599500D01*
X125756532Y-30599500D01*
X125553581Y-30639869D01*
X125362402Y-30719058D01*
X125190348Y-30834020D01*
X125044020Y-30980348D01*
X124929058Y-31152402D01*
X124849869Y-31343581D01*
X124809500Y-31546532D01*
X124289931Y-31546532D01*
X124250941Y-31452402D01*
X124135977Y-31280345D01*
X123989655Y-31134023D01*
X123989651Y-31134020D01*
X123817597Y-31019058D01*
X123626418Y-30939869D01*
X123423467Y-30899500D01*
X123423465Y-30899500D01*
X123216535Y-30899500D01*
X123216532Y-30899500D01*
X123013581Y-30939869D01*
X122822402Y-31019058D01*
X122650348Y-31134020D01*
X122504020Y-31280348D01*
X122389058Y-31452402D01*
X122309869Y-31643581D01*
X122269500Y-31846532D01*
X121811988Y-31846532D01*
X121816797Y-31822357D01*
X121830499Y-31753468D01*
X121830500Y-31753467D01*
X121830500Y-31753465D01*
X121830500Y-31546535D01*
X121790130Y-31343580D01*
X121710941Y-31152402D01*
X121595977Y-30980345D01*
X121449655Y-30834023D01*
X121406008Y-30804859D01*
X121277597Y-30719058D01*
X121086418Y-30639869D01*
X120883467Y-30599500D01*
X120883465Y-30599500D01*
X120676535Y-30599500D01*
X120676532Y-30599500D01*
X120473581Y-30639869D01*
X120282399Y-30719060D01*
X120276205Y-30723198D01*
X120217315Y-30739800D01*
X120159914Y-30718617D01*
X120151208Y-30710881D01*
X119944907Y-30504580D01*
X119659828Y-30219501D01*
X119632053Y-30164987D01*
X119641624Y-30104555D01*
X119684889Y-30061290D01*
X119729834Y-30050500D01*
X126800172Y-30050500D01*
X150255830Y-30050500D01*
X150295140Y-30050500D01*
X150304843Y-30050977D01*
X150436514Y-30063945D01*
X150455549Y-30067731D01*
X150577495Y-30104723D01*
X150595412Y-30112144D01*
X150707811Y-30172223D01*
X150723934Y-30182997D01*
X150822443Y-30263840D01*
X150836159Y-30277556D01*
X150917000Y-30376063D01*
X150927780Y-30392194D01*
X150987852Y-30504580D01*
X150995279Y-30522511D01*
X151032268Y-30644450D01*
X151036054Y-30663484D01*
X151049023Y-30795155D01*
X151049500Y-30804859D01*
X151049500Y-104655231D01*
X151030593Y-104713422D01*
X151020504Y-104725235D01*
X137225235Y-118520504D01*
X137170718Y-118548281D01*
X137155231Y-118549500D01*
X124304887Y-118549500D01*
X124295139Y-118549019D01*
X124164258Y-118536069D01*
X124145142Y-118532248D01*
X124092169Y-118516101D01*
X124024041Y-118495335D01*
X124006044Y-118487843D01*
X123894518Y-118427911D01*
X123878337Y-118417036D01*
X123780721Y-118336412D01*
X123766987Y-118322580D01*
X123687056Y-118224380D01*
X123676312Y-118208144D01*
X123617166Y-118096171D01*
X123609812Y-118078143D01*
X123573758Y-117956755D01*
X123570078Y-117937623D01*
X123558048Y-117806470D01*
X123557634Y-117797545D01*
X123557633Y-117797203D01*
X123557916Y-117757623D01*
X123557585Y-117756695D01*
X123557575Y-117748239D01*
X123557574Y-117747400D01*
X123557577Y-117747390D01*
X123557574Y-117747344D01*
X123555427Y-114121984D01*
X138998460Y-114121984D01*
X138998460Y-114181630D01*
X138998460Y-114280098D01*
X139039383Y-114432825D01*
X139118440Y-114569756D01*
X139230244Y-114681560D01*
X139367175Y-114760617D01*
X139519902Y-114801540D01*
X139519904Y-114801540D01*
X139678014Y-114801540D01*
X139678016Y-114801540D01*
X139830743Y-114760617D01*
X139967674Y-114681560D01*
X140079478Y-114569756D01*
X140158535Y-114432825D01*
X140199458Y-114280098D01*
X140199458Y-114121984D01*
X140158535Y-113969257D01*
X140079478Y-113832326D01*
X139967674Y-113720522D01*
X139830743Y-113641465D01*
X139678016Y-113600542D01*
X139519902Y-113600542D01*
X139367175Y-113641465D01*
X139230244Y-113720522D01*
X139118440Y-113832326D01*
X139039383Y-113969257D01*
X138998460Y-114121984D01*
X123555427Y-114121984D01*
X123554715Y-112919902D01*
X140200540Y-112919902D01*
X140200540Y-112979547D01*
X140200540Y-113078016D01*
X140241463Y-113230744D01*
X140320520Y-113367675D01*
X140432325Y-113479480D01*
X140569256Y-113558537D01*
X140721984Y-113599460D01*
X140721986Y-113599460D01*
X140880096Y-113599460D01*
X140880098Y-113599460D01*
X141032826Y-113558537D01*
X141169757Y-113479480D01*
X141281562Y-113367675D01*
X141360619Y-113230744D01*
X141401542Y-113078016D01*
X141401542Y-112919902D01*
X141360619Y-112767174D01*
X141281562Y-112630243D01*
X141169757Y-112518438D01*
X141032826Y-112439381D01*
X140880098Y-112398458D01*
X140721984Y-112398458D01*
X140569256Y-112439381D01*
X140432325Y-112518438D01*
X140320520Y-112630243D01*
X140241463Y-112767174D01*
X140200540Y-112919902D01*
X123554715Y-112919902D01*
X123552495Y-109170943D01*
X124399500Y-109170943D01*
X124399500Y-109230589D01*
X124399500Y-109329057D01*
X124440423Y-109481784D01*
X124519480Y-109618716D01*
X124631284Y-109730520D01*
X124768216Y-109809577D01*
X124920943Y-109850500D01*
X124920945Y-109850500D01*
X125079055Y-109850500D01*
X125079057Y-109850500D01*
X125231784Y-109809577D01*
X125368716Y-109730520D01*
X125480520Y-109618716D01*
X125559577Y-109481784D01*
X125600500Y-109329057D01*
X125600500Y-109170943D01*
X125559577Y-109018216D01*
X125480520Y-108881284D01*
X125368716Y-108769480D01*
X125231784Y-108690423D01*
X125079057Y-108649500D01*
X124920943Y-108649500D01*
X124768216Y-108690423D01*
X124631284Y-108769480D01*
X124519480Y-108881284D01*
X124440423Y-109018216D01*
X124399500Y-109170943D01*
X123552495Y-109170943D01*
X123551488Y-107470943D01*
X124399500Y-107470943D01*
X124399500Y-107530589D01*
X124399500Y-107629057D01*
X124440423Y-107781784D01*
X124519480Y-107918716D01*
X124631284Y-108030520D01*
X124768216Y-108109577D01*
X124920943Y-108150500D01*
X124920945Y-108150500D01*
X125079055Y-108150500D01*
X125079057Y-108150500D01*
X125231784Y-108109577D01*
X125368716Y-108030520D01*
X125480520Y-107918716D01*
X125559577Y-107781784D01*
X125600500Y-107629057D01*
X125600500Y-107470943D01*
X125559577Y-107318216D01*
X125480520Y-107181284D01*
X125368716Y-107069480D01*
X125231784Y-106990423D01*
X125079057Y-106949500D01*
X124920943Y-106949500D01*
X124768216Y-106990423D01*
X124631284Y-107069480D01*
X124519480Y-107181284D01*
X124440423Y-107318216D01*
X124399500Y-107470943D01*
X123551488Y-107470943D01*
X123550524Y-105842268D01*
X123551102Y-105840609D01*
X123550498Y-105798096D01*
X123550470Y-105750024D01*
X123550468Y-105750021D01*
X123550466Y-105745055D01*
X123549670Y-105737528D01*
X123549143Y-105698362D01*
X123542129Y-105657467D01*
X123515982Y-105505011D01*
X123515981Y-105505005D01*
X123453243Y-105319132D01*
X123453242Y-105319128D01*
X123362445Y-105145224D01*
X123339485Y-105114182D01*
X123245789Y-104987504D01*
X123245787Y-104987502D01*
X123245785Y-104987499D01*
X123106082Y-104849767D01*
X122946716Y-104735359D01*
X122946713Y-104735357D01*
X122946711Y-104735356D01*
X122771543Y-104647042D01*
X122771536Y-104647039D01*
X122584793Y-104586949D01*
X122584780Y-104586947D01*
X122391433Y-104556607D01*
X122390981Y-104556536D01*
X122390980Y-104556536D01*
X122390974Y-104556535D01*
X122292891Y-104556607D01*
X122292611Y-104556607D01*
X101649466Y-104549617D01*
X101591282Y-104530690D01*
X101555335Y-104481178D01*
X101550500Y-104450617D01*
X101550500Y-88128023D01*
X105799500Y-88128023D01*
X105799500Y-88471976D01*
X105833210Y-88814246D01*
X105900310Y-89151582D01*
X106000146Y-89480696D01*
X106131765Y-89798453D01*
X106131778Y-89798480D01*
X106293897Y-90101784D01*
X106437210Y-90316266D01*
X106484981Y-90387760D01*
X106703172Y-90653627D01*
X106946373Y-90896828D01*
X107212240Y-91115019D01*
X107355226Y-91210559D01*
X107498215Y-91306102D01*
X107801519Y-91468221D01*
X107801538Y-91468231D01*
X108119295Y-91599850D01*
X108119297Y-91599850D01*
X108119303Y-91599853D01*
X108448417Y-91699689D01*
X108448421Y-91699689D01*
X108448422Y-91699690D01*
X108785750Y-91766789D01*
X108823781Y-91770534D01*
X109128023Y-91800500D01*
X109128031Y-91800500D01*
X109471977Y-91800500D01*
X109700156Y-91778026D01*
X109814250Y-91766789D01*
X110151578Y-91699690D01*
X110151579Y-91699689D01*
X110151582Y-91699689D01*
X110480696Y-91599853D01*
X110480698Y-91599851D01*
X110480705Y-91599850D01*
X110798462Y-91468231D01*
X110946672Y-91389010D01*
X111101784Y-91306102D01*
X111101787Y-91306100D01*
X111387760Y-91115019D01*
X111653627Y-90896828D01*
X111896828Y-90653627D01*
X112115019Y-90387760D01*
X112306100Y-90101787D01*
X112468231Y-89798462D01*
X112599850Y-89480705D01*
X112699690Y-89151578D01*
X112766789Y-88814250D01*
X112787170Y-88607314D01*
X112800500Y-88471976D01*
X112800500Y-88128023D01*
X112773282Y-87851679D01*
X112766789Y-87785750D01*
X112699690Y-87448422D01*
X112699689Y-87448421D01*
X112699689Y-87448417D01*
X112599853Y-87119303D01*
X112591796Y-87099850D01*
X112468231Y-86801538D01*
X112463767Y-86793186D01*
X112306102Y-86498215D01*
X112168771Y-86292686D01*
X112115019Y-86212240D01*
X111896828Y-85946373D01*
X111653627Y-85703172D01*
X111387760Y-85484981D01*
X111316266Y-85437210D01*
X111101784Y-85293897D01*
X110798480Y-85131778D01*
X110798468Y-85131772D01*
X110798462Y-85131769D01*
X110798457Y-85131766D01*
X110798453Y-85131765D01*
X110480696Y-85000146D01*
X110151582Y-84900310D01*
X109880229Y-84846335D01*
X109814250Y-84833211D01*
X109814248Y-84833210D01*
X109471977Y-84799500D01*
X109471969Y-84799500D01*
X109128031Y-84799500D01*
X109128023Y-84799500D01*
X108785753Y-84833210D01*
X108448417Y-84900310D01*
X108119303Y-85000146D01*
X107801546Y-85131765D01*
X107801519Y-85131778D01*
X107498215Y-85293897D01*
X107212238Y-85484982D01*
X106946378Y-85703167D01*
X106703167Y-85946378D01*
X106484982Y-86212238D01*
X106293897Y-86498215D01*
X106131778Y-86801519D01*
X106131765Y-86801546D01*
X106000146Y-87119303D01*
X105900310Y-87448417D01*
X105833210Y-87785753D01*
X105799500Y-88128023D01*
X101550500Y-88128023D01*
X101550500Y-80831007D01*
X104699500Y-80831007D01*
X104699500Y-80833455D01*
X104699500Y-83768995D01*
X104726420Y-83904327D01*
X104726420Y-83904329D01*
X104779222Y-84031806D01*
X104779228Y-84031817D01*
X104855885Y-84146541D01*
X104953458Y-84244114D01*
X105068182Y-84320771D01*
X105068193Y-84320777D01*
X105115283Y-84340282D01*
X105195672Y-84373580D01*
X105331007Y-84400500D01*
X105331008Y-84400500D01*
X105468992Y-84400500D01*
X105468993Y-84400500D01*
X105604328Y-84373580D01*
X105731811Y-84320775D01*
X105846542Y-84244114D01*
X105944114Y-84146542D01*
X106020775Y-84031811D01*
X106073580Y-83904328D01*
X106100500Y-83768993D01*
X106100500Y-83434108D01*
X117399500Y-83434108D01*
X117399500Y-83565892D01*
X117416148Y-83628023D01*
X117433609Y-83693190D01*
X117499496Y-83807309D01*
X117499498Y-83807311D01*
X117499500Y-83807314D01*
X117592686Y-83900500D01*
X117592688Y-83900501D01*
X117592690Y-83900503D01*
X117706810Y-83966390D01*
X117706808Y-83966390D01*
X117706812Y-83966391D01*
X117706814Y-83966392D01*
X117834108Y-84000500D01*
X117834110Y-84000500D01*
X117965890Y-84000500D01*
X117965892Y-84000500D01*
X118093186Y-83966392D01*
X118093188Y-83966390D01*
X118093190Y-83966390D01*
X118149104Y-83934108D01*
X118999500Y-83934108D01*
X118999500Y-84065892D01*
X119021110Y-84146541D01*
X119033609Y-84193190D01*
X119099496Y-84307309D01*
X119099498Y-84307311D01*
X119099500Y-84307314D01*
X119145505Y-84353319D01*
X119173281Y-84407834D01*
X119174500Y-84423321D01*
X119174500Y-85857147D01*
X119174500Y-85942853D01*
X119175445Y-85946378D01*
X119196683Y-86025643D01*
X119239531Y-86099857D01*
X119239533Y-86099859D01*
X119239535Y-86099862D01*
X123241458Y-90101784D01*
X126645504Y-93505830D01*
X126673281Y-93560347D01*
X126674500Y-93575834D01*
X126674500Y-109957147D01*
X126674500Y-110042853D01*
X126689677Y-110099496D01*
X126696683Y-110125643D01*
X126739531Y-110199857D01*
X126739535Y-110199862D01*
X126970503Y-110430829D01*
X126998281Y-110485346D01*
X126999500Y-110500833D01*
X126999500Y-110565892D01*
X127029579Y-110678151D01*
X127033609Y-110693190D01*
X127099496Y-110807309D01*
X127099498Y-110807311D01*
X127099500Y-110807314D01*
X127192686Y-110900500D01*
X127192688Y-110900501D01*
X127192690Y-110900503D01*
X127306810Y-110966390D01*
X127306808Y-110966390D01*
X127306812Y-110966391D01*
X127306814Y-110966392D01*
X127434108Y-111000500D01*
X127434110Y-111000500D01*
X127565890Y-111000500D01*
X127565892Y-111000500D01*
X127693186Y-110966392D01*
X127693188Y-110966390D01*
X127693190Y-110966390D01*
X127807309Y-110900503D01*
X127807309Y-110900502D01*
X127807314Y-110900500D01*
X127900500Y-110807314D01*
X127966392Y-110693186D01*
X128000500Y-110565892D01*
X128000500Y-110434108D01*
X127966392Y-110306814D01*
X127966390Y-110306811D01*
X127966390Y-110306809D01*
X127900503Y-110192690D01*
X127900501Y-110192688D01*
X127900500Y-110192686D01*
X127807314Y-110099500D01*
X127807311Y-110099498D01*
X127807309Y-110099496D01*
X127693189Y-110033609D01*
X127693191Y-110033609D01*
X127643799Y-110020375D01*
X127565892Y-109999500D01*
X127565890Y-109999500D01*
X127500835Y-109999500D01*
X127493237Y-109997031D01*
X127485348Y-109998281D01*
X127464692Y-109987756D01*
X127442644Y-109980593D01*
X127430831Y-109970504D01*
X127354496Y-109894169D01*
X127326719Y-109839652D01*
X127325500Y-109824165D01*
X127325500Y-108221984D01*
X144898460Y-108221984D01*
X144898460Y-108281630D01*
X144898460Y-108380098D01*
X144939383Y-108532825D01*
X145018440Y-108669756D01*
X145130244Y-108781560D01*
X145267175Y-108860617D01*
X145419902Y-108901540D01*
X145419904Y-108901540D01*
X145578014Y-108901540D01*
X145578016Y-108901540D01*
X145730743Y-108860617D01*
X145867674Y-108781560D01*
X145979478Y-108669756D01*
X146058535Y-108532825D01*
X146099458Y-108380098D01*
X146099458Y-108221984D01*
X146058535Y-108069257D01*
X145979478Y-107932326D01*
X145867674Y-107820522D01*
X145730743Y-107741465D01*
X145578016Y-107700542D01*
X145419902Y-107700542D01*
X145267175Y-107741465D01*
X145130244Y-107820522D01*
X145018440Y-107932326D01*
X144939383Y-108069257D01*
X144898460Y-108221984D01*
X127325500Y-108221984D01*
X127325500Y-107019902D01*
X146100540Y-107019902D01*
X146100540Y-107079547D01*
X146100540Y-107178016D01*
X146141463Y-107330744D01*
X146220520Y-107467675D01*
X146332325Y-107579480D01*
X146469256Y-107658537D01*
X146621984Y-107699460D01*
X146621986Y-107699460D01*
X146780096Y-107699460D01*
X146780098Y-107699460D01*
X146932826Y-107658537D01*
X147069757Y-107579480D01*
X147181562Y-107467675D01*
X147260619Y-107330744D01*
X147301542Y-107178016D01*
X147301542Y-107019902D01*
X147260619Y-106867174D01*
X147181562Y-106730243D01*
X147069757Y-106618438D01*
X146932826Y-106539381D01*
X146780098Y-106498458D01*
X146621984Y-106498458D01*
X146469256Y-106539381D01*
X146332325Y-106618438D01*
X146220520Y-106730243D01*
X146141463Y-106867174D01*
X146100540Y-107019902D01*
X127325500Y-107019902D01*
X127325500Y-93450840D01*
X127325501Y-93450827D01*
X127325501Y-93357149D01*
X127325501Y-93357147D01*
X127303318Y-93274361D01*
X127300616Y-93269682D01*
X127286118Y-93244570D01*
X127286116Y-93244567D01*
X127281891Y-93237250D01*
X127260465Y-93200138D01*
X127199862Y-93139535D01*
X127199859Y-93139533D01*
X119854496Y-85794169D01*
X119826719Y-85739652D01*
X119825500Y-85724165D01*
X119825500Y-84423321D01*
X119844407Y-84365130D01*
X119854490Y-84353323D01*
X119900500Y-84307314D01*
X119966392Y-84193186D01*
X120000500Y-84065892D01*
X120000500Y-83965478D01*
X120019407Y-83907287D01*
X120029496Y-83895474D01*
X121118870Y-82806100D01*
X122240460Y-81684511D01*
X122278376Y-81618838D01*
X122280021Y-81615989D01*
X122300500Y-81539562D01*
X122300500Y-78865478D01*
X122319407Y-78807287D01*
X122329490Y-78795480D01*
X125490460Y-75634511D01*
X125510096Y-75600500D01*
X125530021Y-75565989D01*
X125550500Y-75489562D01*
X125550500Y-74165477D01*
X125552968Y-74157879D01*
X125551719Y-74149990D01*
X125562242Y-74129335D01*
X125569407Y-74107286D01*
X125579491Y-74095479D01*
X125690820Y-73984149D01*
X125745335Y-73956373D01*
X125800329Y-73965082D01*
X125800816Y-73963908D01*
X125805709Y-73965934D01*
X125805767Y-73965944D01*
X125805880Y-73966005D01*
X125806808Y-73966390D01*
X125806812Y-73966391D01*
X125806814Y-73966392D01*
X125934108Y-74000500D01*
X125934110Y-74000500D01*
X126065890Y-74000500D01*
X126065892Y-74000500D01*
X126193186Y-73966392D01*
X126193188Y-73966390D01*
X126193190Y-73966390D01*
X126307309Y-73900503D01*
X126307309Y-73900502D01*
X126307314Y-73900500D01*
X126380498Y-73827315D01*
X126435013Y-73799540D01*
X126495445Y-73809111D01*
X126538710Y-73852376D01*
X126549500Y-73897321D01*
X126549500Y-74834521D01*
X126530593Y-74892712D01*
X126520504Y-74904525D01*
X122615489Y-78809540D01*
X122615488Y-78809539D01*
X122559539Y-78865489D01*
X122519980Y-78934007D01*
X122519978Y-78934011D01*
X122499500Y-79010435D01*
X122499500Y-86851679D01*
X122480593Y-86909870D01*
X122470509Y-86921676D01*
X122433075Y-86959111D01*
X122399497Y-86992689D01*
X122399496Y-86992690D01*
X122333609Y-87106809D01*
X122314539Y-87177978D01*
X122299500Y-87234108D01*
X122299500Y-87365892D01*
X122321612Y-87448417D01*
X122333609Y-87493190D01*
X122399496Y-87607309D01*
X122399498Y-87607311D01*
X122399500Y-87607314D01*
X122492686Y-87700500D01*
X122492688Y-87700501D01*
X122492690Y-87700503D01*
X122606810Y-87766390D01*
X122606808Y-87766390D01*
X122606812Y-87766391D01*
X122606814Y-87766392D01*
X122734108Y-87800500D01*
X122734110Y-87800500D01*
X122865890Y-87800500D01*
X122865892Y-87800500D01*
X122993186Y-87766392D01*
X122993188Y-87766390D01*
X122993190Y-87766390D01*
X123107309Y-87700503D01*
X123107309Y-87700502D01*
X123107314Y-87700500D01*
X123200500Y-87607314D01*
X123266392Y-87493186D01*
X123300500Y-87365892D01*
X123300500Y-87234108D01*
X123288241Y-87188356D01*
X123291444Y-87127256D01*
X123329949Y-87079706D01*
X123389050Y-87063871D01*
X123409479Y-87067106D01*
X123534108Y-87100500D01*
X123534110Y-87100500D01*
X123665890Y-87100500D01*
X123665892Y-87100500D01*
X123793186Y-87066392D01*
X123793188Y-87066390D01*
X123793190Y-87066390D01*
X123907309Y-87000503D01*
X123907309Y-87000502D01*
X123907314Y-87000500D01*
X123930498Y-86977315D01*
X123985013Y-86949540D01*
X124045445Y-86959111D01*
X124088710Y-87002376D01*
X124099500Y-87047321D01*
X124099500Y-87851679D01*
X124080593Y-87909870D01*
X124070509Y-87921676D01*
X123999500Y-87992686D01*
X123999497Y-87992689D01*
X123999496Y-87992690D01*
X123933609Y-88106809D01*
X123933608Y-88106814D01*
X123899500Y-88234108D01*
X123899500Y-88365892D01*
X123927923Y-88471969D01*
X123933609Y-88493190D01*
X123999496Y-88607309D01*
X123999498Y-88607311D01*
X123999500Y-88607314D01*
X124092686Y-88700500D01*
X124092688Y-88700501D01*
X124092690Y-88700503D01*
X124206810Y-88766390D01*
X124206808Y-88766390D01*
X124206812Y-88766391D01*
X124206814Y-88766392D01*
X124334108Y-88800500D01*
X124334110Y-88800500D01*
X124465890Y-88800500D01*
X124465892Y-88800500D01*
X124593186Y-88766392D01*
X124593188Y-88766390D01*
X124593190Y-88766390D01*
X124707309Y-88700503D01*
X124707309Y-88700502D01*
X124707314Y-88700500D01*
X124800500Y-88607314D01*
X124866392Y-88493186D01*
X124900500Y-88365892D01*
X124900500Y-88234108D01*
X124866392Y-88106814D01*
X124866390Y-88106811D01*
X124866390Y-88106809D01*
X124800503Y-87992690D01*
X124800501Y-87992688D01*
X124800500Y-87992686D01*
X124729494Y-87921680D01*
X124701719Y-87867166D01*
X124700500Y-87851679D01*
X124700500Y-79165479D01*
X124719407Y-79107288D01*
X124729496Y-79095475D01*
X127945475Y-75879496D01*
X127999992Y-75851719D01*
X128015479Y-75850500D01*
X129034521Y-75850500D01*
X129092712Y-75869407D01*
X129104525Y-75879496D01*
X131331948Y-78106919D01*
X131359725Y-78161436D01*
X131360944Y-78176923D01*
X131360944Y-78265892D01*
X131371296Y-78304525D01*
X131395053Y-78393190D01*
X131460940Y-78507309D01*
X131460942Y-78507311D01*
X131460944Y-78507314D01*
X131554130Y-78600500D01*
X131554132Y-78600501D01*
X131554134Y-78600503D01*
X131668254Y-78666390D01*
X131668252Y-78666390D01*
X131668256Y-78666391D01*
X131668258Y-78666392D01*
X131795552Y-78700500D01*
X131795554Y-78700500D01*
X131895965Y-78700500D01*
X131903562Y-78702968D01*
X131911452Y-78701719D01*
X131932107Y-78712243D01*
X131954156Y-78719407D01*
X131965969Y-78729496D01*
X132041969Y-78805496D01*
X132069746Y-78860013D01*
X132060175Y-78920445D01*
X132016910Y-78963710D01*
X131971965Y-78974500D01*
X130948932Y-78974500D01*
X130948916Y-78974499D01*
X130942853Y-78974499D01*
X130857147Y-78974499D01*
X130857144Y-78974499D01*
X130774362Y-78996681D01*
X130774358Y-78996683D01*
X130700138Y-79039534D01*
X130639534Y-79100137D01*
X130639535Y-79100138D01*
X126539531Y-83200142D01*
X126496684Y-83274355D01*
X126496682Y-83274359D01*
X126496682Y-83274361D01*
X126482633Y-83326793D01*
X126482633Y-83326794D01*
X126482632Y-83326793D01*
X126474500Y-83357144D01*
X126474500Y-84376678D01*
X126455593Y-84434869D01*
X126445504Y-84446681D01*
X126399500Y-84492684D01*
X126399496Y-84492690D01*
X126333609Y-84606809D01*
X126314539Y-84677978D01*
X126299500Y-84734108D01*
X126299500Y-84865892D01*
X126329579Y-84978151D01*
X126333609Y-84993190D01*
X126399496Y-85107309D01*
X126399498Y-85107311D01*
X126399500Y-85107314D01*
X126492686Y-85200500D01*
X126492688Y-85200501D01*
X126492690Y-85200503D01*
X126606810Y-85266390D01*
X126606808Y-85266390D01*
X126606812Y-85266391D01*
X126606814Y-85266392D01*
X126734108Y-85300500D01*
X126734110Y-85300500D01*
X126865890Y-85300500D01*
X126865892Y-85300500D01*
X126993186Y-85266392D01*
X126993188Y-85266390D01*
X126993190Y-85266390D01*
X127107309Y-85200503D01*
X127107309Y-85200502D01*
X127107314Y-85200500D01*
X127200500Y-85107314D01*
X127200503Y-85107309D01*
X127266390Y-84993190D01*
X127266390Y-84993188D01*
X127266392Y-84993186D01*
X127300500Y-84865892D01*
X127300500Y-84734108D01*
X127266392Y-84606814D01*
X127266390Y-84606811D01*
X127266390Y-84606809D01*
X127200503Y-84492690D01*
X127200499Y-84492684D01*
X127154496Y-84446681D01*
X127126719Y-84392164D01*
X127125500Y-84376678D01*
X127125500Y-83628023D01*
X134799500Y-83628023D01*
X134799500Y-83971976D01*
X134833210Y-84314246D01*
X134900310Y-84651582D01*
X135000146Y-84980696D01*
X135131765Y-85298453D01*
X135131778Y-85298480D01*
X135293897Y-85601784D01*
X135437210Y-85816266D01*
X135484981Y-85887760D01*
X135703172Y-86153627D01*
X135946373Y-86396828D01*
X136212240Y-86615019D01*
X136355226Y-86710559D01*
X136498215Y-86806102D01*
X136801519Y-86968221D01*
X136801538Y-86968231D01*
X137119295Y-87099850D01*
X137119297Y-87099850D01*
X137119303Y-87099853D01*
X137448417Y-87199689D01*
X137448421Y-87199689D01*
X137448422Y-87199690D01*
X137785750Y-87266789D01*
X137823781Y-87270534D01*
X138128023Y-87300500D01*
X138128031Y-87300500D01*
X138471977Y-87300500D01*
X138700156Y-87278026D01*
X138814250Y-87266789D01*
X139151578Y-87199690D01*
X139151579Y-87199689D01*
X139151582Y-87199689D01*
X139480696Y-87099853D01*
X139480698Y-87099851D01*
X139480705Y-87099850D01*
X139798462Y-86968231D01*
X140016515Y-86851679D01*
X140101784Y-86806102D01*
X140101787Y-86806100D01*
X140387760Y-86615019D01*
X140653627Y-86396828D01*
X140896828Y-86153627D01*
X141115019Y-85887760D01*
X141306100Y-85601787D01*
X141468231Y-85298462D01*
X141599850Y-84980705D01*
X141634679Y-84865892D01*
X141699689Y-84651582D01*
X141708595Y-84606809D01*
X141766789Y-84314250D01*
X141779047Y-84189784D01*
X141800500Y-83971976D01*
X141800500Y-83628023D01*
X141773821Y-83357147D01*
X141766789Y-83285750D01*
X141699690Y-82948422D01*
X141699689Y-82948421D01*
X141699689Y-82948417D01*
X141599853Y-82619303D01*
X141536309Y-82465892D01*
X141468231Y-82301538D01*
X141417600Y-82206814D01*
X141306102Y-81998215D01*
X141168374Y-81792092D01*
X141115019Y-81712240D01*
X140896828Y-81446373D01*
X140653627Y-81203172D01*
X140387760Y-80984981D01*
X140316266Y-80937210D01*
X140101784Y-80793897D01*
X139798480Y-80631778D01*
X139798468Y-80631772D01*
X139798462Y-80631769D01*
X139798457Y-80631766D01*
X139798453Y-80631765D01*
X139480696Y-80500146D01*
X139151582Y-80400310D01*
X138880229Y-80346335D01*
X138814250Y-80333211D01*
X138814248Y-80333210D01*
X138471977Y-80299500D01*
X138471969Y-80299500D01*
X138128031Y-80299500D01*
X138128023Y-80299500D01*
X137785753Y-80333210D01*
X137448417Y-80400310D01*
X137119303Y-80500146D01*
X136801546Y-80631765D01*
X136801519Y-80631778D01*
X136498215Y-80793897D01*
X136212238Y-80984982D01*
X135946378Y-81203167D01*
X135703167Y-81446378D01*
X135484982Y-81712238D01*
X135293897Y-81998215D01*
X135131778Y-82301519D01*
X135131765Y-82301546D01*
X135000146Y-82619303D01*
X134900310Y-82948417D01*
X134833210Y-83285753D01*
X134799500Y-83628023D01*
X127125500Y-83628023D01*
X127125500Y-83575834D01*
X127144407Y-83517643D01*
X127154496Y-83505830D01*
X131005830Y-79654496D01*
X131057788Y-79628023D01*
X143799500Y-79628023D01*
X143799500Y-79971976D01*
X143833210Y-80314246D01*
X143900310Y-80651582D01*
X144000146Y-80980696D01*
X144131765Y-81298453D01*
X144131778Y-81298480D01*
X144293897Y-81601784D01*
X144405566Y-81768907D01*
X144484981Y-81887760D01*
X144703172Y-82153627D01*
X144946373Y-82396828D01*
X145212240Y-82615019D01*
X145303258Y-82675835D01*
X145498215Y-82806102D01*
X145764478Y-82948422D01*
X145801538Y-82968231D01*
X146119295Y-83099850D01*
X146119297Y-83099850D01*
X146119303Y-83099853D01*
X146448417Y-83199689D01*
X146448421Y-83199689D01*
X146448422Y-83199690D01*
X146785750Y-83266789D01*
X146823781Y-83270534D01*
X147128023Y-83300500D01*
X147128031Y-83300500D01*
X147471977Y-83300500D01*
X147700156Y-83278026D01*
X147814250Y-83266789D01*
X148151578Y-83199690D01*
X148151579Y-83199689D01*
X148151582Y-83199689D01*
X148480696Y-83099853D01*
X148480698Y-83099851D01*
X148480705Y-83099850D01*
X148798462Y-82968231D01*
X148988993Y-82866390D01*
X149101784Y-82806102D01*
X149101787Y-82806100D01*
X149387760Y-82615019D01*
X149653627Y-82396828D01*
X149896828Y-82153627D01*
X150115019Y-81887760D01*
X150306100Y-81601787D01*
X150306787Y-81600503D01*
X150389171Y-81446373D01*
X150468231Y-81298462D01*
X150599850Y-80980705D01*
X150624484Y-80899500D01*
X150699689Y-80651582D01*
X150711305Y-80593186D01*
X150766789Y-80314250D01*
X150779047Y-80189784D01*
X150800500Y-79971976D01*
X150800500Y-79628023D01*
X150766789Y-79285753D01*
X150766789Y-79285750D01*
X150699690Y-78948422D01*
X150699689Y-78948421D01*
X150699689Y-78948417D01*
X150599853Y-78619303D01*
X150536309Y-78465892D01*
X150468231Y-78301538D01*
X150417600Y-78206814D01*
X150306102Y-77998215D01*
X150173324Y-77799500D01*
X150115019Y-77712240D01*
X149896828Y-77446373D01*
X149653627Y-77203172D01*
X149387760Y-76984981D01*
X149261330Y-76900503D01*
X149101784Y-76793897D01*
X148798480Y-76631778D01*
X148798468Y-76631772D01*
X148798462Y-76631769D01*
X148798457Y-76631766D01*
X148798453Y-76631765D01*
X148480696Y-76500146D01*
X148151582Y-76400310D01*
X147880229Y-76346335D01*
X147814250Y-76333211D01*
X147814248Y-76333210D01*
X147471977Y-76299500D01*
X147471969Y-76299500D01*
X147128031Y-76299500D01*
X147128023Y-76299500D01*
X146785753Y-76333210D01*
X146448417Y-76400310D01*
X146119303Y-76500146D01*
X145801546Y-76631765D01*
X145801519Y-76631778D01*
X145498215Y-76793897D01*
X145212238Y-76984982D01*
X144946378Y-77203167D01*
X144703167Y-77446378D01*
X144484982Y-77712238D01*
X144293897Y-77998215D01*
X144131778Y-78301519D01*
X144131765Y-78301546D01*
X144000146Y-78619303D01*
X143900310Y-78948417D01*
X143833210Y-79285753D01*
X143799500Y-79628023D01*
X131057788Y-79628023D01*
X131060347Y-79626719D01*
X131075834Y-79625500D01*
X135542851Y-79625500D01*
X135542853Y-79625500D01*
X135625639Y-79603318D01*
X135625641Y-79603316D01*
X135625643Y-79603316D01*
X135699857Y-79560468D01*
X135699857Y-79560467D01*
X135699862Y-79560465D01*
X136360465Y-78899862D01*
X136364317Y-78893190D01*
X136403316Y-78825643D01*
X136403316Y-78825641D01*
X136403318Y-78825639D01*
X136425500Y-78742853D01*
X136425500Y-78657147D01*
X136425500Y-77557147D01*
X136403362Y-77474526D01*
X136403318Y-77474361D01*
X136403318Y-77474360D01*
X136360468Y-77400142D01*
X136360467Y-77400141D01*
X136360466Y-77400140D01*
X136360465Y-77400138D01*
X135529496Y-76569169D01*
X135501719Y-76514652D01*
X135500500Y-76499165D01*
X135500500Y-76434109D01*
X135500500Y-76434108D01*
X135466392Y-76306814D01*
X135466390Y-76306811D01*
X135466390Y-76306809D01*
X135400503Y-76192690D01*
X135400501Y-76192688D01*
X135400500Y-76192686D01*
X135307314Y-76099500D01*
X135307311Y-76099498D01*
X135307309Y-76099496D01*
X135193189Y-76033609D01*
X135193191Y-76033609D01*
X135143799Y-76020375D01*
X135065892Y-75999500D01*
X134934108Y-75999500D01*
X134856200Y-76020375D01*
X134806809Y-76033609D01*
X134692690Y-76099496D01*
X134599496Y-76192690D01*
X134533609Y-76306809D01*
X134530080Y-76319979D01*
X134499500Y-76434108D01*
X134499500Y-76565892D01*
X134517152Y-76631769D01*
X134533609Y-76693190D01*
X134599496Y-76807309D01*
X134599498Y-76807311D01*
X134599500Y-76807314D01*
X134692686Y-76900500D01*
X134692688Y-76900501D01*
X134692690Y-76900503D01*
X134806810Y-76966390D01*
X134806808Y-76966390D01*
X134806812Y-76966391D01*
X134806814Y-76966392D01*
X134934108Y-77000500D01*
X134999165Y-77000500D01*
X135057356Y-77019407D01*
X135069169Y-77029496D01*
X135745504Y-77705831D01*
X135773281Y-77760348D01*
X135774500Y-77775835D01*
X135774500Y-78027802D01*
X135755593Y-78085993D01*
X135706093Y-78121957D01*
X135644907Y-78121957D01*
X135607104Y-78095258D01*
X135605088Y-78097275D01*
X135600501Y-78092688D01*
X135600500Y-78092686D01*
X135507314Y-77999500D01*
X135507311Y-77999498D01*
X135507309Y-77999496D01*
X135393189Y-77933609D01*
X135393191Y-77933609D01*
X135343799Y-77920375D01*
X135265892Y-77899500D01*
X135134108Y-77899500D01*
X135056200Y-77920375D01*
X135006809Y-77933609D01*
X134892690Y-77999496D01*
X134892689Y-77999497D01*
X134892686Y-77999499D01*
X134892686Y-77999500D01*
X134821680Y-78070505D01*
X134767166Y-78098281D01*
X134751679Y-78099500D01*
X133260435Y-78099500D01*
X133184012Y-78119978D01*
X133159539Y-78134108D01*
X133159538Y-78134107D01*
X133115488Y-78159540D01*
X132904524Y-78370504D01*
X132850008Y-78398281D01*
X132834521Y-78399500D01*
X132526923Y-78399500D01*
X132519325Y-78397031D01*
X132511436Y-78398281D01*
X132490780Y-78387756D01*
X132468732Y-78380593D01*
X132456919Y-78370504D01*
X132390940Y-78304525D01*
X132363163Y-78250008D01*
X132361944Y-78234521D01*
X132361944Y-78134108D01*
X132350845Y-78092686D01*
X132327836Y-78006814D01*
X132327834Y-78006811D01*
X132327834Y-78006809D01*
X132261947Y-77892690D01*
X132261945Y-77892688D01*
X132261944Y-77892686D01*
X132168758Y-77799500D01*
X132168755Y-77799498D01*
X132168753Y-77799496D01*
X132054633Y-77733609D01*
X132054635Y-77733609D01*
X132005243Y-77720375D01*
X131927336Y-77699500D01*
X131815479Y-77699500D01*
X131757288Y-77680593D01*
X131745475Y-77670504D01*
X130574136Y-76499165D01*
X129384511Y-75309540D01*
X129377659Y-75305584D01*
X129333382Y-75280020D01*
X129333380Y-75280020D01*
X129315989Y-75269979D01*
X129315986Y-75269978D01*
X129239564Y-75249500D01*
X129239562Y-75249500D01*
X128249500Y-75249500D01*
X128191309Y-75230593D01*
X128155345Y-75181093D01*
X128150500Y-75150500D01*
X128150500Y-70984108D01*
X131999500Y-70984108D01*
X131999500Y-71115892D01*
X132027396Y-71220004D01*
X132033609Y-71243190D01*
X132099496Y-71357309D01*
X132099498Y-71357311D01*
X132099500Y-71357314D01*
X132192686Y-71450500D01*
X132192688Y-71450501D01*
X132192690Y-71450503D01*
X132306810Y-71516390D01*
X132306808Y-71516390D01*
X132306812Y-71516391D01*
X132306814Y-71516392D01*
X132434108Y-71550500D01*
X132434110Y-71550500D01*
X132534521Y-71550500D01*
X132592712Y-71569407D01*
X132604525Y-71579496D01*
X133359540Y-72334511D01*
X133359539Y-72334511D01*
X133415489Y-72390460D01*
X133484007Y-72430019D01*
X133484011Y-72430021D01*
X133560435Y-72450499D01*
X133560437Y-72450500D01*
X133560438Y-72450500D01*
X133639562Y-72450500D01*
X136660118Y-72450500D01*
X136718309Y-72469407D01*
X136754273Y-72518907D01*
X136754273Y-72580093D01*
X136745854Y-72599000D01*
X136683609Y-72706809D01*
X136669480Y-72759540D01*
X136649500Y-72834108D01*
X136649500Y-72965892D01*
X136674593Y-73059540D01*
X136683609Y-73093190D01*
X136749496Y-73207309D01*
X136749498Y-73207311D01*
X136749500Y-73207314D01*
X136822184Y-73279998D01*
X136849960Y-73334513D01*
X136840389Y-73394945D01*
X136822185Y-73420000D01*
X136776697Y-73465489D01*
X136749497Y-73492689D01*
X136749496Y-73492690D01*
X136683609Y-73606809D01*
X136683608Y-73606814D01*
X136649500Y-73734108D01*
X136649500Y-73865892D01*
X136675527Y-73963026D01*
X136683609Y-73993190D01*
X136749496Y-74107309D01*
X136749498Y-74107311D01*
X136749500Y-74107314D01*
X136797184Y-74154998D01*
X136824960Y-74209513D01*
X136815389Y-74269945D01*
X136797185Y-74295000D01*
X136749500Y-74342686D01*
X136749497Y-74342689D01*
X136749496Y-74342690D01*
X136683609Y-74456809D01*
X136683608Y-74456814D01*
X136649500Y-74584108D01*
X136649500Y-74715892D01*
X136679579Y-74828151D01*
X136683609Y-74843190D01*
X136749496Y-74957309D01*
X136749498Y-74957311D01*
X136749500Y-74957314D01*
X136842686Y-75050500D01*
X136842688Y-75050501D01*
X136842690Y-75050503D01*
X136956810Y-75116390D01*
X136956808Y-75116390D01*
X136956812Y-75116391D01*
X136956814Y-75116392D01*
X137084108Y-75150500D01*
X137084110Y-75150500D01*
X137215890Y-75150500D01*
X137215892Y-75150500D01*
X137343186Y-75116392D01*
X137343188Y-75116390D01*
X137343190Y-75116390D01*
X137457309Y-75050503D01*
X137457309Y-75050502D01*
X137457314Y-75050500D01*
X137550500Y-74957314D01*
X137580978Y-74904525D01*
X137612459Y-74850000D01*
X137657928Y-74809059D01*
X137698195Y-74800500D01*
X141151679Y-74800500D01*
X141209870Y-74819407D01*
X141221676Y-74829490D01*
X141292686Y-74900500D01*
X141292688Y-74900501D01*
X141292690Y-74900503D01*
X141406810Y-74966390D01*
X141406808Y-74966390D01*
X141406812Y-74966391D01*
X141406814Y-74966392D01*
X141534108Y-75000500D01*
X141534110Y-75000500D01*
X141665890Y-75000500D01*
X141665892Y-75000500D01*
X141793186Y-74966392D01*
X141793188Y-74966390D01*
X141793190Y-74966390D01*
X141907309Y-74900503D01*
X141907309Y-74900502D01*
X141907314Y-74900500D01*
X142000500Y-74807314D01*
X142066392Y-74693186D01*
X142100500Y-74565892D01*
X142100500Y-74434108D01*
X142066392Y-74306814D01*
X142066390Y-74306811D01*
X142066390Y-74306809D01*
X142000503Y-74192690D01*
X142000501Y-74192688D01*
X142000500Y-74192686D01*
X141907314Y-74099500D01*
X141883474Y-74085735D01*
X141842534Y-74040267D01*
X141836138Y-73979417D01*
X141866731Y-73926429D01*
X141883471Y-73914265D01*
X141907314Y-73900500D01*
X142000500Y-73807314D01*
X142004988Y-73799540D01*
X142066390Y-73693190D01*
X142066390Y-73693188D01*
X142066392Y-73693186D01*
X142100500Y-73565892D01*
X142100500Y-73434108D01*
X142066392Y-73306814D01*
X142066390Y-73306811D01*
X142066390Y-73306809D01*
X142000503Y-73192690D01*
X142000501Y-73192688D01*
X142000500Y-73192686D01*
X141927815Y-73120001D01*
X141900040Y-73065487D01*
X141909611Y-73005055D01*
X141927814Y-72979999D01*
X142000500Y-72907314D01*
X142031036Y-72854425D01*
X142066390Y-72793190D01*
X142066390Y-72793188D01*
X142066392Y-72793186D01*
X142100500Y-72665892D01*
X142100500Y-72534108D01*
X142066392Y-72406814D01*
X142066390Y-72406811D01*
X142066390Y-72406809D01*
X142000503Y-72292690D01*
X142000501Y-72292688D01*
X142000500Y-72292686D01*
X141907314Y-72199500D01*
X141883474Y-72185735D01*
X141842534Y-72140267D01*
X141836138Y-72079417D01*
X141866731Y-72026429D01*
X141883474Y-72014264D01*
X141907314Y-72000500D01*
X142000500Y-71907314D01*
X142038180Y-71842051D01*
X142066390Y-71793190D01*
X142066390Y-71793188D01*
X142066392Y-71793186D01*
X142100500Y-71665892D01*
X142100500Y-71534108D01*
X142066392Y-71406814D01*
X142066390Y-71406811D01*
X142066390Y-71406809D01*
X142000503Y-71292690D01*
X142000501Y-71292688D01*
X142000500Y-71292686D01*
X141927815Y-71220001D01*
X141900040Y-71165487D01*
X141909611Y-71105055D01*
X141927814Y-71079999D01*
X142000500Y-71007314D01*
X142011501Y-70988260D01*
X142066390Y-70893190D01*
X142066390Y-70893188D01*
X142066392Y-70893186D01*
X142100500Y-70765892D01*
X142100500Y-70634108D01*
X142098870Y-70628023D01*
X143799500Y-70628023D01*
X143799500Y-70971976D01*
X143833210Y-71314246D01*
X143900310Y-71651582D01*
X144000146Y-71980696D01*
X144131765Y-72298453D01*
X144131778Y-72298480D01*
X144293897Y-72601784D01*
X144430419Y-72806102D01*
X144484981Y-72887760D01*
X144577504Y-73000500D01*
X144697000Y-73146107D01*
X144703172Y-73153627D01*
X144946373Y-73396828D01*
X145212240Y-73615019D01*
X145329225Y-73693186D01*
X145498215Y-73806102D01*
X145798097Y-73966392D01*
X145801538Y-73968231D01*
X146119295Y-74099850D01*
X146119297Y-74099850D01*
X146119303Y-74099853D01*
X146448417Y-74199689D01*
X146448421Y-74199689D01*
X146448422Y-74199690D01*
X146785750Y-74266789D01*
X146808108Y-74268991D01*
X147128023Y-74300500D01*
X147128031Y-74300500D01*
X147471977Y-74300500D01*
X147700156Y-74278026D01*
X147814250Y-74266789D01*
X148151578Y-74199690D01*
X148151579Y-74199689D01*
X148151582Y-74199689D01*
X148480696Y-74099853D01*
X148480698Y-74099851D01*
X148480705Y-74099850D01*
X148798462Y-73968231D01*
X148956034Y-73884007D01*
X149101784Y-73806102D01*
X149111605Y-73799540D01*
X149387760Y-73615019D01*
X149653627Y-73396828D01*
X149896828Y-73153627D01*
X150115019Y-72887760D01*
X150306100Y-72601787D01*
X150307323Y-72599500D01*
X150397912Y-72430019D01*
X150468231Y-72298462D01*
X150599850Y-71980705D01*
X150628045Y-71887761D01*
X150699689Y-71651582D01*
X150700103Y-71649500D01*
X150766789Y-71314250D01*
X150786325Y-71115892D01*
X150800500Y-70971976D01*
X150800500Y-70628023D01*
X150769596Y-70314250D01*
X150766789Y-70285750D01*
X150699690Y-69948422D01*
X150699689Y-69948421D01*
X150699689Y-69948417D01*
X150599853Y-69619303D01*
X150591651Y-69599500D01*
X150468231Y-69301538D01*
X150459792Y-69285750D01*
X150306102Y-68998215D01*
X150196381Y-68834007D01*
X150115019Y-68712240D01*
X149896828Y-68446373D01*
X149653627Y-68203172D01*
X149387760Y-67984981D01*
X149310875Y-67933608D01*
X149101784Y-67793897D01*
X148798480Y-67631778D01*
X148798468Y-67631772D01*
X148798462Y-67631769D01*
X148798457Y-67631766D01*
X148798453Y-67631765D01*
X148480696Y-67500146D01*
X148151582Y-67400310D01*
X147880229Y-67346335D01*
X147814250Y-67333211D01*
X147814248Y-67333210D01*
X147471977Y-67299500D01*
X147471969Y-67299500D01*
X147128031Y-67299500D01*
X147128023Y-67299500D01*
X146785753Y-67333210D01*
X146448417Y-67400310D01*
X146119303Y-67500146D01*
X145801546Y-67631765D01*
X145801519Y-67631778D01*
X145498215Y-67793897D01*
X145212238Y-67984982D01*
X144946378Y-68203167D01*
X144703167Y-68446378D01*
X144484982Y-68712238D01*
X144293897Y-68998215D01*
X144131778Y-69301519D01*
X144131765Y-69301546D01*
X144000146Y-69619303D01*
X143900310Y-69948417D01*
X143833210Y-70285753D01*
X143799500Y-70628023D01*
X142098870Y-70628023D01*
X142066392Y-70506814D01*
X142066390Y-70506810D01*
X142066390Y-70506809D01*
X142000503Y-70392690D01*
X142000501Y-70392688D01*
X142000500Y-70392686D01*
X141907314Y-70299500D01*
X141907311Y-70299498D01*
X141907309Y-70299496D01*
X141793189Y-70233609D01*
X141793191Y-70233609D01*
X141743799Y-70220375D01*
X141665892Y-70199500D01*
X141534108Y-70199500D01*
X141456200Y-70220375D01*
X141406809Y-70233609D01*
X141292690Y-70299496D01*
X141199496Y-70392690D01*
X141133609Y-70506810D01*
X141133608Y-70506814D01*
X141128434Y-70526123D01*
X141095112Y-70577437D01*
X141037990Y-70599364D01*
X141032808Y-70599500D01*
X137460435Y-70599500D01*
X137384014Y-70619977D01*
X137384009Y-70619979D01*
X137336735Y-70647273D01*
X137315491Y-70659538D01*
X137315489Y-70659539D01*
X137315489Y-70659540D01*
X137304523Y-70670505D01*
X137250009Y-70698281D01*
X137234522Y-70699500D01*
X137134108Y-70699500D01*
X137056200Y-70720375D01*
X137006809Y-70733609D01*
X136892690Y-70799496D01*
X136799496Y-70892690D01*
X136733609Y-71006809D01*
X136733608Y-71006814D01*
X136699500Y-71134108D01*
X136699500Y-71265892D01*
X136729579Y-71378151D01*
X136733609Y-71393190D01*
X136799496Y-71507309D01*
X136799498Y-71507311D01*
X136799500Y-71507314D01*
X136892686Y-71600500D01*
X136892688Y-71600501D01*
X136897182Y-71604995D01*
X136924959Y-71659512D01*
X136915388Y-71719944D01*
X136911471Y-71726919D01*
X136905382Y-71736803D01*
X136899500Y-71742686D01*
X136865709Y-71801212D01*
X136864966Y-71802420D01*
X136842674Y-71821370D01*
X136820939Y-71840941D01*
X136819226Y-71841305D01*
X136818349Y-71842051D01*
X136814240Y-71842364D01*
X136780673Y-71849500D01*
X133765479Y-71849500D01*
X133707288Y-71830593D01*
X133695475Y-71820504D01*
X133029496Y-71154525D01*
X133001719Y-71100008D01*
X133000500Y-71084521D01*
X133000500Y-70984109D01*
X132999588Y-70980705D01*
X132966392Y-70856814D01*
X132966390Y-70856811D01*
X132966390Y-70856809D01*
X132900503Y-70742690D01*
X132900501Y-70742688D01*
X132900500Y-70742686D01*
X132807314Y-70649500D01*
X132807311Y-70649498D01*
X132807309Y-70649496D01*
X132693189Y-70583609D01*
X132693191Y-70583609D01*
X132643799Y-70570375D01*
X132565892Y-70549500D01*
X132434108Y-70549500D01*
X132356200Y-70570375D01*
X132306809Y-70583609D01*
X132192690Y-70649496D01*
X132099496Y-70742690D01*
X132033609Y-70856809D01*
X132027661Y-70879007D01*
X131999500Y-70984108D01*
X128150500Y-70984108D01*
X128150500Y-68910437D01*
X128150499Y-68910435D01*
X128130021Y-68834011D01*
X128130019Y-68834007D01*
X128090460Y-68765489D01*
X128034511Y-68709539D01*
X128034511Y-68709540D01*
X127829496Y-68504525D01*
X127801719Y-68450008D01*
X127800500Y-68434521D01*
X127800500Y-68334109D01*
X127791768Y-68301519D01*
X127766392Y-68206814D01*
X127766390Y-68206811D01*
X127766390Y-68206809D01*
X127700503Y-68092690D01*
X127700501Y-68092688D01*
X127700500Y-68092686D01*
X127607314Y-67999500D01*
X127607311Y-67999498D01*
X127607309Y-67999496D01*
X127493189Y-67933609D01*
X127493191Y-67933609D01*
X127443799Y-67920375D01*
X127365892Y-67899500D01*
X127234108Y-67899500D01*
X127234107Y-67899500D01*
X127227676Y-67900347D01*
X127227367Y-67898003D01*
X127176569Y-67895332D01*
X127129026Y-67856818D01*
X127113201Y-67797715D01*
X127135138Y-67740598D01*
X127142060Y-67732911D01*
X127588574Y-67286396D01*
X127643091Y-67258618D01*
X127703523Y-67268189D01*
X127728578Y-67286392D01*
X127742686Y-67300500D01*
X127742688Y-67300501D01*
X127742690Y-67300503D01*
X127856810Y-67366390D01*
X127856808Y-67366390D01*
X127856812Y-67366391D01*
X127856814Y-67366392D01*
X127984108Y-67400500D01*
X127984110Y-67400500D01*
X128115890Y-67400500D01*
X128115892Y-67400500D01*
X128243186Y-67366392D01*
X128243188Y-67366390D01*
X128243190Y-67366390D01*
X128357309Y-67300503D01*
X128357309Y-67300502D01*
X128357314Y-67300500D01*
X128450500Y-67207314D01*
X128450503Y-67207309D01*
X128516390Y-67093190D01*
X128516390Y-67093188D01*
X128516392Y-67093186D01*
X128550500Y-66965892D01*
X128550500Y-66834108D01*
X128516392Y-66706814D01*
X128516390Y-66706811D01*
X128516390Y-66706809D01*
X128450503Y-66592690D01*
X128450501Y-66592688D01*
X128450500Y-66592686D01*
X128357314Y-66499500D01*
X128357311Y-66499498D01*
X128357309Y-66499496D01*
X128243189Y-66433609D01*
X128243191Y-66433609D01*
X128193799Y-66420375D01*
X128115892Y-66399500D01*
X127984108Y-66399500D01*
X127906200Y-66420375D01*
X127856809Y-66433609D01*
X127742690Y-66499496D01*
X127742689Y-66499497D01*
X127742686Y-66499499D01*
X127742686Y-66499500D01*
X127671680Y-66570505D01*
X127617166Y-66598281D01*
X127601679Y-66599500D01*
X127510435Y-66599500D01*
X127434012Y-66619978D01*
X127374934Y-66654087D01*
X127365490Y-66659539D01*
X126565489Y-67459540D01*
X126565488Y-67459539D01*
X126509539Y-67515489D01*
X126469980Y-67584007D01*
X126469978Y-67584011D01*
X126449500Y-67660435D01*
X126449500Y-68483075D01*
X126430593Y-68541266D01*
X126381093Y-68577230D01*
X126324878Y-68578702D01*
X126257561Y-68560665D01*
X126215892Y-68549500D01*
X126084108Y-68549500D01*
X126006200Y-68570375D01*
X125956809Y-68583609D01*
X125842690Y-68649496D01*
X125749496Y-68742690D01*
X125683609Y-68856809D01*
X125683608Y-68856814D01*
X125649500Y-68984108D01*
X125649500Y-69115892D01*
X125679579Y-69228151D01*
X125683609Y-69243190D01*
X125749496Y-69357309D01*
X125749498Y-69357311D01*
X125749500Y-69357314D01*
X125842686Y-69450500D01*
X125842688Y-69450501D01*
X125842690Y-69450503D01*
X125956810Y-69516390D01*
X125956808Y-69516390D01*
X125956812Y-69516391D01*
X125956814Y-69516392D01*
X126084108Y-69550500D01*
X126084110Y-69550500D01*
X126184521Y-69550500D01*
X126242712Y-69569407D01*
X126254525Y-69579496D01*
X126520504Y-69845475D01*
X126548281Y-69899992D01*
X126549500Y-69915479D01*
X126549500Y-73102679D01*
X126530593Y-73160870D01*
X126481093Y-73196834D01*
X126419907Y-73196834D01*
X126380498Y-73172684D01*
X126307314Y-73099500D01*
X126307311Y-73099498D01*
X126307309Y-73099496D01*
X126193189Y-73033609D01*
X126193191Y-73033609D01*
X126143799Y-73020375D01*
X126065892Y-72999500D01*
X125934108Y-72999500D01*
X125856200Y-73020375D01*
X125806809Y-73033609D01*
X125692690Y-73099496D01*
X125599498Y-73192688D01*
X125561151Y-73259106D01*
X125545419Y-73279608D01*
X125065489Y-73759539D01*
X125009539Y-73815489D01*
X124969980Y-73884007D01*
X124969978Y-73884011D01*
X124949500Y-73960435D01*
X124949500Y-75284521D01*
X124930593Y-75342712D01*
X124920504Y-75354525D01*
X121815489Y-78459540D01*
X121815488Y-78459539D01*
X121759539Y-78515489D01*
X121719980Y-78584007D01*
X121719978Y-78584011D01*
X121699500Y-78660435D01*
X121699500Y-81334520D01*
X121680593Y-81392711D01*
X121670504Y-81404524D01*
X119604524Y-83470504D01*
X119550007Y-83498281D01*
X119534520Y-83499500D01*
X119434108Y-83499500D01*
X119366397Y-83517643D01*
X119306809Y-83533609D01*
X119192690Y-83599496D01*
X119099496Y-83692690D01*
X119033609Y-83806809D01*
X119033608Y-83806814D01*
X118999500Y-83934108D01*
X118149104Y-83934108D01*
X118207309Y-83900503D01*
X118207309Y-83900502D01*
X118207314Y-83900500D01*
X118300500Y-83807314D01*
X118366392Y-83693186D01*
X118400500Y-83565892D01*
X118400500Y-83434108D01*
X118366392Y-83306814D01*
X118366390Y-83306811D01*
X118366390Y-83306809D01*
X118300503Y-83192690D01*
X118300499Y-83192684D01*
X118254496Y-83146681D01*
X118226719Y-83092164D01*
X118225500Y-83076678D01*
X118225500Y-82675835D01*
X118244407Y-82617644D01*
X118254496Y-82605831D01*
X119030831Y-81829496D01*
X119085348Y-81801719D01*
X119100835Y-81800500D01*
X119165890Y-81800500D01*
X119165892Y-81800500D01*
X119293186Y-81766392D01*
X119293188Y-81766390D01*
X119293190Y-81766390D01*
X119407309Y-81700503D01*
X119407309Y-81700502D01*
X119407314Y-81700500D01*
X119500500Y-81607314D01*
X119539617Y-81539562D01*
X119566390Y-81493190D01*
X119566390Y-81493188D01*
X119566392Y-81493186D01*
X119600500Y-81365892D01*
X119600500Y-81234108D01*
X119566392Y-81106814D01*
X119566390Y-81106811D01*
X119566390Y-81106809D01*
X119500503Y-80992690D01*
X119500501Y-80992688D01*
X119500500Y-80992686D01*
X119407314Y-80899500D01*
X119407311Y-80899498D01*
X119407309Y-80899496D01*
X119293189Y-80833609D01*
X119293191Y-80833609D01*
X119243799Y-80820375D01*
X119165892Y-80799500D01*
X119034108Y-80799500D01*
X118956200Y-80820375D01*
X118906809Y-80833609D01*
X118792690Y-80899496D01*
X118699496Y-80992690D01*
X118633609Y-81106809D01*
X118626294Y-81134109D01*
X118602325Y-81223567D01*
X118599500Y-81234109D01*
X118599500Y-81299165D01*
X118580593Y-81357356D01*
X118570504Y-81369169D01*
X117639531Y-82300142D01*
X117596682Y-82374360D01*
X117596681Y-82374360D01*
X117596682Y-82374361D01*
X117574500Y-82457147D01*
X117574500Y-83076678D01*
X117555593Y-83134869D01*
X117545504Y-83146681D01*
X117499500Y-83192684D01*
X117499496Y-83192690D01*
X117433609Y-83306809D01*
X117428254Y-83326794D01*
X117399500Y-83434108D01*
X106100500Y-83434108D01*
X106100500Y-82831007D01*
X106100500Y-81231165D01*
X106102968Y-81223567D01*
X106101719Y-81215678D01*
X106112243Y-81195022D01*
X106119407Y-81172974D01*
X106129496Y-81161161D01*
X106156549Y-81134108D01*
X107799500Y-81134108D01*
X107799500Y-81265892D01*
X107826294Y-81365890D01*
X107833609Y-81393190D01*
X107899496Y-81507309D01*
X107899498Y-81507311D01*
X107899500Y-81507314D01*
X107992686Y-81600500D01*
X107992688Y-81600501D01*
X107992690Y-81600503D01*
X108106810Y-81666390D01*
X108106808Y-81666390D01*
X108106812Y-81666391D01*
X108106814Y-81666392D01*
X108234108Y-81700500D01*
X108234110Y-81700500D01*
X108335520Y-81700500D01*
X108357567Y-81707663D01*
X108380465Y-81711290D01*
X108386113Y-81716938D01*
X108393711Y-81719407D01*
X108407338Y-81738163D01*
X108423730Y-81754555D01*
X108424979Y-81762444D01*
X108429675Y-81768907D01*
X108429675Y-81792092D01*
X108433301Y-81814987D01*
X108429675Y-81822103D01*
X108429675Y-81830093D01*
X108405524Y-81869504D01*
X108404524Y-81870504D01*
X108350007Y-81898281D01*
X108334520Y-81899500D01*
X108234108Y-81899500D01*
X108156200Y-81920375D01*
X108106809Y-81933609D01*
X107992690Y-81999496D01*
X107899496Y-82092690D01*
X107833609Y-82206809D01*
X107833608Y-82206814D01*
X107799500Y-82334108D01*
X107799500Y-82465892D01*
X107829579Y-82578151D01*
X107833609Y-82593190D01*
X107899496Y-82707309D01*
X107899498Y-82707311D01*
X107899500Y-82707314D01*
X107992686Y-82800500D01*
X107992688Y-82800501D01*
X107992690Y-82800503D01*
X108106810Y-82866390D01*
X108106808Y-82866390D01*
X108106812Y-82866391D01*
X108106814Y-82866392D01*
X108234108Y-82900500D01*
X108234110Y-82900500D01*
X108365890Y-82900500D01*
X108365892Y-82900500D01*
X108493186Y-82866392D01*
X108493188Y-82866390D01*
X108493190Y-82866390D01*
X108607309Y-82800503D01*
X108607309Y-82800502D01*
X108607314Y-82800500D01*
X108700500Y-82707314D01*
X108700503Y-82707309D01*
X108766390Y-82593190D01*
X108766390Y-82593188D01*
X108766392Y-82593186D01*
X108800500Y-82465892D01*
X108800500Y-82365478D01*
X108819407Y-82307287D01*
X108829496Y-82295474D01*
X110790863Y-80334108D01*
X116199500Y-80334108D01*
X116199500Y-80465892D01*
X116226910Y-80568189D01*
X116233609Y-80593190D01*
X116299496Y-80707309D01*
X116299498Y-80707311D01*
X116299500Y-80707314D01*
X116392686Y-80800500D01*
X116392688Y-80800501D01*
X116392690Y-80800503D01*
X116506810Y-80866390D01*
X116506808Y-80866390D01*
X116506812Y-80866391D01*
X116506814Y-80866392D01*
X116634108Y-80900500D01*
X116634110Y-80900500D01*
X116765890Y-80900500D01*
X116765892Y-80900500D01*
X116893186Y-80866392D01*
X116893188Y-80866390D01*
X116893190Y-80866390D01*
X117007309Y-80800503D01*
X117007309Y-80800502D01*
X117007314Y-80800500D01*
X117028319Y-80779494D01*
X117082834Y-80751719D01*
X117098321Y-80750500D01*
X118046142Y-80750500D01*
X118046144Y-80750500D01*
X118135288Y-80726614D01*
X118145912Y-80720480D01*
X118215212Y-80680470D01*
X119666186Y-79229496D01*
X119720703Y-79201719D01*
X119736190Y-79200500D01*
X119765890Y-79200500D01*
X119765892Y-79200500D01*
X119893186Y-79166392D01*
X119893188Y-79166390D01*
X119893190Y-79166390D01*
X120007309Y-79100503D01*
X120007309Y-79100502D01*
X120007314Y-79100500D01*
X120100500Y-79007314D01*
X120104434Y-79000500D01*
X120166390Y-78893190D01*
X120166390Y-78893188D01*
X120166392Y-78893186D01*
X120200500Y-78765892D01*
X120200500Y-78634108D01*
X120166392Y-78506814D01*
X120166390Y-78506811D01*
X120166390Y-78506809D01*
X120100503Y-78392690D01*
X120100501Y-78392688D01*
X120100500Y-78392686D01*
X120007314Y-78299500D01*
X120007311Y-78299498D01*
X120007309Y-78299496D01*
X119893189Y-78233609D01*
X119893191Y-78233609D01*
X119843799Y-78220375D01*
X119765892Y-78199500D01*
X119634108Y-78199500D01*
X119556200Y-78220375D01*
X119506809Y-78233609D01*
X119392690Y-78299496D01*
X119299496Y-78392690D01*
X119233609Y-78506809D01*
X119199500Y-78634109D01*
X119199500Y-78663810D01*
X119180593Y-78722001D01*
X119170504Y-78733814D01*
X117883814Y-80020504D01*
X117829297Y-80048281D01*
X117813810Y-80049500D01*
X117098321Y-80049500D01*
X117040130Y-80030593D01*
X117028323Y-80020509D01*
X117007314Y-79999500D01*
X117007311Y-79999498D01*
X117007309Y-79999496D01*
X116893189Y-79933609D01*
X116893191Y-79933609D01*
X116843799Y-79920375D01*
X116765892Y-79899500D01*
X116634108Y-79899500D01*
X116556200Y-79920375D01*
X116506809Y-79933609D01*
X116392690Y-79999496D01*
X116299496Y-80092690D01*
X116233609Y-80206809D01*
X116233608Y-80206814D01*
X116199500Y-80334108D01*
X110790863Y-80334108D01*
X110867356Y-80257615D01*
X111495475Y-79629496D01*
X111549992Y-79601719D01*
X111565479Y-79600500D01*
X117689563Y-79600500D01*
X117689563Y-79600499D01*
X117765989Y-79580021D01*
X117834511Y-79540460D01*
X117890460Y-79484511D01*
X120740460Y-76634511D01*
X120742043Y-76631769D01*
X120780020Y-76565992D01*
X120780020Y-76565990D01*
X120780022Y-76565988D01*
X120800500Y-76489562D01*
X120800500Y-76410438D01*
X120800500Y-74065479D01*
X120819407Y-74007288D01*
X120829496Y-73995475D01*
X121960457Y-72864514D01*
X122014974Y-72836737D01*
X122030461Y-72835518D01*
X124001679Y-72835518D01*
X124059870Y-72854425D01*
X124071676Y-72864508D01*
X124142686Y-72935518D01*
X124142688Y-72935519D01*
X124142690Y-72935521D01*
X124256810Y-73001408D01*
X124256808Y-73001408D01*
X124256812Y-73001409D01*
X124256814Y-73001410D01*
X124384108Y-73035518D01*
X124384110Y-73035518D01*
X124515890Y-73035518D01*
X124515892Y-73035518D01*
X124643186Y-73001410D01*
X124643188Y-73001408D01*
X124643190Y-73001408D01*
X124757309Y-72935521D01*
X124757309Y-72935520D01*
X124757314Y-72935518D01*
X124850500Y-72842332D01*
X124865998Y-72815489D01*
X124916390Y-72728208D01*
X124916390Y-72728206D01*
X124916392Y-72728204D01*
X124950500Y-72600910D01*
X124950500Y-72587260D01*
X124969407Y-72529069D01*
X125018907Y-72493105D01*
X125049500Y-72488260D01*
X125115890Y-72488260D01*
X125115892Y-72488260D01*
X125243186Y-72454152D01*
X125243188Y-72454150D01*
X125243190Y-72454150D01*
X125357309Y-72388263D01*
X125357309Y-72388262D01*
X125357314Y-72388260D01*
X125450500Y-72295074D01*
X125450503Y-72295069D01*
X125516390Y-72180950D01*
X125516390Y-72180948D01*
X125516392Y-72180946D01*
X125550500Y-72053652D01*
X125550500Y-71921868D01*
X125516392Y-71794574D01*
X125516390Y-71794571D01*
X125516390Y-71794569D01*
X125450503Y-71680450D01*
X125450501Y-71680448D01*
X125450500Y-71680446D01*
X125357314Y-71587260D01*
X125357311Y-71587258D01*
X125357309Y-71587256D01*
X125243189Y-71521369D01*
X125243191Y-71521369D01*
X125190717Y-71507309D01*
X125115892Y-71487260D01*
X124984108Y-71487260D01*
X124909283Y-71507309D01*
X124856809Y-71521369D01*
X124742690Y-71587256D01*
X124742689Y-71587257D01*
X124742686Y-71587259D01*
X124742686Y-71587260D01*
X124673933Y-71656012D01*
X124619419Y-71683788D01*
X124603932Y-71685007D01*
X121628972Y-71685007D01*
X121570781Y-71666100D01*
X121534817Y-71616600D01*
X121534817Y-71555414D01*
X121558968Y-71516003D01*
X122195964Y-70879007D01*
X122250481Y-70851230D01*
X122265968Y-70850011D01*
X124714188Y-70850011D01*
X124772379Y-70868918D01*
X124784185Y-70879001D01*
X124793444Y-70888260D01*
X124793446Y-70888261D01*
X124793448Y-70888263D01*
X124907568Y-70954150D01*
X124907566Y-70954150D01*
X124907570Y-70954151D01*
X124907572Y-70954152D01*
X125034866Y-70988260D01*
X125034868Y-70988260D01*
X125166648Y-70988260D01*
X125166650Y-70988260D01*
X125293944Y-70954152D01*
X125293946Y-70954150D01*
X125293948Y-70954150D01*
X125408067Y-70888263D01*
X125408067Y-70888262D01*
X125408072Y-70888260D01*
X125501258Y-70795074D01*
X125518106Y-70765892D01*
X125567148Y-70680950D01*
X125567148Y-70680948D01*
X125567150Y-70680946D01*
X125601258Y-70553652D01*
X125601258Y-70421868D01*
X125567150Y-70294574D01*
X125567148Y-70294571D01*
X125567148Y-70294569D01*
X125501261Y-70180450D01*
X125501259Y-70180448D01*
X125501258Y-70180446D01*
X125408072Y-70087260D01*
X125408069Y-70087258D01*
X125408067Y-70087256D01*
X125293947Y-70021369D01*
X125293949Y-70021369D01*
X125244557Y-70008135D01*
X125166650Y-69987260D01*
X125040707Y-69987260D01*
X124982516Y-69968353D01*
X124946552Y-69918853D01*
X124945088Y-69913910D01*
X124916392Y-69806814D01*
X124916390Y-69806811D01*
X124916390Y-69806809D01*
X124850503Y-69692690D01*
X124850501Y-69692688D01*
X124850500Y-69692686D01*
X124757314Y-69599500D01*
X124757311Y-69599498D01*
X124757309Y-69599496D01*
X124643189Y-69533609D01*
X124643191Y-69533609D01*
X124578927Y-69516390D01*
X124515892Y-69499500D01*
X124384108Y-69499500D01*
X124321073Y-69516390D01*
X124256809Y-69533609D01*
X124142690Y-69599496D01*
X124142689Y-69599497D01*
X124142686Y-69599499D01*
X124142686Y-69599500D01*
X124071680Y-69670505D01*
X124017166Y-69698281D01*
X124001679Y-69699500D01*
X121839562Y-69699500D01*
X121760438Y-69699500D01*
X121713661Y-69712033D01*
X121684007Y-69719979D01*
X121615493Y-69759536D01*
X118615489Y-72759540D01*
X118615488Y-72759539D01*
X118559539Y-72815489D01*
X118519980Y-72884007D01*
X118519978Y-72884011D01*
X118499500Y-72960435D01*
X118499500Y-75734521D01*
X118480593Y-75792712D01*
X118470504Y-75804525D01*
X118004525Y-76270504D01*
X117950008Y-76298281D01*
X117934521Y-76299500D01*
X117760435Y-76299500D01*
X117684011Y-76319978D01*
X117635289Y-76348108D01*
X117620211Y-76356814D01*
X117620208Y-76356816D01*
X117615488Y-76359540D01*
X117004524Y-76970504D01*
X116950007Y-76998281D01*
X116934520Y-76999500D01*
X116834108Y-76999500D01*
X116759813Y-77019407D01*
X116706809Y-77033609D01*
X116592690Y-77099496D01*
X116499496Y-77192690D01*
X116433609Y-77306809D01*
X116433608Y-77306814D01*
X116399500Y-77434108D01*
X116399500Y-77565892D01*
X116427530Y-77670504D01*
X116433609Y-77693190D01*
X116499496Y-77807309D01*
X116499498Y-77807311D01*
X116499500Y-77807314D01*
X116592686Y-77900500D01*
X116592688Y-77900501D01*
X116592690Y-77900503D01*
X116706810Y-77966390D01*
X116706808Y-77966390D01*
X116706812Y-77966391D01*
X116706814Y-77966392D01*
X116834108Y-78000500D01*
X116834110Y-78000500D01*
X116965890Y-78000500D01*
X116965892Y-78000500D01*
X117093186Y-77966392D01*
X117093188Y-77966390D01*
X117093190Y-77966390D01*
X117207309Y-77900503D01*
X117207309Y-77900502D01*
X117207314Y-77900500D01*
X117254999Y-77852814D01*
X117309513Y-77825038D01*
X117369945Y-77834609D01*
X117395001Y-77852812D01*
X117442689Y-77900500D01*
X117442691Y-77900501D01*
X117442693Y-77900503D01*
X117556811Y-77966389D01*
X117556813Y-77966390D01*
X117556817Y-77966392D01*
X117556820Y-77966392D01*
X117562634Y-77968801D01*
X117609162Y-78008535D01*
X117623448Y-78068029D01*
X117600037Y-78124558D01*
X117594757Y-78130270D01*
X117354525Y-78370503D01*
X117300008Y-78398281D01*
X117284521Y-78399500D01*
X110760435Y-78399500D01*
X110684011Y-78419978D01*
X110684007Y-78419980D01*
X110615491Y-78459538D01*
X108404524Y-80670504D01*
X108350007Y-80698281D01*
X108334520Y-80699500D01*
X108234108Y-80699500D01*
X108156200Y-80720375D01*
X108106809Y-80733609D01*
X107992690Y-80799496D01*
X107899496Y-80892690D01*
X107833609Y-81006809D01*
X107833608Y-81006814D01*
X107799500Y-81134108D01*
X106156549Y-81134108D01*
X109861161Y-77429496D01*
X109915678Y-77401719D01*
X109931165Y-77400500D01*
X114768993Y-77400500D01*
X114768994Y-77400500D01*
X114904328Y-77373580D01*
X115031811Y-77320775D01*
X115146543Y-77244114D01*
X115291161Y-77099496D01*
X115394115Y-76996543D01*
X115394601Y-76996056D01*
X115394603Y-76996054D01*
X115471264Y-76881322D01*
X115524069Y-76753839D01*
X115550989Y-76618505D01*
X115550989Y-76480517D01*
X115550989Y-75631007D01*
X115550989Y-75230674D01*
X115569896Y-75172483D01*
X115579979Y-75160676D01*
X116094113Y-74646543D01*
X116114530Y-74615988D01*
X116170775Y-74531811D01*
X116223580Y-74404328D01*
X116224541Y-74399500D01*
X116224544Y-74399486D01*
X116228934Y-74377413D01*
X116228934Y-74377409D01*
X116233215Y-74355886D01*
X116250500Y-74268993D01*
X116250500Y-59999500D01*
X116269407Y-59941309D01*
X116318907Y-59905345D01*
X116349500Y-59900500D01*
X118668992Y-59900500D01*
X118668993Y-59900500D01*
X118804328Y-59873580D01*
X118931811Y-59820775D01*
X119046542Y-59744114D01*
X119144114Y-59646542D01*
X119220775Y-59531811D01*
X119273580Y-59404328D01*
X119300500Y-59268993D01*
X119300500Y-59131007D01*
X119273580Y-58995672D01*
X119220775Y-58868189D01*
X119220774Y-58868187D01*
X119220771Y-58868182D01*
X119144114Y-58753458D01*
X119046541Y-58655885D01*
X118931817Y-58579228D01*
X118931806Y-58579222D01*
X118804328Y-58526420D01*
X118668995Y-58499500D01*
X118668993Y-58499500D01*
X115618993Y-58499500D01*
X115481007Y-58499500D01*
X115481004Y-58499500D01*
X115345672Y-58526420D01*
X115345670Y-58526420D01*
X115218193Y-58579222D01*
X115218182Y-58579228D01*
X115103458Y-58655885D01*
X115005885Y-58753458D01*
X114929228Y-58868182D01*
X114929222Y-58868193D01*
X114876420Y-58995670D01*
X114876420Y-58995672D01*
X114849500Y-59131004D01*
X114849500Y-73868835D01*
X114830593Y-73927026D01*
X114820504Y-73938838D01*
X114403457Y-74355885D01*
X114403457Y-74355886D01*
X114403456Y-74355885D01*
X114305885Y-74453457D01*
X114229223Y-74568191D01*
X114176420Y-74695670D01*
X114176420Y-74695672D01*
X114149500Y-74831003D01*
X114149500Y-74968989D01*
X114149512Y-74969111D01*
X114149989Y-74978820D01*
X114149989Y-75900500D01*
X114131082Y-75958691D01*
X114081582Y-75994655D01*
X114050989Y-75999500D01*
X109531003Y-75999500D01*
X109395672Y-76026420D01*
X109395670Y-76026420D01*
X109268191Y-76079223D01*
X109153460Y-76155883D01*
X104855883Y-80453460D01*
X104779223Y-80568191D01*
X104726420Y-80695670D01*
X104726420Y-80695672D01*
X104700935Y-80823791D01*
X104700932Y-80823807D01*
X104700463Y-80826168D01*
X104699500Y-80831007D01*
X101550500Y-80831007D01*
X101550500Y-70944767D01*
X101569407Y-70886576D01*
X101579490Y-70874769D01*
X102441895Y-70012364D01*
X102441897Y-70012364D01*
X102512364Y-69941897D01*
X102536341Y-69884011D01*
X102550501Y-69849827D01*
X102550501Y-69750172D01*
X102550500Y-69750169D01*
X102550500Y-69628023D01*
X105799500Y-69628023D01*
X105799500Y-69971976D01*
X105833210Y-70314246D01*
X105900310Y-70651582D01*
X106000146Y-70980696D01*
X106131765Y-71298453D01*
X106131778Y-71298480D01*
X106293897Y-71601784D01*
X106421789Y-71793186D01*
X106484981Y-71887760D01*
X106703172Y-72153627D01*
X106946373Y-72396828D01*
X107212240Y-72615019D01*
X107349621Y-72706814D01*
X107498215Y-72806102D01*
X107786958Y-72960438D01*
X107801538Y-72968231D01*
X108119295Y-73099850D01*
X108119297Y-73099850D01*
X108119303Y-73099853D01*
X108448417Y-73199689D01*
X108448421Y-73199689D01*
X108448422Y-73199690D01*
X108785750Y-73266789D01*
X108822343Y-73270393D01*
X109128023Y-73300500D01*
X109128031Y-73300500D01*
X109471977Y-73300500D01*
X109700156Y-73278026D01*
X109814250Y-73266789D01*
X110151578Y-73199690D01*
X110151579Y-73199689D01*
X110151582Y-73199689D01*
X110480696Y-73099853D01*
X110480698Y-73099851D01*
X110480705Y-73099850D01*
X110798462Y-72968231D01*
X110956034Y-72884007D01*
X111101784Y-72806102D01*
X111121114Y-72793186D01*
X111387760Y-72615019D01*
X111653627Y-72396828D01*
X111896828Y-72153627D01*
X112115019Y-71887760D01*
X112306100Y-71601787D01*
X112313867Y-71587257D01*
X112389010Y-71446672D01*
X112468231Y-71298462D01*
X112599850Y-70980705D01*
X112607906Y-70954150D01*
X112699689Y-70651582D01*
X112713210Y-70583608D01*
X112766789Y-70314250D01*
X112789145Y-70087260D01*
X112800500Y-69971976D01*
X112800500Y-69628023D01*
X112773837Y-69357309D01*
X112766789Y-69285750D01*
X112699690Y-68948422D01*
X112699689Y-68948421D01*
X112699689Y-68948417D01*
X112599853Y-68619303D01*
X112552311Y-68504525D01*
X112468231Y-68301538D01*
X112417600Y-68206814D01*
X112306102Y-67998215D01*
X112190009Y-67824471D01*
X112115019Y-67712240D01*
X111896828Y-67446373D01*
X111653627Y-67203172D01*
X111387760Y-66984981D01*
X111316266Y-66937210D01*
X111101784Y-66793897D01*
X110798480Y-66631778D01*
X110798468Y-66631772D01*
X110798462Y-66631769D01*
X110798457Y-66631766D01*
X110798453Y-66631765D01*
X110480696Y-66500146D01*
X110151582Y-66400310D01*
X109880229Y-66346335D01*
X109814250Y-66333211D01*
X109814248Y-66333210D01*
X109471977Y-66299500D01*
X109471969Y-66299500D01*
X109128031Y-66299500D01*
X109128023Y-66299500D01*
X108785753Y-66333210D01*
X108448417Y-66400310D01*
X108119303Y-66500146D01*
X107801546Y-66631765D01*
X107801519Y-66631778D01*
X107498215Y-66793897D01*
X107212238Y-66984982D01*
X106946378Y-67203167D01*
X106703167Y-67446378D01*
X106484982Y-67712238D01*
X106293897Y-67998215D01*
X106131778Y-68301519D01*
X106131765Y-68301546D01*
X106000146Y-68619303D01*
X105900310Y-68948417D01*
X105833210Y-69285753D01*
X105799500Y-69628023D01*
X102550500Y-69628023D01*
X102550500Y-49861359D01*
X102550501Y-49861350D01*
X102550501Y-49750173D01*
X102518885Y-49673847D01*
X102512364Y-49658104D01*
X102512364Y-49658103D01*
X102441897Y-49587636D01*
X102441895Y-49587635D01*
X101579496Y-48725235D01*
X101551719Y-48670718D01*
X101550500Y-48655231D01*
X101550500Y-42882044D01*
X101550585Y-42877946D01*
X101554593Y-42781192D01*
X101554592Y-42781190D01*
X101554593Y-42781186D01*
X101533465Y-42573687D01*
X101482994Y-42371313D01*
X101404210Y-42178192D01*
X101298719Y-41998264D01*
X101168674Y-41835197D01*
X101016726Y-41692319D01*
X101016724Y-41692317D01*
X101016719Y-41692313D01*
X100931917Y-41632819D01*
X100931606Y-41632600D01*
X100462245Y-41300612D01*
X100462219Y-41300594D01*
X100453653Y-41294531D01*
X100452186Y-41292500D01*
X100418409Y-41269585D01*
X100417620Y-41269027D01*
X100417479Y-41268838D01*
X100412280Y-41264968D01*
X100288489Y-41164102D01*
X100276067Y-41152026D01*
X100174608Y-41034433D01*
X100164482Y-41020376D01*
X100085076Y-40886897D01*
X100077558Y-40871296D01*
X100022631Y-40726007D01*
X100017951Y-40709342D01*
X99989194Y-40556708D01*
X99987489Y-40539473D01*
X99987219Y-40514918D01*
X99985779Y-40384157D01*
X99987104Y-40366900D01*
X100012497Y-40213660D01*
X100016809Y-40196899D01*
X100068527Y-40050432D01*
X100075691Y-40034687D01*
X100154195Y-39895859D01*
X100159011Y-39888186D01*
X100159342Y-39887709D01*
X106951594Y-30093083D01*
X107000291Y-30056041D01*
X107032947Y-30050500D01*
X114250166Y-30050500D01*
X114308357Y-30069407D01*
G37*
G04 #@! TD.AperFunction*
M02*
